{"glyphs":{"0":{"ha":653,"x_min":15,"x_max":635,"o":"m 44 207 q 33 231 33 218 q 35 240 33 239 l 36 240 l 47 208 q 51 197 49 200 l 44 207 m 49 361 l 54 343 l 54 324 l 51 315 l 47 331 l 49 361 m 447 515 q 446 517 446 515 q 447 518 447 517 l 447 524 q 451 522 451 524 l 450 515 q 449 517 450 517 q 447 515 447 517 m 432 554 q 431 549 432 549 l 432 549 q 433 550 433 549 l 435 553 q 432 554 435 554 m 424 556 l 426 571 q 428 569 428 571 q 426 568 428 568 l 431 568 l 433 565 q 435 560 435 564 l 435 557 l 436 557 q 439 553 439 554 l 435 547 q 433 540 435 543 q 429 542 432 542 l 426 542 q 429 547 429 544 l 418 547 l 424 556 m 472 590 q 476 593 472 593 q 475 600 475 594 q 476 607 475 606 q 471 608 476 608 l 472 626 l 474 626 q 476 624 476 626 q 478 621 476 621 l 482 621 q 476 600 475 599 q 478 596 478 600 l 476 583 l 469 585 l 472 590 m 442 639 q 443 636 443 639 l 443 635 q 450 636 444 636 l 456 635 q 453 619 453 624 l 447 618 q 443 619 444 618 l 443 625 q 440 626 443 626 q 438 628 439 628 q 435 625 435 628 l 436 618 l 433 613 q 432 610 432 611 l 432 621 l 433 621 q 435 625 435 622 l 433 622 l 431 631 l 432 636 q 435 635 433 636 l 442 639 m 129 804 q 128 807 128 806 l 131 817 q 146 850 146 849 l 146 851 l 147 850 l 146 846 q 143 840 144 842 l 144 833 l 142 831 q 136 818 136 825 l 133 815 q 131 807 131 813 l 129 804 m 103 139 q 106 135 103 138 q 103 139 106 139 m 71 235 q 79 214 71 221 l 76 228 q 71 240 72 239 l 71 235 m 378 282 q 383 286 379 282 q 378 282 382 286 m 376 274 l 374 274 q 371 267 371 274 l 379 269 l 379 272 q 383 278 379 274 l 385 279 q 383 282 385 281 l 376 274 m 407 297 q 410 301 407 299 q 407 303 410 303 q 406 300 407 300 l 406 307 q 403 313 406 313 l 400 301 l 397 299 q 396 296 396 299 l 396 293 l 403 290 q 408 297 406 290 l 407 297 m 381 353 q 376 349 376 353 q 378 344 376 346 l 378 346 q 381 349 378 347 q 383 351 383 350 l 383 353 l 381 353 m 424 364 q 421 360 421 361 q 422 357 421 358 q 425 361 422 358 q 428 365 428 364 q 426 368 428 367 l 424 364 m 521 369 q 517 364 518 367 q 521 361 517 361 q 519 364 519 361 l 522 368 q 521 369 522 369 m 389 365 l 390 365 l 389 361 l 390 361 q 397 363 390 363 l 397 364 q 396 368 397 367 l 394 371 q 393 375 394 375 l 389 365 m 29 436 l 32 438 q 29 444 32 442 l 29 436 m 532 461 q 535 464 535 463 q 533 468 535 467 l 532 461 m 542 482 q 546 483 546 482 l 544 488 q 542 493 543 493 l 542 482 m 92 493 q 90 490 92 492 q 89 488 89 490 l 90 488 q 93 492 93 488 l 92 493 m 515 519 q 508 508 508 519 l 508 504 q 514 506 511 504 l 518 507 l 526 504 l 522 513 l 524 514 q 519 517 524 515 q 515 518 515 517 l 515 519 m 511 500 q 508 496 510 496 q 515 492 513 494 q 506 476 515 476 l 506 471 l 503 471 l 497 465 l 497 461 q 493 454 497 454 q 494 450 494 453 q 492 442 494 447 l 489 435 q 492 433 492 435 q 490 426 490 432 l 490 421 q 493 414 493 418 l 493 408 q 490 407 492 408 l 490 406 q 492 396 492 404 q 490 392 490 394 q 496 385 490 386 q 499 389 497 385 l 501 393 l 507 392 l 510 400 l 508 400 q 506 403 506 400 q 508 406 506 406 q 510 401 510 406 q 515 400 515 401 q 514 399 514 400 q 515 397 514 397 q 521 407 515 403 q 526 421 525 421 q 528 410 528 419 q 526 407 528 408 l 524 406 q 525 404 525 406 l 526 403 q 525 401 526 401 l 524 399 l 525 389 l 524 385 q 528 392 528 385 q 536 404 536 396 l 538 408 l 536 422 q 539 429 536 426 l 539 432 q 542 456 539 444 l 532 456 l 532 453 q 528 446 532 449 l 529 447 q 526 449 529 449 l 522 451 q 526 458 525 453 l 529 465 q 528 472 528 467 q 529 475 529 474 l 528 500 l 526 500 q 524 497 525 500 l 521 493 q 519 496 519 494 l 521 500 l 519 503 q 518 501 518 503 l 519 499 q 518 497 519 497 q 517 500 517 497 l 513 504 l 511 500 m 44 503 l 42 492 l 43 489 q 44 485 44 488 l 44 483 q 43 478 44 479 l 42 476 q 39 460 39 474 q 47 474 47 460 l 47 482 q 49 486 47 485 l 50 488 l 49 504 l 50 519 l 44 519 l 44 503 m 94 524 q 99 518 94 518 l 99 528 q 97 539 99 538 l 94 524 m 596 532 q 600 538 600 532 q 597 544 600 544 l 596 532 m 522 544 q 519 536 522 542 q 515 528 515 532 l 515 526 q 521 535 518 528 l 529 540 q 522 544 529 544 m 529 561 q 526 550 526 558 q 532 556 532 550 q 529 561 532 558 m 531 594 q 524 579 525 579 l 522 581 q 521 575 521 579 l 521 572 l 525 572 q 528 567 528 572 l 528 563 l 533 568 q 532 574 532 571 l 533 574 l 533 582 q 532 590 533 589 q 531 594 532 593 m 194 628 q 192 611 192 624 l 192 604 q 194 611 194 606 l 197 628 q 196 632 197 631 l 194 628 m 179 610 l 182 603 q 183 597 182 597 q 185 610 185 603 l 190 624 l 189 624 q 188 626 188 625 q 190 628 190 626 q 192 644 192 632 q 182 632 196 646 l 183 642 q 182 644 183 644 q 179 636 179 642 l 174 628 q 172 631 172 628 l 172 632 q 171 636 172 636 q 168 632 171 632 l 165 607 q 168 599 165 599 l 171 617 l 178 619 q 181 626 178 624 l 179 610 m 538 660 q 533 653 533 656 q 538 651 535 651 q 542 658 542 656 q 538 660 540 660 m 151 643 q 154 647 154 643 q 156 660 156 653 l 144 629 l 143 621 q 144 613 143 613 l 149 618 q 151 603 149 606 q 154 619 154 614 l 160 625 l 163 650 q 157 647 160 650 q 153 643 154 643 l 151 643 m 478 724 l 481 724 q 483 729 483 724 l 483 731 q 481 733 483 733 l 478 724 m 432 835 q 433 829 433 835 l 442 819 q 453 786 447 792 l 453 779 l 454 778 q 457 776 456 776 l 456 786 q 453 800 453 794 l 436 835 l 432 835 m 197 889 q 185 872 179 871 l 182 874 l 179 867 q 181 865 179 865 q 185 871 182 868 q 186 867 185 867 q 190 869 186 869 l 192 878 l 196 883 l 197 889 m 174 896 l 167 876 l 172 874 l 172 885 q 175 890 175 885 l 175 896 l 174 896 m 386 340 q 383 339 386 339 q 378 315 378 319 l 378 313 q 383 317 379 313 q 386 339 386 322 l 386 340 m 378 311 q 376 308 376 311 l 376 301 l 381 297 l 388 297 l 390 293 l 396 299 q 397 304 397 300 l 399 313 q 400 317 399 315 q 392 311 397 317 q 383 304 388 304 q 381 311 383 311 l 378 311 m 75 169 l 72 178 q 68 181 69 181 q 65 182 67 181 q 64 186 65 185 l 57 196 l 57 204 q 56 210 57 210 q 53 211 53 210 l 51 222 l 53 222 l 51 221 q 50 231 51 229 q 46 229 47 231 l 44 228 q 43 229 43 228 q 42 238 42 233 q 43 243 42 242 q 40 250 40 246 l 40 254 q 39 256 40 256 q 38 258 38 257 l 39 261 l 35 271 q 39 268 39 271 q 40 269 40 268 l 39 276 q 40 279 39 278 l 46 285 q 47 288 47 286 q 49 283 49 288 q 51 278 49 278 l 54 261 l 58 253 q 64 235 58 240 q 65 242 65 235 q 63 247 63 244 l 61 257 q 58 275 58 260 l 54 301 q 57 304 54 303 l 60 306 q 64 299 64 304 q 63 289 64 294 l 61 281 q 65 286 65 281 l 64 294 l 68 300 q 71 292 71 300 l 75 283 l 78 283 l 82 278 l 85 279 l 82 300 q 75 301 82 294 l 76 307 l 71 329 q 68 346 68 340 q 65 350 68 347 q 63 357 63 353 q 64 364 63 361 q 61 363 63 364 q 60 369 60 363 l 60 397 q 58 393 58 397 q 54 396 53 396 l 51 393 q 50 394 50 393 l 50 397 q 49 399 50 399 l 47 399 q 42 394 44 399 q 39 401 39 394 l 42 422 l 40 436 q 39 444 40 444 q 38 431 38 440 q 31 401 33 410 l 31 394 q 29 399 29 394 l 31 428 q 28 424 28 425 l 28 413 l 26 413 l 25 428 q 28 435 25 433 l 28 456 q 31 451 31 456 l 31 449 q 35 460 35 451 l 35 467 q 31 476 31 471 l 35 504 q 39 506 36 506 l 40 506 l 43 517 l 42 536 l 43 539 l 42 543 q 47 564 42 554 l 51 578 q 53 583 51 582 q 54 581 54 583 l 53 572 q 56 579 56 575 q 57 576 57 579 l 54 565 l 53 543 l 58 543 l 56 532 l 58 532 q 65 533 64 532 q 67 528 67 533 l 65 518 q 64 510 64 514 q 63 511 63 510 l 64 519 q 63 524 64 522 q 56 513 57 521 q 54 496 54 510 q 61 506 61 499 l 60 481 l 63 479 q 64 478 64 479 q 63 458 64 463 q 61 446 61 453 q 63 440 61 442 q 64 447 64 442 l 67 464 l 72 461 q 74 465 74 463 l 74 469 q 75 465 75 469 l 85 469 q 88 485 85 465 l 89 504 q 90 515 89 513 q 92 525 90 522 l 96 544 l 97 544 q 99 540 99 543 q 103 549 103 544 q 104 550 103 550 l 106 550 q 110 563 106 558 l 113 568 l 111 544 q 113 543 113 544 l 111 532 q 110 525 111 526 l 107 510 l 108 503 q 110 507 110 503 q 113 526 113 515 q 114 538 114 531 l 114 543 q 121 544 115 544 l 122 557 l 128 560 q 133 563 131 563 q 135 565 135 564 l 132 572 l 133 572 q 135 576 135 574 q 136 579 135 579 q 135 588 135 581 l 133 590 q 135 592 135 590 q 132 597 135 597 l 133 603 l 135 603 q 136 607 136 603 l 138 613 q 142 631 138 618 q 146 649 146 643 l 146 650 q 154 664 154 653 q 150 669 150 668 q 157 671 151 671 q 160 693 157 685 l 163 704 q 167 713 164 711 l 168 736 l 171 750 q 174 765 174 761 q 167 749 171 763 l 161 732 q 160 736 160 733 l 163 747 q 164 756 163 754 l 167 756 q 168 758 168 757 l 168 761 q 163 768 168 765 q 160 763 160 765 q 158 757 158 761 l 160 751 q 150 732 156 738 q 147 721 150 729 q 144 708 144 713 q 143 713 143 710 l 146 724 q 147 732 146 731 l 154 758 q 156 763 154 761 l 158 768 q 160 776 160 769 l 160 783 l 169 811 q 167 814 169 813 q 164 815 164 814 l 168 824 q 171 829 171 826 q 172 838 171 836 l 165 836 q 161 838 163 836 l 157 828 q 151 819 151 822 q 147 811 153 819 l 163 853 q 161 863 161 858 l 161 864 q 156 860 158 864 q 149 854 151 854 q 151 861 149 857 l 154 865 l 154 879 l 157 883 q 161 888 158 888 l 167 894 l 169 894 l 171 899 l 172 897 l 174 906 q 175 910 174 908 q 176 911 175 911 l 179 914 q 182 918 182 917 q 194 933 189 928 l 200 947 q 204 949 203 947 l 208 950 l 222 964 l 228 964 l 229 968 l 233 968 q 236 969 235 968 l 239 971 q 260 986 244 976 q 281 1001 275 996 l 285 1001 q 288 1003 288 1001 l 292 1008 l 294 1008 q 296 1010 296 1008 l 299 1011 q 315 1017 306 1017 q 317 1018 315 1018 l 319 1018 q 333 1026 326 1019 q 349 1033 340 1031 l 381 1042 l 408 1040 q 410 1039 410 1040 l 411 1036 q 440 1029 418 1029 q 447 1024 446 1029 q 475 1019 460 1019 l 479 1019 q 490 1014 483 1014 q 496 1010 493 1014 l 508 999 q 515 993 513 993 q 526 983 517 993 q 536 972 535 976 q 551 957 550 963 q 556 951 556 954 l 558 943 q 560 940 558 942 l 563 939 q 564 938 564 939 q 568 931 565 933 l 585 903 l 589 900 q 590 896 590 899 q 592 892 592 896 l 596 883 q 601 868 599 879 l 607 860 l 608 851 q 614 840 619 840 l 622 817 q 625 808 625 811 q 626 803 626 807 q 628 799 626 800 q 631 788 631 790 l 631 778 q 632 761 631 765 q 635 700 635 722 q 633 683 635 690 q 632 668 632 676 l 631 646 q 629 644 629 646 q 621 586 629 611 l 621 579 l 619 578 q 618 567 618 575 l 618 553 q 617 551 617 553 q 608 500 615 524 q 604 521 611 499 l 601 515 q 600 513 600 514 l 601 511 q 603 508 603 511 l 599 506 q 594 501 594 504 l 594 508 q 596 531 594 526 l 594 531 q 593 525 593 528 l 590 513 q 589 506 590 507 l 585 506 l 585 500 q 583 499 585 499 l 582 499 q 581 493 581 497 l 575 456 q 572 454 572 456 l 569 442 l 571 439 l 565 390 q 569 400 568 392 l 571 408 q 572 394 572 407 q 575 383 572 383 q 578 389 578 383 q 579 396 578 394 q 586 399 586 396 l 590 408 q 592 396 592 408 l 582 315 q 579 307 579 313 l 578 293 q 576 279 578 283 l 569 244 q 564 221 564 226 l 564 214 q 563 211 564 211 l 561 211 l 558 199 q 553 181 556 186 q 551 176 553 178 l 550 175 q 531 122 550 161 l 514 89 l 492 57 l 489 49 l 479 39 q 478 36 478 38 q 454 14 463 19 q 453 13 453 14 l 450 11 q 446 8 449 11 q 442 6 444 6 q 431 3 439 3 l 401 6 l 383 10 q 376 14 383 11 l 372 18 q 368 19 372 19 l 364 19 l 360 25 q 353 31 354 25 l 351 31 q 342 32 346 31 l 321 36 l 315 35 l 314 36 q 313 35 314 35 q 292 32 306 32 q 268 35 285 32 q 267 36 268 36 q 261 40 264 36 l 258 40 q 243 46 254 40 l 225 46 l 219 43 q 214 42 217 42 q 208 43 210 42 l 207 46 l 204 44 q 199 43 201 43 l 197 43 l 197 46 l 190 46 q 188 47 189 46 q 181 50 186 49 l 168 56 l 151 69 q 147 74 150 69 l 133 90 q 124 97 126 97 q 119 104 124 100 l 115 110 q 110 108 110 110 q 100 115 99 119 l 99 119 l 78 139 q 75 142 75 139 l 75 143 q 78 144 75 144 l 79 139 q 83 138 83 139 q 92 131 86 133 l 94 129 q 99 126 96 126 q 101 133 101 129 q 100 139 101 138 q 99 143 99 140 l 100 142 q 101 146 101 142 l 100 146 q 96 147 97 146 q 88 150 96 150 q 71 175 72 165 l 75 169 m 29 265 q 26 271 26 268 q 28 275 26 274 q 29 272 29 275 l 29 265 m 22 340 q 21 338 21 340 l 21 328 q 19 331 19 328 l 18 335 q 15 342 15 338 l 15 360 l 17 360 q 18 364 18 361 l 19 364 q 22 356 22 364 q 24 363 24 356 l 25 363 l 26 336 q 28 332 26 333 l 31 332 q 33 329 31 329 l 31 328 q 29 326 29 328 l 29 319 q 28 311 29 313 q 25 293 25 297 l 26 290 q 25 294 25 292 l 22 324 l 24 326 q 22 328 22 326 l 22 340 m 503 400 l 503 404 l 499 403 l 499 400 l 503 400 m 522 429 q 529 432 525 432 l 529 425 l 522 425 l 522 429 m 526 444 l 526 446 q 524 449 526 449 l 519 446 l 526 444 m 456 460 q 461 471 456 465 l 463 471 q 464 464 464 468 q 465 458 465 463 l 463 458 q 457 439 456 436 l 456 442 l 458 456 q 457 458 458 457 q 456 460 456 458 m 68 469 q 65 481 68 481 l 64 476 q 68 469 64 474 m 519 483 l 519 486 l 517 486 l 517 483 l 519 483 m 63 564 q 64 561 64 564 l 63 550 l 63 564 m 443 568 q 440 572 440 568 l 442 579 q 444 576 444 579 l 443 568 m 82 615 q 83 613 83 615 q 82 606 83 608 q 79 601 82 601 l 82 615 m 86 622 q 85 625 85 622 l 88 642 l 89 642 q 92 640 90 642 l 94 639 l 86 622 m 107 638 q 106 640 106 639 q 107 647 106 644 q 108 644 108 646 l 107 638 m 426 649 q 424 654 424 651 q 426 660 424 657 l 431 660 q 422 647 431 647 q 426 649 422 649 m 101 686 q 106 703 101 694 q 110 696 110 699 q 107 686 110 693 q 103 676 103 681 q 101 686 101 676 m 132 710 q 133 713 132 711 l 135 715 l 138 713 l 136 710 q 133 708 135 708 l 132 710 m 118 721 q 115 724 115 721 l 118 735 q 121 731 121 732 l 118 721 m 435 738 q 433 742 433 738 l 433 747 q 435 738 435 747 m 111 778 q 113 775 113 776 l 111 769 q 108 758 111 765 q 106 749 106 751 l 103 768 q 107 769 104 769 l 110 769 l 111 778 m 133 840 q 135 849 133 847 q 140 853 135 853 q 133 839 138 850 l 133 840 m 49 318 l 47 317 l 49 315 l 49 318 m 82 176 q 83 174 82 175 l 82 176 m 40 260 q 38 267 40 267 q 36 264 36 267 l 39 258 l 40 260 m 479 792 q 478 793 479 793 l 476 793 q 479 785 476 788 l 479 792 m 481 701 q 475 708 481 707 q 474 703 475 704 q 476 700 474 701 l 481 701 m 476 699 q 475 700 475 699 l 468 693 l 468 700 q 469 717 468 711 q 465 711 467 717 q 461 707 465 707 l 461 721 l 456 728 q 447 724 451 728 q 444 735 444 726 l 442 735 q 440 736 440 735 l 438 751 q 436 758 438 758 q 433 749 436 751 l 431 757 q 428 779 431 771 l 408 836 l 400 854 q 374 893 400 881 q 367 904 367 901 l 361 911 q 339 928 349 926 l 329 911 l 329 907 l 328 907 q 313 869 321 894 l 299 828 q 297 824 299 825 q 293 817 297 822 q 288 808 288 811 l 281 796 l 281 790 q 275 768 281 782 l 274 764 q 272 760 274 761 l 268 753 q 267 750 267 751 l 267 747 q 264 746 264 747 q 263 739 263 744 q 261 726 261 736 l 260 710 q 257 700 260 704 l 253 694 l 249 682 q 243 672 246 674 l 225 622 l 225 606 q 224 600 225 601 l 221 592 l 218 569 q 217 557 217 565 l 217 489 l 221 357 q 222 338 221 342 q 225 326 222 333 l 232 296 q 242 268 232 300 q 267 219 253 239 q 307 188 285 188 q 322 194 315 188 l 329 197 l 325 199 q 321 201 321 199 l 326 218 l 315 215 l 326 225 l 326 235 q 332 242 328 235 q 338 249 335 247 q 340 258 338 256 q 343 253 340 253 l 346 253 q 344 249 346 250 q 343 247 344 247 q 344 244 343 246 q 353 249 347 244 l 357 253 l 356 256 l 358 258 l 358 261 q 360 265 358 265 q 358 267 358 265 l 356 269 l 357 271 q 356 274 357 272 q 353 276 354 276 l 375 300 l 374 301 q 364 294 368 301 q 361 296 364 296 l 353 285 q 350 283 351 285 q 354 289 350 286 l 357 296 l 360 296 q 361 299 361 296 l 361 300 q 360 303 361 303 q 358 306 358 304 q 367 324 361 324 l 368 324 l 365 308 q 367 306 365 306 q 363 301 363 304 q 368 304 365 301 l 371 306 l 372 324 q 379 344 379 351 q 372 339 375 344 l 368 333 l 368 340 q 369 350 368 349 l 371 350 l 378 381 q 382 389 379 388 q 381 381 382 382 q 386 389 383 382 l 389 408 q 394 421 390 419 l 396 411 q 394 410 394 411 l 396 404 l 393 401 l 392 390 q 389 385 389 386 q 393 379 389 382 l 397 392 q 399 396 399 393 l 399 401 q 400 407 399 406 l 404 413 q 406 397 404 399 l 410 410 q 426 415 422 410 l 428 417 l 431 415 l 431 407 q 433 404 431 404 l 435 404 q 442 422 436 419 l 442 419 l 444 421 q 446 422 444 422 q 447 421 447 422 l 444 404 l 446 404 l 444 403 q 446 396 444 397 l 447 396 l 447 392 q 450 388 447 388 q 456 421 456 403 q 454 432 456 431 l 463 432 q 464 426 463 426 l 468 429 q 476 472 476 444 q 475 483 476 482 q 472 482 474 482 l 469 482 q 472 501 468 479 l 475 517 q 476 529 476 521 l 476 546 l 475 544 q 471 547 474 544 l 481 557 l 475 554 q 474 558 475 557 l 471 564 l 469 553 l 468 553 q 464 550 465 553 l 463 546 l 461 549 q 460 551 460 550 q 464 554 464 551 q 460 557 463 554 l 457 558 q 464 563 461 563 q 467 569 464 567 l 468 563 q 475 565 468 565 l 476 593 l 483 636 l 490 638 l 488 665 q 489 681 488 674 l 482 679 l 481 681 q 479 682 481 682 l 478 681 q 475 693 475 686 q 476 699 475 697 m 26 290 m 28 278 q 26 282 26 278 l 28 278 m 443 546 q 444 544 444 546 l 443 546 m 443 550 q 446 560 443 556 q 447 556 447 558 l 447 546 l 443 546 l 443 550 z "},"1":{"ha":524,"x_min":18,"x_max":506,"o":"m 260 644 q 253 640 257 644 l 246 635 q 243 633 244 633 q 236 632 238 633 q 235 631 236 631 q 219 626 228 631 q 208 621 211 621 l 197 615 q 192 613 194 615 l 168 604 l 157 597 l 114 596 q 103 596 106 593 l 61 615 q 54 619 58 615 l 50 621 q 46 624 49 621 l 29 643 l 26 650 q 25 654 25 651 l 25 657 q 22 664 22 660 l 21 682 l 18 682 q 19 683 18 683 l 21 686 q 22 688 22 686 l 22 689 q 22 692 21 690 l 28 697 q 29 699 31 697 q 26 701 29 701 q 26 704 29 704 l 25 714 l 29 715 q 31 721 29 719 l 36 721 q 38 724 38 722 l 38 726 l 40 726 q 47 732 44 731 l 51 735 q 58 738 56 735 l 114 772 q 128 781 119 772 q 129 782 128 782 l 182 818 l 193 824 l 196 828 l 200 828 q 201 829 201 828 q 201 831 200 831 l 232 849 q 233 850 233 849 l 249 860 q 261 869 261 868 l 271 874 q 275 876 272 874 l 288 885 l 293 893 l 300 897 q 303 903 303 900 q 308 906 311 903 l 318 913 q 325 917 322 917 l 326 918 q 329 919 328 919 l 336 919 l 340 924 l 347 924 l 349 925 q 351 929 347 925 l 360 932 l 368 932 l 374 938 q 378 939 378 938 q 386 940 379 940 l 400 939 q 415 942 410 939 l 421 940 l 426 926 q 431 926 431 922 l 428 928 q 431 929 431 928 l 432 931 q 433 933 433 932 q 435 931 438 933 q 436 929 436 931 q 439 925 439 929 l 443 931 l 442 938 q 443 936 442 936 l 446 936 q 449 931 447 936 q 451 925 451 926 l 457 926 l 463 922 q 464 921 464 922 q 469 922 463 922 l 472 915 l 479 913 q 482 911 481 913 q 483 910 483 911 l 490 900 q 493 886 493 900 q 489 883 492 886 l 489 876 q 488 874 489 874 q 490 863 490 872 l 501 813 q 503 808 501 810 l 504 804 q 506 767 506 801 l 506 763 q 504 740 506 744 l 500 719 q 499 713 500 714 l 493 689 q 492 681 490 686 l 482 585 q 481 572 481 582 l 479 532 l 476 526 q 475 518 475 525 l 474 497 q 468 474 474 490 l 464 456 q 463 446 463 454 l 458 394 q 457 361 456 368 l 457 342 q 454 331 457 333 l 451 304 q 453 303 453 304 l 451 303 l 447 286 l 446 251 q 447 247 446 249 q 450 233 450 244 l 454 214 l 457 182 l 456 175 q 453 163 456 165 q 453 157 454 161 l 450 139 q 449 133 450 135 l 444 125 l 444 121 q 443 113 444 114 q 442 113 442 114 l 438 96 l 436 74 l 440 60 l 440 42 l 429 26 l 419 22 l 417 14 q 415 4 413 7 q 417 8 417 6 q 418 11 418 10 l 418 14 q 419 17 418 17 l 419 -1 q 417 -11 417 -4 l 406 -60 q 403 -65 406 -62 q 401 -62 401 -65 l 401 -58 l 396 -56 l 396 -53 q 393 -51 396 -51 l 390 -51 q 389 -44 383 -44 q 390 -39 389 -37 l 379 -33 l 381 -32 q 382 -29 382 -31 l 376 -29 q 375 -26 378 -28 q 372 -26 374 -25 l 371 -24 q 368 -22 371 -22 q 369 -31 369 -21 l 363 -33 l 360 -22 q 358 -29 358 -22 q 354 -31 354 -29 q 354 -22 353 -28 l 351 -19 q 350 -22 350 -21 q 349 -26 349 -24 l 349 -24 l 342 -21 q 339 -22 340 -21 l 336 -24 q 335 -25 335 -24 q 331 -24 333 -24 q 331 -26 329 -25 l 332 -28 l 331 -29 q 328 -33 329 -33 q 326 -40 328 -39 l 322 -40 q 324 -36 321 -37 l 326 -35 q 324 -29 324 -37 l 324 -24 q 326 -17 324 -17 q 325 -12 325 -15 l 326 -7 q 324 -8 326 -6 l 322 -14 q 321 -17 322 -15 q 319 -22 319 -17 q 314 -33 325 -22 q 315 -35 315 -33 l 315 -36 q 313 -51 311 -43 q 311 -54 313 -53 l 310 -54 l 311 -60 q 308 -67 308 -60 q 304 -69 306 -69 l 304 -72 q 301 -72 303 -74 l 300 -69 q 293 -71 297 -67 l 292 -72 q 290 -76 292 -76 l 283 -74 q 278 -72 285 -72 q 276 -71 278 -71 q 272 -72 275 -69 q 264 -75 265 -69 q 258 -67 261 -74 l 256 -65 q 256 -64 254 -65 l 249 -64 q 247 -67 247 -64 l 246 -69 l 244 -65 q 239 -64 240 -65 q 238 -53 238 -60 l 232 -53 q 229 -46 232 -49 q 224 -47 222 -46 q 221 -43 224 -43 q 219 -46 219 -43 l 219 -51 l 211 -54 l 204 -71 q 201 -75 204 -75 q 200 -58 201 -54 q 203 -47 204 -49 l 204 -35 q 207 -24 207 -32 q 208 -11 208 -22 l 215 51 l 215 69 q 217 71 217 69 q 215 72 215 71 q 217 74 217 72 l 217 128 l 215 135 l 217 183 l 218 186 q 217 190 218 189 l 218 192 q 221 200 218 197 l 221 224 q 222 236 221 240 l 221 239 q 219 249 221 247 q 219 271 218 258 l 222 279 l 225 310 q 226 324 225 322 q 228 325 226 325 l 232 354 l 239 451 q 240 476 239 472 l 243 492 q 244 508 243 506 l 251 543 q 253 554 251 553 l 256 565 l 256 578 q 258 589 258 578 l 260 597 q 260 600 263 597 q 260 603 258 601 l 261 611 q 263 626 263 613 q 260 644 264 642 m 224 179 l 222 163 q 222 157 221 163 l 224 154 l 224 135 q 225 138 225 136 l 225 140 q 226 139 226 140 l 228 136 q 226 149 231 143 q 229 154 229 149 l 231 156 l 228 168 l 226 168 q 229 172 229 168 l 226 172 l 229 178 q 229 179 231 178 l 228 179 q 226 181 226 179 l 226 194 q 225 199 224 197 q 225 201 228 201 l 224 192 q 222 181 221 183 l 224 179 m 367 64 q 369 64 368 63 l 369 65 q 368 67 369 67 l 367 64 m 360 26 l 357 22 l 358 19 l 357 18 l 356 -1 l 360 -3 q 361 1 360 1 l 364 -1 l 368 -1 q 367 -6 368 -4 l 369 -1 l 369 -7 q 374 -7 372 -8 q 375 -6 374 -6 l 375 11 l 369 -1 q 367 0 367 -1 l 369 14 q 368 35 378 14 l 367 40 l 365 36 q 363 32 364 32 q 361 33 363 33 q 364 39 364 35 q 360 43 363 43 l 360 26 m 353 31 q 356 36 361 31 q 353 31 353 36 m 351 24 l 350 10 l 353 7 q 354 13 354 8 q 357 18 357 15 q 357 25 354 21 l 351 25 l 353 24 q 354 22 356 24 l 351 24 m 392 4 q 392 7 394 7 q 392 4 389 4 m 394 1 q 393 4 394 4 l 394 1 m 379 -1 l 381 -3 q 382 -6 381 -6 l 385 0 l 379 -1 m 356 -8 q 354 -18 354 -4 q 357 -12 357 -18 l 365 -8 q 364 -4 365 -4 q 357 -6 363 -6 q 360 -4 360 -6 q 351 -3 353 -4 q 350 -6 351 -6 l 349 -4 q 347 -1 347 -3 q 346 -11 346 -3 l 344 -11 q 343 -14 343 -12 q 347 -17 346 -17 q 349 -12 347 -12 l 350 -14 q 351 -14 350 -15 l 351 -7 q 350 -7 350 -8 q 356 -8 354 -7 m 388 -8 q 392 -10 392 -8 q 390 -18 390 -10 q 392 -15 392 -18 l 393 -7 q 389 -3 397 -3 q 388 -8 388 -4 m 333 -8 q 332 -10 332 -8 l 331 -18 l 338 -17 q 335 -6 338 -8 l 333 -8 m 365 -12 q 367 -8 367 -11 l 364 -8 q 365 -12 363 -12 m 381 -14 l 381 -11 l 379 -11 l 379 -14 l 381 -14 m 310 -36 q 314 -36 313 -37 l 310 -36 z "},"2":{"ha":542,"x_min":14,"x_max":518,"o":"m 333 964 q 321 961 331 961 q 311 957 314 960 l 271 957 l 274 960 l 279 960 q 282 961 281 960 q 321 965 310 965 l 333 964 m 335 957 q 332 956 332 957 l 339 956 q 340 957 340 956 l 335 957 m 350 433 l 351 435 q 353 438 353 436 l 351 439 q 349 435 349 439 l 350 433 m 344 414 q 343 415 343 414 l 344 426 q 347 422 347 425 q 344 414 347 417 m 32 -71 q 31 -72 31 -71 l 28 -68 l 32 -71 m 75 -86 l 96 -78 q 94 -71 94 -76 q 88 -67 93 -67 q 79 -71 83 -67 q 89 -76 81 -76 q 79 -81 85 -81 l 69 -78 l 64 -74 q 57 -69 60 -69 q 58 -67 58 -68 l 58 -64 l 61 -61 q 58 -57 61 -60 q 57 -54 58 -54 l 53 -54 l 53 -51 q 50 -50 51 -50 l 44 -54 q 43 -56 43 -54 q 42 -61 42 -58 l 39 -62 l 38 -69 l 35 -72 q 33 -65 33 -71 l 33 -62 l 32 -62 q 31 -61 31 -62 l 29 -60 q 25 -56 25 -60 q 24 -54 25 -54 l 19 -56 q 15 -54 17 -56 l 14 -51 l 18 -36 q 24 -24 24 -31 l 24 -19 l 25 -19 q 33 -6 26 -14 l 35 0 q 42 10 42 7 l 42 11 q 39 17 42 14 l 36 21 q 40 29 36 24 l 43 33 q 49 32 46 33 l 51 29 l 57 38 l 60 47 q 58 50 60 50 q 63 53 58 51 l 65 56 l 65 60 q 63 64 65 64 l 68 69 q 71 74 71 72 q 85 86 85 81 l 85 88 q 82 89 85 89 l 79 86 q 76 88 76 86 q 78 90 76 89 l 79 92 l 89 92 q 93 94 90 92 l 104 104 l 106 111 q 115 125 111 117 l 115 129 l 118 129 l 128 151 l 125 151 q 113 135 129 151 q 111 140 111 135 l 106 135 l 89 108 q 85 118 85 113 q 89 129 85 124 l 96 143 q 97 149 96 149 l 101 151 l 106 161 q 108 165 110 165 l 113 176 l 117 182 q 118 185 118 183 q 119 190 118 189 l 125 201 q 132 213 129 206 l 132 215 q 133 218 132 217 q 136 222 133 219 l 139 225 q 140 226 140 225 l 140 229 l 156 257 q 161 271 156 265 l 171 293 q 175 300 172 297 l 176 308 l 194 349 q 197 350 194 350 l 204 369 l 208 372 l 208 376 q 213 386 204 372 q 217 389 213 385 l 217 393 q 221 403 219 396 l 225 406 l 225 411 q 226 413 225 413 l 228 414 q 229 417 229 415 q 231 421 231 418 q 236 431 228 418 q 238 433 238 432 l 240 443 l 244 447 l 249 460 q 264 494 264 490 q 267 501 263 493 l 281 535 l 283 538 q 285 546 283 544 q 292 561 290 551 l 293 568 q 294 571 293 569 l 297 574 l 319 661 q 324 678 324 674 q 326 703 326 686 l 326 710 q 328 711 328 710 q 329 738 328 732 q 333 753 333 749 q 332 761 333 758 q 326 782 329 776 q 281 806 313 803 l 274 806 q 228 794 250 806 l 207 785 q 192 778 193 778 q 186 772 190 778 q 179 765 182 765 l 178 765 q 175 764 175 765 q 158 753 158 754 l 158 750 l 144 738 l 144 735 l 140 729 q 139 726 139 728 q 138 714 138 725 q 143 679 138 696 l 157 665 q 175 667 171 665 l 181 672 l 183 672 q 186 674 186 672 l 186 675 q 188 676 186 676 q 190 678 189 678 l 193 678 l 201 686 q 204 688 204 686 q 206 692 204 692 l 213 693 l 213 694 q 225 697 221 697 q 238 692 233 697 q 240 688 240 689 l 240 685 q 244 671 235 690 l 244 668 q 246 654 246 664 q 244 639 246 644 l 243 638 q 242 633 242 636 q 240 625 242 626 l 235 611 q 233 607 235 608 q 224 588 232 601 l 218 576 q 211 571 218 571 l 204 564 q 193 557 193 558 l 169 556 l 168 554 q 163 556 167 556 q 156 560 160 556 l 150 563 q 143 560 147 563 l 140 557 q 126 560 129 557 l 122 561 l 122 563 q 96 569 86 569 l 83 574 l 79 581 l 75 581 l 54 607 l 54 611 l 53 611 q 44 625 50 619 l 39 631 l 38 635 q 35 640 35 638 l 38 650 q 31 661 35 658 l 31 671 q 29 675 31 674 q 28 678 28 676 l 28 681 q 31 688 28 683 l 33 690 q 32 693 32 692 l 35 699 q 36 704 36 700 l 36 710 l 44 722 l 46 736 q 51 743 49 738 l 54 749 q 51 754 54 754 q 57 774 50 751 q 63 786 63 779 q 64 790 63 789 q 67 792 64 792 l 68 793 q 69 796 69 794 l 69 799 q 74 804 69 800 q 78 811 78 808 l 78 814 q 79 817 78 817 l 82 818 l 83 824 l 86 825 q 88 828 88 825 l 88 831 l 90 833 q 108 858 103 853 q 118 869 110 861 q 122 872 118 868 l 126 881 q 142 894 135 889 q 143 899 142 897 l 147 900 q 150 901 150 900 l 153 904 q 154 910 153 910 l 158 910 l 160 913 q 163 914 161 914 l 165 914 l 167 918 l 169 919 q 172 921 171 919 q 185 936 179 936 l 183 929 q 197 936 188 931 q 211 942 208 942 q 210 943 211 943 l 203 942 q 210 947 203 944 q 214 946 214 947 l 214 944 q 254 954 242 954 q 242 949 254 953 q 240 947 242 947 l 239 947 q 231 944 236 944 q 235 943 232 943 l 257 949 l 269 947 q 275 949 274 947 q 315 954 304 949 q 319 956 319 954 q 338 953 333 953 l 343 954 q 344 956 344 954 l 343 972 l 346 976 q 350 981 349 981 l 351 981 q 350 989 350 985 l 350 990 l 375 985 q 378 983 378 985 l 378 982 q 381 981 379 981 q 389 983 385 981 l 396 986 q 413 982 404 986 l 425 975 q 429 974 426 974 l 432 974 l 432 972 q 433 971 432 971 l 438 971 l 439 967 l 442 967 l 453 957 q 456 956 454 956 l 457 951 l 460 951 l 472 939 q 474 938 474 939 l 476 936 l 476 933 q 478 931 476 931 l 486 919 l 488 913 q 500 892 496 907 l 500 888 l 501 888 q 503 883 503 886 l 503 879 l 506 875 q 508 871 508 872 q 518 817 514 861 l 518 788 l 513 761 l 513 754 q 508 736 508 754 q 503 722 503 731 l 496 703 l 493 700 l 490 686 q 488 685 490 685 l 483 674 l 472 656 q 468 649 469 653 l 468 644 l 467 644 l 465 640 q 464 636 465 638 l 463 635 q 460 633 460 635 l 460 631 l 458 631 q 457 625 458 626 l 454 624 l 454 621 l 451 621 l 451 617 l 449 615 l 447 611 l 442 606 q 440 604 440 606 l 438 596 q 436 592 436 594 l 431 586 q 429 582 429 586 l 426 579 l 426 575 l 411 556 q 397 538 400 544 q 396 540 396 539 l 399 547 q 406 561 410 565 q 397 551 403 561 l 390 539 l 364 511 q 363 507 363 510 q 361 504 363 504 l 349 492 l 349 489 l 342 481 q 343 478 342 479 q 344 476 344 478 l 343 474 q 340 472 342 472 l 342 463 q 340 460 340 461 l 342 457 q 343 451 343 454 l 343 450 q 339 442 343 447 q 333 433 333 435 l 335 422 q 326 406 335 431 l 318 383 l 318 379 q 308 367 322 381 q 311 360 308 360 q 310 353 310 357 l 311 346 l 310 344 q 308 343 308 344 q 307 336 308 338 l 304 333 l 304 329 l 301 329 q 300 322 300 328 l 300 318 q 289 297 289 300 l 288 296 q 286 294 288 294 q 288 292 286 293 l 286 296 q 283 299 285 299 q 275 288 276 296 l 282 276 q 283 275 282 275 l 286 274 q 288 272 286 272 q 282 263 286 267 l 282 250 q 290 263 286 250 q 293 269 293 265 l 293 272 l 296 272 l 306 300 q 307 301 306 301 l 308 301 q 303 279 308 296 l 297 257 l 288 238 l 288 233 q 286 228 288 229 l 271 200 q 269 197 269 199 l 269 194 q 265 186 268 193 q 261 171 261 174 q 265 169 263 169 l 272 171 q 288 176 293 178 q 349 193 326 189 l 361 194 l 361 196 q 386 200 374 200 q 388 201 386 201 l 422 204 q 438 200 425 204 q 454 196 450 196 q 453 192 454 193 q 450 189 450 190 l 450 188 q 454 186 450 186 q 458 183 458 185 q 443 167 443 183 q 446 165 443 165 l 449 165 l 449 161 l 453 161 q 463 160 458 161 l 463 158 q 467 154 463 157 l 469 151 l 468 150 q 467 147 467 149 l 467 146 q 465 143 467 144 l 463 142 l 482 135 l 492 133 q 510 117 499 122 l 507 107 q 510 90 510 100 q 507 79 510 82 l 506 78 q 500 69 503 71 l 499 63 l 496 60 q 492 42 496 54 l 488 36 l 486 29 l 483 29 l 482 25 q 481 22 482 22 l 467 10 l 460 0 l 436 -7 l 414 -8 l 410 -12 l 333 -17 q 325 -18 326 -17 l 313 -21 q 306 -24 307 -22 l 303 -26 l 293 -28 q 290 -29 292 -28 q 288 -28 289 -29 q 286 -29 286 -28 l 286 -32 l 272 -35 l 269 -39 q 264 -40 268 -40 l 254 -40 q 251 -42 253 -40 l 250 -44 l 242 -46 q 232 -50 239 -49 l 222 -54 l 215 -54 q 192 -67 200 -64 q 188 -68 190 -68 l 154 -78 l 142 -79 q 138 -81 138 -79 l 138 -82 q 136 -83 138 -83 l 132 -82 q 131 -83 132 -83 q 111 -87 128 -86 q 110 -89 111 -89 l 104 -89 l 104 -86 q 101 -85 104 -85 q 90 -86 99 -86 l 82 -86 q 76 -93 83 -93 l 82 -90 l 75 -86 m 49 24 q 44 28 49 26 l 42 26 l 44 25 q 47 22 46 22 l 49 24 m 343 932 q 328 940 342 940 l 306 939 l 293 936 q 321 932 314 932 q 335 931 328 931 l 340 931 q 343 932 343 931 m 325 856 q 328 854 325 854 q 331 856 331 854 l 331 857 q 328 858 329 858 l 325 856 m 242 299 q 238 300 242 300 l 238 299 q 236 296 238 297 l 221 278 q 217 274 219 274 l 215 274 l 219 299 q 217 296 217 299 q 211 290 214 296 q 207 283 208 283 q 201 288 207 288 q 192 276 193 282 l 182 265 q 178 267 181 267 q 175 265 176 267 l 165 244 l 161 229 q 160 228 161 228 l 158 228 q 156 219 158 225 l 146 201 l 139 175 l 144 168 q 150 171 147 171 q 164 178 156 175 q 169 188 164 182 l 174 192 q 179 200 176 194 l 183 206 q 193 211 179 204 q 201 222 193 213 l 201 226 q 204 228 201 228 l 218 242 l 218 246 l 222 247 q 224 250 224 249 l 228 265 q 238 285 233 281 l 238 292 l 240 293 q 242 297 242 294 l 242 299 m 250 271 q 247 267 247 271 q 249 265 247 265 q 250 268 249 267 l 251 271 l 250 271 m 129 182 q 128 178 129 179 l 129 178 q 132 182 132 178 l 132 183 q 131 185 132 185 l 129 182 m 136 168 q 131 161 133 168 l 129 160 q 126 157 126 158 l 126 156 q 132 161 132 156 l 135 164 q 136 167 136 165 l 136 168 m 44 -25 q 53 -17 53 -25 q 51 -8 53 -11 q 47 -4 51 -6 q 42 0 43 0 q 35 -14 42 7 l 36 -14 l 31 -28 q 28 -31 28 -29 q 31 -35 28 -35 l 33 -40 q 32 -43 32 -42 q 36 -44 32 -44 q 42 -39 40 -42 l 42 -36 q 32 -31 32 -36 l 38 -32 q 42 -35 39 -35 l 35 -24 q 42 -15 44 -14 l 44 -25 m 47 -31 q 42 -25 47 -28 q 40 -24 40 -25 q 39 -25 39 -24 l 42 -28 q 47 -32 44 -32 l 47 -31 m 69 36 q 64 39 68 39 q 58 36 60 39 q 57 33 58 35 l 54 31 q 57 29 54 29 l 58 29 l 57 19 q 51 17 51 19 l 43 3 q 49 0 43 0 l 53 8 q 58 15 56 14 l 67 18 l 67 26 q 69 36 69 26 m 68 11 q 71 14 69 14 q 75 13 74 14 q 71 21 75 21 l 68 11 m 71 10 q 63 -1 64 3 l 61 -4 l 65 -6 q 67 -4 65 -4 q 69 -6 68 -6 q 72 -7 71 -7 l 74 -7 q 71 8 74 6 l 71 10 m 82 -51 q 68 -54 79 -54 q 75 -49 68 -49 q 82 -51 79 -49 m 86 -67 q 69 -60 86 -64 l 68 -61 q 65 -64 65 -61 l 74 -68 l 86 -67 m 376 510 q 379 511 378 511 l 381 511 q 382 510 382 511 q 374 482 382 499 l 361 442 q 358 440 358 442 q 357 438 358 438 l 357 424 l 354 421 l 354 418 l 351 418 l 351 414 l 344 396 l 342 396 l 342 386 q 338 374 339 375 l 335 368 l 332 367 l 332 364 q 331 363 332 363 l 332 358 l 328 344 q 324 339 328 343 l 319 333 q 318 336 318 333 q 319 340 318 339 l 332 371 l 332 375 q 333 379 332 378 l 338 383 l 349 415 q 351 429 349 426 q 354 433 354 432 l 356 436 q 357 440 357 438 l 360 456 q 363 457 363 456 l 369 492 l 372 492 l 376 510 z "},"3":{"ha":708,"x_min":15,"x_max":686,"o":"m 144 190 l 143 189 l 140 190 l 142 186 q 140 185 140 186 q 142 181 142 185 l 146 179 l 147 181 l 147 188 l 144 190 m 231 229 q 233 228 232 229 l 236 226 q 235 224 235 225 l 236 214 q 235 213 236 213 l 235 217 q 231 215 233 215 l 226 219 q 228 221 226 221 q 225 225 228 225 l 228 225 q 231 226 231 225 q 229 228 231 228 l 231 229 m 246 199 l 246 196 l 244 197 q 243 199 244 199 q 246 193 243 196 q 247 194 246 194 q 251 189 249 189 l 246 199 m 28 207 q 33 193 33 201 l 33 189 q 36 186 35 189 q 38 183 38 185 q 40 182 38 182 l 39 188 q 36 200 36 190 q 31 207 32 204 l 28 207 m 133 204 q 131 203 132 203 q 128 208 131 206 l 126 211 q 125 213 126 213 q 126 211 125 211 l 124 210 l 132 199 l 132 194 q 140 193 133 193 l 140 196 q 138 197 139 196 q 140 203 140 197 l 133 204 m 217 261 l 217 264 l 214 261 l 217 261 m 135 267 q 132 271 135 268 l 139 268 l 140 258 q 135 264 136 258 l 135 267 m 624 568 q 626 561 624 564 l 632 561 l 628 571 q 625 572 625 571 l 617 582 l 617 585 l 607 594 l 604 594 l 604 597 q 592 604 597 604 q 589 606 590 606 q 585 607 588 607 q 583 604 585 604 l 576 607 l 585 600 q 588 604 585 604 l 589 603 q 593 592 589 592 q 596 593 594 592 l 596 594 q 597 593 596 593 l 600 593 q 604 589 601 593 l 624 568 m 88 106 q 99 93 88 96 l 100 92 l 99 92 q 101 86 100 86 q 103 97 103 89 q 106 96 104 96 q 108 97 107 96 l 110 92 q 113 90 111 92 q 114 89 114 90 l 114 86 l 117 83 q 119 79 117 79 l 122 79 l 121 83 l 124 81 l 119 90 l 118 90 q 115 101 118 99 l 114 107 l 115 111 l 121 117 l 121 115 q 122 111 121 111 l 122 114 q 128 115 128 114 q 131 113 129 115 l 132 110 q 133 107 132 108 l 135 107 l 136 103 q 140 99 140 103 l 140 97 l 143 97 q 144 93 143 94 l 146 93 q 147 94 147 93 l 146 99 l 149 99 q 153 97 151 99 q 154 96 154 97 q 160 93 157 96 l 157 104 l 160 103 l 158 113 q 157 117 158 115 q 160 118 157 118 l 160 124 l 164 122 q 167 126 167 125 l 165 136 l 168 136 l 171 131 l 171 133 q 174 132 172 133 l 176 133 q 175 139 176 138 q 172 138 172 139 l 165 144 l 163 157 q 160 156 161 157 l 158 157 q 156 158 156 157 l 160 160 l 160 163 q 167 151 167 163 l 168 154 l 176 144 l 179 129 q 181 128 179 128 q 182 125 182 126 l 181 125 l 182 122 q 183 121 183 122 l 186 119 l 186 114 l 189 114 q 193 113 192 114 l 193 117 l 199 115 l 197 122 l 194 124 l 193 129 q 192 133 193 133 l 193 138 q 189 142 193 140 l 188 140 l 189 139 q 190 136 190 138 l 189 133 q 188 129 189 131 q 186 135 186 131 q 185 138 186 138 q 186 139 185 139 l 188 139 l 186 143 l 183 144 q 182 147 182 144 q 181 149 182 149 l 182 143 q 178 153 178 147 q 172 157 178 151 l 169 165 q 172 169 172 165 l 175 169 q 178 164 178 167 l 179 163 q 178 158 178 161 l 178 154 l 179 156 q 181 154 181 156 l 181 151 l 188 149 q 189 146 189 147 l 196 146 q 193 153 200 146 l 192 153 l 192 156 q 190 158 192 158 q 192 160 190 160 l 193 160 l 192 165 q 190 160 190 165 l 186 167 l 186 171 q 185 175 186 174 q 182 179 182 178 l 183 182 q 182 183 182 182 l 183 185 l 181 193 q 183 190 183 193 l 188 189 l 186 185 l 188 181 q 185 176 188 179 q 189 174 185 174 l 190 165 q 193 168 193 165 l 196 168 l 197 179 l 196 182 q 200 185 197 182 l 203 186 l 204 182 q 207 178 204 181 l 211 161 l 204 164 l 206 160 l 204 161 q 203 163 204 163 l 204 157 l 201 158 q 199 164 201 161 l 199 165 q 197 160 197 165 l 199 154 l 200 154 l 199 153 q 201 151 200 151 l 203 151 l 204 144 l 207 144 l 206 143 l 207 143 l 208 135 l 210 135 q 213 128 210 131 l 219 115 q 225 104 219 104 l 224 111 l 226 111 l 232 101 l 232 99 l 236 94 q 238 92 238 93 q 240 93 239 93 l 231 114 q 232 115 231 115 l 225 122 l 225 125 q 222 126 225 126 l 218 139 q 217 144 218 144 q 215 147 217 146 l 214 147 l 214 153 q 217 147 217 153 l 221 144 q 219 143 221 143 q 222 135 222 140 l 228 129 q 229 128 229 129 l 233 121 l 236 121 l 240 117 q 236 128 240 119 q 232 138 232 135 q 229 139 232 139 l 229 144 q 226 147 229 146 l 224 150 l 221 149 l 221 151 l 224 151 q 225 153 225 151 l 226 156 q 228 154 228 156 q 229 156 229 154 l 232 157 l 231 158 l 232 161 l 229 167 l 229 172 l 233 172 q 236 164 236 169 l 238 163 q 239 161 238 161 l 242 161 l 243 156 l 250 144 q 251 139 251 142 q 260 126 251 135 q 263 129 261 129 l 264 122 l 269 121 q 272 119 271 121 q 274 118 274 119 l 274 115 l 276 115 q 282 111 276 113 l 281 110 l 283 107 q 282 114 282 107 q 281 115 282 115 l 279 115 q 274 124 279 122 l 271 135 l 268 138 q 269 140 268 140 l 267 143 l 267 147 l 269 147 l 268 149 l 269 150 q 268 151 269 151 l 265 151 l 264 157 q 267 154 265 157 l 269 151 l 260 176 l 261 178 q 264 174 264 175 l 271 164 q 275 158 271 161 l 275 156 q 279 151 275 151 l 281 146 l 283 146 q 286 144 285 146 l 285 143 q 283 142 283 143 l 285 140 q 286 142 286 140 q 288 140 288 142 q 294 133 294 138 l 293 132 l 294 129 q 296 135 296 129 q 299 133 297 133 q 301 135 300 133 l 300 131 q 301 129 300 129 q 304 131 303 131 l 308 124 q 310 126 310 124 l 313 124 l 310 135 l 322 124 l 324 128 q 325 126 324 126 q 331 121 329 126 q 335 118 335 121 l 336 117 l 338 119 q 340 118 339 118 l 350 117 q 364 115 351 115 l 369 115 q 376 119 375 115 l 382 124 l 385 124 q 389 129 386 128 q 392 131 392 129 q 394 132 393 131 q 392 133 394 133 q 422 158 400 158 l 431 167 l 431 171 q 432 172 431 172 q 433 171 432 171 l 435 175 q 439 181 435 176 q 443 194 439 190 l 449 206 l 450 213 q 451 211 451 213 l 451 213 q 458 228 451 221 l 475 278 q 478 288 478 285 l 481 300 q 482 310 481 308 q 483 321 482 319 l 485 325 l 485 363 q 482 378 482 368 l 476 406 q 471 421 471 417 l 468 426 l 468 431 l 458 449 l 457 449 q 435 464 442 464 l 415 465 q 407 464 408 465 q 401 463 403 464 l 400 461 q 397 460 400 460 l 393 460 l 344 435 l 322 432 l 300 433 q 299 435 300 435 l 294 436 q 292 440 294 438 l 269 461 q 267 467 267 464 l 257 468 l 257 475 q 251 481 253 476 l 249 482 q 246 483 247 483 l 240 504 l 243 515 l 244 515 l 244 522 q 249 529 249 522 l 249 538 l 253 546 q 261 563 253 558 q 260 564 261 564 l 267 572 l 275 592 l 279 594 l 282 606 l 283 606 q 285 607 285 606 q 288 613 285 610 l 294 625 q 301 635 306 636 l 303 640 l 310 651 l 308 657 q 310 654 310 657 q 313 656 313 654 l 317 661 l 317 664 q 319 665 319 664 q 331 685 328 682 q 332 686 332 685 l 360 732 q 372 750 363 740 l 372 753 q 369 754 372 754 q 372 761 369 757 l 375 764 q 379 767 378 767 l 386 788 q 389 789 389 788 l 394 799 l 396 799 l 396 801 q 397 804 396 803 l 403 815 q 408 822 404 818 q 413 829 413 828 l 404 829 q 393 821 400 829 l 385 815 l 382 815 q 375 811 383 819 l 371 808 l 317 797 l 238 769 l 221 765 q 210 763 218 763 q 200 760 203 763 l 189 760 l 182 757 l 165 758 q 160 761 163 758 l 160 763 l 154 764 l 151 769 q 101 772 132 772 l 100 774 q 99 775 99 774 q 93 776 97 776 l 90 781 q 85 782 86 781 q 86 783 85 783 q 85 785 86 785 l 79 789 l 74 788 l 74 792 q 46 804 47 799 l 40 810 l 51 811 q 49 815 51 814 l 46 818 l 40 818 q 38 821 40 821 l 32 826 q 31 828 32 828 l 33 829 q 32 831 33 831 q 26 839 26 836 l 32 839 l 29 846 q 26 854 26 851 l 26 856 l 32 854 q 35 856 33 854 l 38 857 l 35 865 q 38 858 31 865 l 38 865 l 40 869 q 43 875 43 872 l 43 876 l 46 876 q 47 878 47 876 l 49 879 l 49 886 l 57 886 l 57 889 l 58 889 q 63 892 60 889 l 71 892 q 74 899 74 894 l 82 899 l 82 901 l 85 901 q 88 903 86 901 l 89 904 l 90 903 l 104 906 l 107 911 l 140 921 l 140 924 q 146 925 142 925 l 190 935 q 201 936 200 935 q 213 939 204 936 q 218 940 213 940 l 221 940 q 238 943 224 943 l 314 969 q 321 971 315 971 l 325 972 q 336 974 335 972 l 413 990 l 440 999 q 447 1000 446 999 q 449 1001 447 1001 q 456 1003 454 1001 l 493 1013 q 499 1014 496 1014 l 515 1018 l 531 1019 q 543 1021 542 1019 l 578 1024 l 578 1022 l 607 1008 l 607 1006 l 622 1000 q 633 986 633 989 q 643 942 635 985 l 647 936 q 628 899 647 929 q 619 881 619 882 q 617 871 617 878 l 617 869 q 615 864 615 868 l 615 860 q 614 854 615 856 l 618 843 q 621 828 621 833 l 615 806 q 613 797 613 803 l 610 794 l 610 790 l 596 772 l 592 769 q 583 760 588 760 l 571 742 q 564 731 571 744 q 563 729 563 731 q 561 726 563 728 q 556 717 561 722 q 554 715 554 717 l 535 690 q 529 682 532 688 q 522 672 525 675 q 514 661 522 668 l 514 660 q 510 658 511 660 l 510 656 q 503 646 504 650 q 511 643 506 643 l 513 642 q 515 640 514 640 q 521 639 517 639 q 531 635 521 635 q 532 633 531 633 q 536 631 535 631 q 546 628 539 628 l 547 628 l 547 625 q 554 621 551 624 q 571 617 567 621 l 594 606 q 603 600 603 604 l 622 581 q 631 568 622 576 l 632 569 l 633 567 q 635 564 635 565 l 638 558 l 639 558 q 643 549 639 551 l 656 518 q 663 494 656 501 q 667 481 663 488 l 669 474 l 669 468 q 671 461 669 463 q 672 460 671 460 l 675 432 l 676 431 l 676 415 q 678 413 676 414 l 681 411 q 682 410 681 410 l 679 393 l 682 392 q 681 389 681 392 l 679 378 l 681 376 l 681 363 l 679 361 q 681 360 679 360 l 682 358 q 683 350 683 357 l 686 338 l 686 314 l 685 314 l 683 294 q 682 293 682 294 l 681 271 l 676 258 l 675 246 q 674 242 675 243 l 672 243 l 672 238 l 669 231 q 664 219 665 226 l 664 217 q 658 201 658 217 l 657 201 l 651 182 l 647 175 q 646 172 646 175 l 619 128 q 617 122 619 125 q 615 121 617 121 l 599 104 l 594 103 l 594 100 q 583 92 597 101 l 583 89 l 579 89 q 578 88 578 89 l 564 78 q 554 71 564 81 l 547 69 l 524 54 q 517 50 524 53 l 513 50 q 506 44 507 44 q 499 39 500 39 l 493 38 l 493 35 l 490 35 l 483 29 l 476 26 l 474 22 l 471 22 q 468 21 469 22 q 467 19 468 19 l 451 11 q 450 8 450 11 l 435 4 l 418 -4 q 417 -3 417 -4 q 410 -6 414 -6 l 413 -3 l 404 -1 l 401 -3 q 397 -6 397 -3 q 392 -7 393 -6 l 375 -11 l 389 -11 l 389 -10 q 390 -11 390 -10 q 386 -14 390 -14 l 375 -17 l 347 -15 q 338 -12 339 -15 l 338 -8 q 331 -10 331 -8 l 333 -10 q 335 -14 335 -11 l 328 -15 q 331 -17 328 -17 l 317 -28 l 313 -26 l 313 -31 l 301 -37 q 308 -40 304 -40 l 321 -43 q 318 -44 321 -44 l 293 -42 l 290 -44 l 293 -44 q 300 -46 294 -46 l 301 -49 l 300 -47 q 294 -49 297 -49 l 290 -47 q 282 -46 283 -47 q 276 -47 281 -47 l 269 -49 q 264 -53 267 -49 l 243 -57 q 240 -58 240 -57 q 238 -60 238 -58 l 235 -58 q 233 -61 233 -58 q 188 -50 210 -61 l 188 -49 l 183 -49 q 182 -44 182 -49 l 178 -44 l 175 -42 q 172 -39 172 -42 l 169 -39 l 147 -17 q 146 -21 146 -17 q 140 -17 144 -21 q 135 -14 138 -14 l 133 -6 l 122 7 q 119 8 121 8 q 117 13 119 13 l 115 11 l 119 7 q 121 6 119 6 l 115 10 l 113 10 q 106 17 110 14 q 93 38 106 13 l 88 46 q 86 47 88 47 l 83 49 l 83 51 q 74 65 83 56 q 71 69 72 69 q 64 81 67 78 l 57 88 l 50 103 q 47 108 49 108 q 46 110 46 108 l 43 115 q 42 119 42 117 q 40 121 42 121 l 39 121 l 33 133 l 29 149 q 28 154 29 154 q 21 168 28 161 l 18 172 q 17 176 17 174 q 15 185 15 178 q 19 182 17 185 q 21 181 21 182 q 22 178 22 179 l 26 169 q 33 158 33 161 q 39 154 38 154 q 54 142 51 142 l 54 139 l 58 135 q 61 129 61 131 q 64 126 61 126 l 85 113 l 88 106 m 215 138 l 214 136 l 211 138 l 213 135 q 214 132 214 133 l 215 129 l 215 138 m 150 140 l 156 135 q 154 133 156 133 l 156 135 l 151 151 l 150 151 l 150 140 m 179 183 l 179 181 q 183 183 183 181 l 179 183 m 224 183 q 222 186 224 185 l 221 189 q 219 182 219 188 l 224 183 m 190 197 q 194 194 192 197 l 194 199 q 190 197 190 199 m 107 190 q 111 188 108 188 q 113 189 111 189 l 111 194 q 113 196 111 196 l 110 196 l 107 200 q 104 197 104 200 l 103 196 l 106 194 q 104 193 104 194 l 107 190 m 221 203 q 225 194 221 194 q 231 190 225 190 l 228 204 q 225 203 226 203 l 221 203 m 231 204 q 232 207 231 206 q 231 210 231 207 l 226 211 q 231 203 226 207 l 231 204 m 111 210 q 107 215 111 215 l 111 210 m 31 217 q 35 211 35 215 l 38 210 l 39 214 q 35 219 39 218 q 31 217 32 217 m 133 215 q 128 229 132 217 l 131 228 l 135 217 l 133 215 m 232 228 q 231 231 232 231 l 229 229 q 232 228 229 228 m 60 231 q 57 239 60 239 l 54 238 q 53 236 54 236 l 51 233 q 54 228 51 231 l 60 231 m 224 240 q 228 242 228 240 q 225 246 225 244 l 224 240 m 100 249 q 101 246 100 246 l 104 256 l 100 253 l 100 249 m 89 256 q 90 251 89 251 l 96 250 q 94 260 96 260 l 89 256 m 219 267 q 221 261 221 267 l 219 261 q 218 263 218 261 l 219 267 m 110 207 m 110 207 q 108 210 110 210 q 110 207 108 207 m 111 207 q 114 203 111 206 q 111 208 114 206 l 111 207 m 204 154 q 206 156 206 154 q 204 154 204 156 m 204 154 m 204 164 q 203 161 203 164 l 204 164 z "},"4":{"ha":610,"x_min":19,"x_max":592,"o":"m 419 85 l 419 81 q 418 83 418 81 l 419 85 m 431 13 q 435 14 433 13 l 435 15 l 432 15 l 431 13 m 428 15 q 429 7 428 11 l 431 7 q 435 10 433 7 q 438 11 436 11 q 435 22 438 19 l 438 25 l 438 31 l 439 31 q 438 39 438 33 l 438 47 l 443 47 l 444 54 q 436 65 436 57 q 435 76 436 75 l 432 76 l 435 82 l 433 89 q 431 86 431 89 l 431 76 q 429 69 431 71 q 435 68 429 68 q 432 58 435 65 l 429 49 q 426 61 426 49 l 425 64 q 426 74 426 65 l 426 85 q 422 88 425 88 l 419 89 l 419 94 q 424 107 419 101 l 419 131 l 418 131 q 414 126 417 131 q 413 125 414 125 l 414 118 q 410 110 414 113 q 408 113 408 110 l 408 118 q 407 121 408 121 q 404 115 404 121 l 403 111 l 407 111 q 406 110 406 111 q 403 101 403 107 l 404 92 l 406 92 q 407 90 407 92 l 413 85 l 413 69 q 408 60 408 65 q 407 65 407 60 q 404 60 404 63 q 401 65 401 60 q 393 57 396 65 l 390 57 q 388 61 388 60 q 382 51 385 60 l 379 42 q 378 47 378 42 q 369 42 371 47 l 368 57 q 376 53 375 53 q 379 57 378 53 q 378 63 379 63 q 381 74 378 71 q 372 81 378 79 q 368 86 372 86 l 368 100 l 371 108 q 369 111 371 111 q 375 118 374 113 q 368 133 375 129 l 365 207 l 368 226 l 367 233 l 368 272 q 369 274 369 272 q 368 275 368 274 q 369 276 369 275 l 369 288 l 364 293 l 365 342 q 368 360 365 346 q 369 372 369 363 l 368 394 l 369 414 q 371 419 369 418 q 372 422 372 419 q 369 440 372 418 l 368 469 q 367 471 368 471 l 351 471 l 331 458 l 326 454 l 318 453 q 310 451 311 453 q 308 450 310 450 l 275 443 q 256 442 271 442 l 236 442 q 219 436 242 442 l 201 433 l 186 433 q 175 419 181 432 q 167 424 174 419 q 157 428 160 428 q 151 424 153 424 q 136 418 136 424 q 133 419 136 419 l 119 417 l 93 415 q 82 417 83 415 l 64 418 q 54 419 56 418 q 53 422 54 422 q 32 438 43 422 l 25 446 q 22 463 25 454 l 19 493 q 22 494 22 493 q 24 506 22 503 l 29 522 q 33 533 33 531 l 31 542 l 31 567 l 35 601 q 40 604 38 601 l 40 606 q 42 607 40 607 q 44 608 44 607 l 44 610 q 43 613 44 611 l 40 614 l 40 618 q 36 626 40 626 l 38 656 l 36 664 q 39 682 36 674 l 42 742 q 39 768 42 757 l 33 835 l 40 885 q 42 889 40 888 l 43 889 l 43 903 l 50 914 q 56 911 51 914 q 60 908 58 908 q 63 917 63 911 q 72 915 71 917 q 85 922 64 915 l 96 922 l 103 918 l 108 919 l 114 918 q 115 919 114 919 q 122 918 121 919 l 125 921 q 128 924 126 924 l 136 917 l 139 919 q 138 922 138 921 q 139 924 139 922 l 146 922 l 149 925 l 154 925 q 160 926 158 925 l 161 926 q 165 924 163 926 q 167 919 165 921 q 174 926 169 921 q 181 933 179 933 q 189 928 183 933 q 193 925 190 928 q 196 924 196 925 l 199 917 q 200 913 200 915 l 201 910 q 217 881 213 899 q 221 857 221 864 l 221 850 l 218 850 q 219 849 218 849 l 221 847 l 218 838 q 217 828 218 829 q 215 821 215 826 l 215 818 l 214 818 l 214 797 q 213 794 214 794 l 211 794 l 211 781 l 206 728 l 201 704 l 199 704 q 194 703 196 704 l 192 689 q 189 672 189 676 l 189 669 q 194 661 193 661 l 196 660 q 200 656 199 656 l 201 656 l 203 642 l 199 603 l 203 599 q 204 597 203 597 l 206 576 l 203 550 q 215 549 208 549 l 285 557 l 299 557 l 339 564 q 346 565 344 564 q 369 568 351 567 l 392 571 l 397 617 q 403 639 397 629 q 401 646 401 640 l 400 664 q 399 665 399 664 l 400 668 l 399 688 q 400 696 399 694 l 401 699 l 404 697 l 404 704 q 401 708 403 708 l 399 711 l 400 711 q 401 715 401 711 l 400 731 q 397 732 397 731 l 399 736 q 400 742 400 739 l 400 760 q 399 763 400 761 l 397 765 l 400 774 l 399 776 l 400 786 q 399 790 400 789 l 400 808 q 399 811 400 810 l 397 811 l 399 814 l 399 838 l 400 839 l 397 861 l 399 871 l 392 899 q 396 906 394 901 l 403 906 l 413 911 l 419 911 q 428 914 422 911 l 438 917 l 439 915 l 447 917 q 453 915 451 917 q 465 919 469 919 l 474 917 q 483 919 476 917 q 492 922 489 922 q 501 913 497 922 q 506 919 506 915 l 506 922 q 510 917 508 921 l 511 910 q 513 908 511 908 l 518 901 q 532 907 531 906 q 529 914 529 910 l 524 917 l 524 933 l 532 932 q 533 906 533 931 q 546 893 533 904 q 551 899 551 893 q 550 906 551 903 l 554 906 q 564 897 561 906 q 567 901 567 900 q 578 875 574 897 l 585 839 q 589 828 585 836 q 592 804 592 817 l 592 785 q 588 783 590 783 l 586 772 q 583 758 583 764 l 583 756 q 581 754 582 754 l 574 757 l 571 751 q 568 746 569 747 q 565 751 565 746 l 565 756 l 563 756 q 554 747 557 756 l 561 732 q 564 721 561 728 l 567 714 l 567 707 q 569 697 568 704 q 572 686 572 690 q 578 656 576 658 q 579 653 579 654 l 574 618 l 575 603 l 574 568 q 571 561 571 568 q 574 556 571 558 l 572 554 l 576 500 l 576 472 l 579 464 l 578 464 q 576 460 576 463 l 575 421 l 576 418 q 575 417 575 418 l 572 403 l 574 383 q 572 382 572 383 l 571 376 q 569 372 569 375 l 571 365 q 569 363 569 364 l 574 344 q 572 339 574 342 q 571 332 572 333 l 568 329 l 571 325 q 572 319 572 322 q 567 308 571 319 l 565 304 q 567 317 565 315 l 565 317 q 563 308 563 317 l 558 296 l 558 267 l 556 257 q 557 253 557 256 q 556 251 556 253 l 549 188 q 547 178 549 179 q 546 176 546 178 q 543 165 546 174 l 543 156 q 540 154 540 156 l 542 135 l 536 100 l 538 74 q 536 72 536 74 l 536 24 q 543 -32 531 32 l 540 -37 q 538 -36 539 -36 q 535 -37 536 -36 q 528 -51 533 -43 q 521 -64 521 -61 q 507 -75 508 -71 q 490 -85 500 -75 q 483 -83 488 -83 q 478 -86 479 -83 q 472 -83 475 -86 l 467 -79 l 450 -83 q 447 -79 450 -82 l 440 -72 q 438 -68 439 -68 q 436 -69 438 -69 l 428 -68 q 426 -65 426 -67 q 421 -61 425 -61 l 418 -61 l 415 -49 l 410 -54 q 406 -58 406 -54 q 403 -57 404 -57 q 393 -65 400 -57 l 392 -65 q 389 -61 390 -65 l 386 -58 q 381 -60 385 -60 l 376 -49 l 372 -50 q 368 -51 371 -51 l 368 -39 q 357 -26 363 -26 q 356 1 356 -14 q 357 15 356 14 q 356 22 356 17 l 356 31 q 358 29 357 31 l 360 24 l 364 24 l 364 21 q 365 18 364 19 q 368 26 368 18 l 369 26 q 372 29 372 26 q 374 32 374 31 q 382 31 375 31 q 388 44 388 36 q 389 42 389 44 l 389 31 l 393 31 q 397 28 397 31 q 400 22 400 25 q 397 21 397 22 q 403 17 397 19 q 408 11 408 14 q 407 10 407 11 q 413 13 413 10 q 418 -6 418 7 l 424 -6 l 425 4 q 426 8 425 7 q 424 10 424 8 q 425 11 425 10 q 428 18 425 15 l 429 19 q 431 15 431 19 l 428 15 m 424 882 q 422 876 424 878 l 424 871 q 426 865 424 865 q 424 882 426 876 m 432 863 q 426 856 432 857 l 428 851 q 429 846 429 849 l 429 838 l 433 826 l 436 825 l 435 824 q 439 817 435 817 l 440 821 l 438 824 l 439 826 l 438 844 l 439 846 l 436 849 q 435 850 435 849 l 438 858 l 433 871 l 432 871 l 432 863 m 446 869 q 450 860 446 863 l 451 869 l 446 869 m 447 829 q 456 815 447 824 l 457 831 q 454 835 457 835 q 453 831 454 831 q 451 833 451 832 l 451 835 q 454 839 451 836 l 457 842 l 454 844 q 450 847 453 847 l 449 847 l 447 829 m 193 603 q 196 599 196 603 l 190 599 q 192 603 192 600 l 193 603 m 378 106 q 382 97 378 97 l 383 103 l 381 104 q 378 106 379 106 m 442 31 q 439 28 439 29 q 440 26 440 28 l 439 19 l 440 13 l 444 29 q 443 32 444 32 l 442 31 m 454 18 q 457 13 454 13 l 457 14 q 456 17 457 15 q 454 18 456 18 m 563 268 q 560 271 560 268 l 563 278 l 563 268 m 429 21 q 432 29 429 29 l 429 21 z "},"5":{"ha":581,"x_min":18,"x_max":563,"o":"m 301 576 q 300 572 299 574 l 304 572 q 303 571 308 571 q 297 571 299 569 l 297 575 l 289 575 q 293 579 289 581 l 301 576 m 433 536 q 424 546 424 535 l 431 546 q 435 542 431 542 q 436 535 433 539 l 438 528 q 433 536 433 531 m 440 518 l 442 514 l 440 518 m 501 417 q 496 422 501 422 q 501 417 496 415 m 497 407 q 496 411 496 407 l 496 415 q 497 407 506 415 m 497 379 l 497 382 l 494 382 l 494 379 l 497 379 m 439 360 q 438 356 436 357 q 439 350 440 356 q 439 343 436 344 q 439 347 438 346 l 442 349 l 444 361 q 442 368 447 368 q 440 363 443 363 l 439 360 m 465 357 q 467 360 465 358 q 465 367 467 365 q 464 363 465 364 q 465 357 463 358 m 146 339 q 143 351 142 339 q 146 339 146 349 m 435 346 l 435 349 l 432 349 l 432 346 l 435 346 m 460 344 l 463 344 q 458 339 463 342 l 460 344 m 131 321 q 129 340 136 338 q 131 321 129 321 m 93 314 q 93 321 103 324 q 92 318 93 319 q 93 314 90 317 m 85 314 q 88 314 86 315 q 88 308 89 311 l 83 288 q 82 292 82 288 q 82 297 81 296 l 85 314 m 38 274 q 33 276 35 274 q 36 281 33 279 q 38 278 38 281 l 38 274 m 49 288 q 49 293 50 292 q 54 288 54 293 q 51 279 54 282 q 53 275 51 276 q 54 271 56 272 l 58 283 l 57 286 q 58 290 58 288 l 58 294 q 68 301 61 301 q 67 292 69 299 l 65 281 l 68 281 q 72 281 71 283 q 79 275 75 272 q 83 278 81 274 q 85 282 83 281 l 92 286 q 90 294 92 296 q 96 301 96 294 l 96 290 q 100 290 99 289 q 103 292 101 292 q 107 299 106 293 l 110 304 q 117 301 113 301 l 136 313 l 146 322 l 161 317 q 163 322 164 318 l 163 328 l 160 331 l 157 339 q 156 344 157 344 q 161 336 157 344 l 164 333 l 167 322 q 178 308 172 314 q 188 296 186 300 q 189 294 189 296 l 194 286 l 211 251 q 214 244 215 243 q 218 238 218 240 l 228 207 l 231 207 l 231 204 l 232 204 q 235 193 232 196 l 238 192 l 238 189 l 240 186 q 242 183 242 185 q 243 181 242 181 q 246 176 244 176 l 249 175 q 260 160 258 167 l 261 160 q 267 153 267 160 l 288 146 q 289 144 288 143 l 299 142 q 311 140 307 139 l 321 178 l 322 178 l 322 185 q 324 188 322 188 l 326 192 l 326 201 l 336 244 q 347 296 343 264 l 350 308 q 354 317 349 308 l 356 325 q 357 332 356 331 q 358 333 358 332 l 364 357 l 364 364 q 369 392 369 374 q 376 378 374 389 q 368 369 375 372 q 369 361 369 368 q 364 343 371 363 q 367 340 364 340 q 369 343 369 340 q 372 340 372 344 l 374 338 l 376 344 q 379 350 379 347 l 379 367 l 382 369 l 382 372 q 385 364 382 369 l 388 357 l 383 357 q 386 356 385 357 q 388 353 389 356 q 383 350 386 349 q 383 338 382 344 q 385 335 383 333 l 385 332 q 381 331 385 331 q 378 321 383 328 l 379 319 l 376 313 q 378 313 376 311 l 382 317 l 382 315 q 383 314 382 314 l 389 315 q 393 313 392 313 q 399 322 397 317 q 406 325 403 319 q 411 332 407 332 q 408 325 404 325 q 413 322 410 322 l 415 322 q 411 314 415 318 q 418 315 422 314 q 422 322 422 324 q 426 325 422 325 l 426 300 q 428 301 428 300 l 428 304 l 431 307 q 433 317 433 310 q 442 306 443 318 q 449 317 449 308 l 453 313 l 450 310 l 451 304 q 457 311 454 301 q 461 303 461 311 q 465 310 464 304 l 467 315 q 471 311 471 315 q 474 317 468 311 q 482 317 478 315 q 483 321 483 318 l 485 329 q 488 332 485 332 q 486 339 486 335 l 486 344 q 489 351 489 347 l 492 351 l 494 358 q 490 346 490 363 q 493 344 494 346 q 497 349 496 343 l 500 354 q 497 358 497 351 q 500 364 497 361 l 501 368 q 508 369 508 368 q 506 360 510 368 l 506 349 q 499 349 501 351 l 501 347 q 504 343 506 346 q 500 333 500 347 l 507 332 l 508 329 l 511 365 q 515 365 514 364 q 519 367 517 367 q 521 371 519 371 q 519 382 521 381 q 518 383 518 385 q 517 382 517 383 q 514 379 517 379 q 514 367 517 374 q 513 371 513 367 l 511 375 q 514 382 511 378 l 515 393 q 515 394 517 394 l 518 417 q 515 419 521 419 l 513 421 q 511 431 511 417 l 513 432 q 510 436 513 433 l 506 439 q 503 440 504 440 l 499 425 q 494 432 496 425 l 494 439 q 492 436 489 439 l 489 439 q 488 449 489 447 l 486 446 q 482 443 485 443 q 481 429 482 431 q 476 426 478 426 l 478 419 l 472 415 l 472 410 q 471 406 472 406 q 469 410 469 406 l 469 413 l 467 415 q 464 422 463 419 q 460 419 461 424 l 458 417 q 456 426 456 419 l 454 426 q 453 433 453 426 l 451 436 q 453 438 453 436 l 450 439 q 449 446 450 446 q 446 440 446 446 q 446 432 447 433 q 443 428 446 429 l 439 425 q 438 414 438 429 l 436 417 q 435 418 436 418 q 431 421 432 421 q 429 433 431 438 q 428 429 428 433 q 426 426 426 428 l 422 415 q 419 413 419 415 q 413 414 418 414 q 418 422 413 421 l 415 422 q 411 425 413 422 q 410 422 411 426 q 408 419 410 419 q 404 424 406 419 q 404 428 403 426 l 401 425 q 399 422 400 422 l 399 414 q 397 411 399 411 l 394 410 l 393 413 q 392 414 393 414 l 392 407 q 386 401 390 407 q 381 394 383 394 q 382 419 381 417 q 375 418 382 418 q 374 458 375 454 l 368 475 q 367 483 367 476 l 367 492 l 365 493 l 367 504 q 365 511 367 510 l 364 511 q 361 522 364 519 l 360 526 q 357 535 356 531 l 374 506 q 374 519 375 510 l 369 526 q 367 536 365 533 q 371 535 367 539 l 371 532 q 376 526 376 532 l 378 524 q 381 522 379 522 q 383 511 385 511 q 386 524 386 514 q 381 529 385 528 q 381 539 383 539 q 383 536 383 542 l 383 533 q 385 532 383 532 q 389 522 390 526 q 393 519 389 519 l 396 518 l 394 517 l 399 499 q 399 490 401 493 q 396 501 400 490 q 392 496 392 504 l 393 485 q 394 478 393 478 q 394 474 397 476 l 393 471 q 400 467 396 464 l 400 457 q 403 465 403 454 q 404 472 403 471 q 408 468 408 472 q 410 463 408 464 q 413 468 411 463 l 414 469 l 414 479 q 413 486 414 483 l 406 508 q 404 510 406 510 l 403 511 q 401 515 401 513 l 401 521 q 399 526 400 521 q 393 535 397 532 l 393 538 q 390 543 393 540 l 393 543 q 396 540 396 546 l 401 533 l 401 529 l 407 525 l 408 521 q 408 528 413 522 q 407 531 407 529 l 404 539 q 399 542 401 542 l 400 546 q 400 551 403 550 q 403 547 400 544 l 407 543 l 413 543 q 414 540 414 543 l 415 538 q 414 533 417 535 l 413 531 q 415 526 413 528 q 418 529 418 526 q 421 521 421 526 l 422 517 l 428 511 l 429 501 q 431 494 429 496 q 426 494 429 493 l 421 507 l 413 510 l 415 503 q 419 496 417 497 q 419 493 417 493 l 417 490 q 415 486 414 489 q 419 483 415 482 l 419 486 q 421 482 421 486 l 421 478 q 425 481 422 478 l 428 483 q 428 486 429 485 l 426 489 q 429 490 429 489 l 429 493 q 433 489 433 496 l 438 485 q 439 481 438 481 q 438 471 439 467 q 449 465 442 463 l 447 458 q 451 461 444 461 q 450 464 453 463 l 449 468 q 449 471 450 471 q 447 472 449 472 l 446 472 l 447 474 l 444 476 l 450 478 q 453 481 451 478 l 454 483 q 449 508 454 507 q 450 519 450 510 q 446 521 450 521 l 446 529 q 442 528 443 529 q 439 529 439 525 q 443 535 443 525 l 442 546 l 439 553 q 447 551 446 556 l 447 547 l 450 546 q 453 535 450 538 l 453 543 q 453 546 454 544 l 449 553 q 440 578 451 564 q 432 578 436 581 q 422 581 431 582 l 424 575 l 422 574 l 426 568 q 431 560 431 563 l 422 568 q 419 569 421 569 l 419 572 q 414 575 417 576 q 413 578 414 578 q 419 581 415 581 q 403 594 410 592 q 404 583 404 594 q 394 590 399 586 q 397 582 394 585 q 392 588 394 579 l 389 588 l 389 590 q 386 592 388 592 l 383 592 q 381 596 385 592 l 371 596 q 368 599 371 599 l 364 600 q 350 597 361 597 q 353 596 351 597 q 354 594 354 596 l 358 590 l 351 592 q 343 592 346 589 q 342 592 342 593 l 340 590 q 333 590 335 594 q 339 593 342 590 q 335 596 338 596 l 331 596 q 328 592 326 593 q 317 593 317 592 q 329 585 321 588 q 315 588 329 583 q 314 589 315 589 q 299 590 311 590 q 292 593 292 590 q 308 593 300 592 q 304 594 308 594 l 303 597 l 281 594 q 285 593 281 593 q 276 592 285 592 q 257 589 268 589 l 251 583 q 247 582 249 583 q 243 582 246 581 q 240 576 240 582 q 225 567 228 575 l 224 571 l 219 567 q 211 564 214 563 l 210 563 q 208 560 210 560 l 207 558 q 206 557 206 558 l 188 564 q 176 558 176 561 q 158 558 172 560 l 158 553 q 128 554 118 553 l 106 550 q 101 549 103 550 l 97 546 q 94 550 97 553 q 79 553 82 550 l 65 550 l 54 576 l 53 607 q 50 625 53 611 q 49 640 49 628 l 43 701 q 42 710 43 707 l 40 714 l 40 732 q 39 747 40 751 l 40 769 l 42 771 q 43 789 43 775 l 42 819 q 43 838 42 833 l 46 847 l 46 856 q 47 864 46 863 q 49 865 49 864 l 53 882 q 60 890 53 885 q 65 899 65 897 q 72 901 68 899 l 76 904 q 86 922 85 910 l 93 926 l 100 935 q 110 942 104 936 q 111 944 111 942 q 113 947 111 946 l 126 960 l 139 967 l 165 974 q 171 975 167 975 l 201 979 q 210 981 208 979 l 243 989 q 251 992 249 989 l 276 999 q 288 1000 283 999 q 289 1001 288 1001 l 306 1004 q 319 1007 310 1007 l 336 1011 q 342 1013 338 1013 l 349 1013 q 350 1014 349 1015 q 361 1015 357 1014 q 367 1017 363 1017 l 374 1017 l 411 1025 q 447 1028 433 1028 l 457 1028 l 483 1022 q 497 1019 494 1022 l 535 1010 q 533 1000 535 1001 q 538 968 538 983 q 536 949 538 953 l 531 940 l 528 904 q 524 894 528 901 q 522 890 524 892 l 519 888 l 519 881 l 518 881 l 513 868 q 507 858 511 863 l 501 847 q 497 844 501 849 l 497 842 l 494 840 q 489 831 489 835 l 469 813 l 451 804 q 439 801 447 804 q 435 800 439 800 l 418 797 l 415 794 l 354 785 q 338 783 351 783 q 326 782 331 783 l 306 778 q 278 775 294 775 q 260 772 269 772 q 243 769 254 772 l 242 768 q 240 767 242 767 q 251 646 240 754 q 254 643 251 643 l 256 642 l 282 646 l 285 649 l 289 649 q 292 650 290 649 q 325 654 304 654 q 329 657 326 654 l 333 660 q 336 661 336 660 l 344 657 q 360 658 346 658 q 361 660 361 658 q 360 661 361 661 q 363 663 360 663 l 365 664 q 374 663 372 664 q 379 658 364 658 q 383 661 382 658 l 388 663 q 419 658 407 663 l 429 657 l 463 646 q 465 644 464 646 l 469 642 q 453 643 469 643 l 471 625 l 475 625 l 493 610 q 486 621 493 611 q 482 625 486 622 q 478 628 479 628 q 476 640 476 624 q 496 631 481 642 q 499 629 497 631 q 501 626 501 628 l 518 610 l 521 600 l 525 597 q 526 593 525 594 l 539 571 l 540 565 l 544 564 q 546 560 546 564 l 554 528 l 556 506 l 560 496 q 563 485 563 489 l 561 456 l 557 435 l 554 372 q 554 360 556 363 l 550 317 l 551 311 q 550 310 550 311 l 550 299 l 546 281 l 546 265 q 544 249 546 251 l 543 229 q 542 226 543 228 l 540 225 l 532 153 q 531 147 532 149 q 529 146 529 147 l 528 143 q 526 140 526 142 q 525 136 525 139 q 524 132 524 135 l 522 122 q 519 121 519 122 l 518 118 q 515 106 518 108 q 514 104 514 106 l 513 103 q 511 100 511 101 q 500 92 511 92 q 497 93 500 93 q 496 107 493 99 q 493 108 496 108 l 492 107 l 488 111 q 481 106 483 114 q 482 99 479 103 l 483 94 q 481 89 483 92 l 478 85 q 476 68 478 72 q 475 67 475 68 l 456 42 q 453 40 456 40 l 450 40 l 440 33 l 439 29 l 436 28 l 436 25 q 435 22 436 22 l 429 19 l 429 17 q 425 11 431 17 l 425 7 l 417 -12 q 413 -14 413 -12 l 401 -25 q 400 -28 401 -28 l 381 -40 l 376 -40 q 374 -42 374 -40 l 372 -46 l 369 -46 l 365 -50 l 338 -60 q 328 -61 332 -61 q 296 -64 306 -64 l 271 -61 l 242 -54 l 239 -56 l 213 -51 q 208 -50 210 -51 q 207 -49 208 -49 l 203 -49 q 197 -47 199 -49 q 196 -46 197 -46 l 185 -42 q 179 -40 182 -40 q 172 -36 172 -37 q 161 -33 175 -36 q 157 -32 161 -32 l 153 -31 l 151 -28 q 140 -22 144 -28 l 139 -22 q 136 -21 136 -22 l 135 -18 l 126 -15 q 113 -6 119 -12 l 111 -4 q 110 -3 111 -3 q 106 -1 107 -3 l 104 0 q 89 15 104 1 q 75 32 75 28 l 64 47 q 63 49 64 49 l 57 54 l 56 58 q 35 99 44 76 l 22 144 q 21 151 21 146 l 18 183 l 19 206 l 21 206 q 25 219 21 219 q 24 226 25 231 q 35 228 39 226 q 46 242 39 229 l 49 249 q 53 251 51 247 l 56 256 q 57 261 57 257 l 57 268 q 54 267 54 271 l 54 264 l 49 261 l 49 260 q 47 256 49 257 l 43 251 l 43 246 q 42 250 42 246 l 43 251 l 42 253 q 46 263 42 257 q 47 269 47 264 l 49 288 m 114 650 q 118 642 125 649 q 114 650 114 642 m 100 646 l 97 633 l 99 614 l 101 611 q 107 608 104 608 q 110 625 110 617 q 106 631 104 625 l 108 639 q 106 643 107 639 q 101 646 104 646 l 100 646 m 122 636 q 117 626 124 632 q 111 617 111 619 l 115 618 q 122 618 119 619 q 126 613 122 613 q 129 619 129 613 q 125 622 129 621 l 121 624 l 124 626 q 122 636 128 631 m 331 597 q 324 603 336 603 q 319 599 319 603 q 324 597 319 596 q 331 597 329 599 m 503 600 q 504 599 504 600 l 510 585 l 518 575 q 522 574 519 574 q 517 588 522 579 q 508 600 508 599 q 506 600 507 599 l 504 601 q 503 600 503 601 m 419 592 q 422 590 421 592 l 424 589 q 419 588 422 586 q 418 592 417 589 l 419 592 m 431 592 q 438 583 433 583 q 431 592 440 592 m 478 571 q 492 547 481 558 l 494 542 q 497 540 494 532 l 492 550 l 489 561 q 488 564 489 564 l 469 592 l 464 592 q 460 590 460 592 q 464 585 463 589 l 465 578 l 460 579 q 468 574 461 576 q 465 571 463 574 l 465 567 l 468 567 l 468 564 q 472 558 471 557 q 478 571 469 569 m 461 543 l 465 542 l 461 543 m 489 476 q 489 489 490 479 l 489 500 l 485 508 q 483 519 488 515 l 479 524 l 476 539 q 469 547 479 539 q 471 553 471 549 l 471 557 q 464 557 467 560 q 454 571 449 574 l 461 556 q 468 540 468 543 l 467 538 q 465 533 464 535 q 468 532 468 533 q 469 528 468 529 q 471 519 471 526 l 472 515 q 472 510 474 513 q 471 507 472 507 q 468 515 471 513 q 465 503 465 513 q 468 493 465 496 q 471 492 469 494 q 475 489 474 489 q 476 503 482 503 q 478 488 476 489 q 482 485 478 489 q 478 483 482 486 l 474 482 q 478 467 474 469 q 479 479 483 472 q 485 482 482 479 l 486 479 q 489 476 486 476 m 528 557 q 531 549 531 554 l 535 538 q 538 510 539 515 l 538 501 q 539 494 538 496 l 539 492 q 540 489 539 489 l 542 489 q 543 496 543 489 l 546 497 l 546 506 l 549 507 q 547 514 547 506 q 546 517 546 515 q 542 522 542 521 q 540 538 540 525 l 532 557 l 528 557 m 458 529 q 463 519 463 529 q 458 529 460 519 m 501 526 q 500 528 500 526 q 501 529 500 529 q 503 526 501 526 l 501 526 m 460 506 l 463 508 q 460 518 464 515 l 460 506 m 504 511 q 507 506 504 506 q 506 511 507 508 q 503 517 504 517 l 504 511 m 388 513 l 390 511 q 388 517 390 517 l 388 513 m 489 469 l 486 469 l 488 474 l 489 469 m 426 469 q 431 460 426 460 q 432 465 433 461 q 426 469 429 469 m 547 453 q 542 444 546 453 q 540 436 540 443 l 538 425 l 538 415 q 536 408 538 410 q 535 396 535 406 l 535 385 l 532 382 l 532 375 q 531 369 532 371 q 528 365 531 368 q 526 358 526 364 q 526 350 525 357 l 526 343 q 528 340 524 339 q 526 333 529 338 l 525 326 q 526 325 525 325 l 528 322 q 526 319 524 322 l 526 317 l 528 317 q 528 313 531 317 l 531 308 q 533 314 531 311 l 536 319 q 539 338 536 338 l 540 356 q 542 364 540 363 l 549 419 l 547 453 m 411 426 q 411 435 419 435 l 411 426 m 549 431 q 550 415 549 410 q 551 414 550 413 q 553 418 553 415 q 551 422 553 421 q 549 431 551 431 m 522 413 l 524 406 l 524 407 l 522 413 m 522 400 q 521 392 519 397 q 522 400 521 399 m 513 336 q 521 346 519 336 q 522 349 521 347 l 524 351 q 521 354 524 354 l 519 354 l 519 360 q 518 364 519 364 l 513 336 m 489 329 q 494 331 489 331 l 494 328 l 497 328 q 501 322 501 328 q 492 321 489 318 l 492 329 l 489 329 m 514 329 q 518 326 517 332 l 514 329 m 372 322 q 375 321 374 321 q 374 318 374 319 l 372 311 q 371 308 372 310 l 368 307 q 367 313 367 307 q 368 318 367 317 q 371 325 371 321 l 372 322 m 417 303 l 417 300 l 414 300 l 414 303 l 417 303 m 281 583 l 278 582 q 282 579 278 581 q 286 578 285 576 q 267 574 276 568 q 271 576 269 576 q 271 583 268 579 l 281 583 m 442 557 q 444 565 439 560 l 444 563 q 444 558 443 561 l 449 558 q 442 557 449 557 m 450 364 q 449 353 449 363 l 447 353 q 449 347 442 347 l 449 351 q 454 363 460 363 q 454 358 457 361 q 453 354 453 357 l 458 354 q 460 363 457 358 q 460 369 464 365 q 456 367 458 371 l 453 364 l 450 364 m 406 371 l 406 356 q 413 347 408 349 l 413 354 l 417 356 l 415 363 q 417 364 415 364 l 418 364 l 415 368 q 418 374 418 368 q 415 382 418 385 l 410 379 l 406 371 z "},"6":{"ha":606,"x_min":18,"x_max":589,"o":"m 211 833 q 207 824 211 829 l 200 814 l 204 825 q 211 833 208 836 m 196 711 q 197 717 200 715 q 199 711 201 718 q 194 701 196 708 l 185 685 q 185 690 183 686 l 186 692 q 190 699 190 696 q 192 704 190 703 l 194 706 l 196 711 m 313 464 q 318 468 313 467 l 324 469 q 315 460 331 465 q 313 464 315 464 m 372 453 q 389 460 382 451 q 372 453 375 458 m 399 454 q 408 457 406 460 q 406 456 410 456 l 403 454 q 407 451 403 451 l 401 447 q 400 450 400 447 q 396 453 397 454 q 399 454 396 454 m 19 353 q 21 371 18 357 q 24 368 24 371 q 26 367 25 367 l 22 356 q 19 353 22 353 m 314 368 l 313 369 l 315 367 l 314 368 m 304 358 q 307 363 307 361 q 310 361 310 363 l 310 358 l 304 358 m 236 332 q 242 335 239 335 q 236 332 242 332 m 21 146 q 18 154 18 149 q 19 161 18 160 q 21 146 21 160 m 478 63 q 485 64 489 63 l 482 54 q 486 54 485 53 l 489 57 q 494 58 490 58 q 490 44 496 54 l 479 44 q 471 42 468 44 l 481 54 q 478 63 476 58 m 224 433 q 222 415 222 432 q 229 417 225 414 l 235 418 q 238 414 232 411 q 242 415 239 415 l 246 415 l 247 418 q 250 419 249 419 q 261 429 261 419 l 264 429 q 267 431 265 429 l 268 432 q 271 433 271 432 l 281 439 l 269 424 l 265 424 q 263 422 263 424 l 261 419 l 257 418 q 253 417 254 418 l 236 399 q 251 411 246 401 q 260 417 258 411 l 263 417 l 267 421 l 271 421 l 272 424 l 288 435 q 293 439 292 439 q 300 443 296 439 l 300 440 q 289 433 293 433 l 289 428 q 281 418 281 422 q 283 418 281 415 l 286 421 q 290 419 288 419 l 293 421 q 297 424 294 419 l 297 421 l 300 424 q 306 426 303 426 l 322 432 l 338 443 q 340 444 339 444 q 350 449 343 447 q 358 453 351 453 q 347 444 358 451 l 350 443 q 353 442 353 443 l 354 440 q 343 435 349 435 q 349 432 343 431 q 349 429 350 431 l 342 424 q 333 418 336 418 q 326 411 331 418 l 353 421 l 321 396 q 322 394 321 393 l 329 397 q 344 406 338 406 q 338 397 344 404 l 331 392 l 331 383 q 322 381 328 385 l 318 376 l 317 381 l 315 376 q 313 372 314 372 q 306 367 311 372 q 286 364 297 369 q 281 356 281 358 q 271 351 278 356 q 261 349 265 347 l 254 344 q 240 340 247 344 l 238 339 q 233 336 236 336 l 233 329 q 229 328 231 331 l 226 326 q 213 313 218 326 q 222 313 214 308 q 218 310 224 311 l 214 306 l 214 278 q 213 275 213 276 l 213 215 l 214 215 l 213 213 q 214 204 213 207 l 219 171 q 222 169 222 171 q 224 161 222 163 q 225 158 224 160 q 226 154 225 156 q 238 135 232 138 q 239 131 239 133 l 239 126 l 240 126 q 242 122 240 124 l 244 122 q 246 121 246 122 l 247 117 l 265 100 l 276 96 q 283 90 282 93 l 303 88 q 322 86 318 85 q 343 94 325 86 q 360 103 354 99 q 371 114 367 107 q 383 131 381 124 l 388 136 q 397 149 388 139 q 407 158 399 153 l 413 163 l 421 174 l 435 206 q 440 217 439 210 l 446 229 q 457 250 451 244 q 458 261 458 246 l 464 268 l 472 322 q 468 350 472 318 q 467 351 468 351 l 464 353 q 465 375 464 376 q 460 367 463 374 l 457 358 l 458 383 l 457 397 q 456 421 456 392 q 450 428 456 424 q 446 433 450 432 l 446 440 q 439 446 444 443 l 432 449 q 415 446 426 446 q 417 447 415 447 l 418 449 l 418 456 l 421 456 l 421 457 q 425 463 422 463 q 421 464 425 464 l 417 464 l 425 468 l 424 469 q 421 471 421 469 l 419 475 l 414 479 q 422 481 421 479 q 429 483 428 486 q 429 486 431 485 l 428 489 l 429 493 l 426 493 q 425 496 426 494 l 422 499 q 421 500 422 500 q 418 501 419 501 q 414 500 415 501 q 410 500 413 499 l 418 503 q 415 506 418 506 q 414 511 415 511 q 418 514 417 514 l 426 517 l 429 515 q 433 517 429 517 q 431 522 433 519 q 431 525 429 524 q 447 524 435 524 l 464 524 q 472 521 467 524 l 483 518 q 489 517 488 518 q 497 515 496 517 l 514 506 q 518 504 515 504 l 521 504 l 526 497 q 536 490 532 492 q 553 472 543 478 l 554 467 q 563 460 554 469 l 565 446 q 575 440 565 444 l 578 424 l 583 419 q 586 393 583 399 q 589 386 586 389 q 588 378 588 385 l 588 371 q 579 360 579 371 q 572 360 569 357 l 572 310 q 576 289 579 304 l 575 286 q 574 282 572 285 l 564 282 q 571 275 564 274 q 561 268 572 279 q 560 264 561 265 l 561 261 l 560 261 q 556 261 558 264 q 553 256 553 261 l 549 238 l 549 214 l 550 211 q 550 206 551 207 l 549 201 q 547 196 547 199 q 546 190 546 194 l 546 185 l 542 183 q 540 179 540 182 l 538 161 l 535 160 l 535 157 q 528 142 535 153 l 519 126 q 522 113 525 113 q 519 110 522 110 l 519 99 q 517 97 517 99 q 519 96 519 97 l 517 94 q 515 93 517 93 q 513 76 518 82 q 507 88 518 76 q 493 78 499 86 l 489 81 l 489 79 q 488 76 489 76 l 481 75 q 468 68 475 75 l 457 57 q 447 46 447 47 l 444 46 q 440 44 442 46 l 439 40 l 436 40 l 426 35 q 424 29 426 29 q 425 25 424 24 l 422 22 l 419 22 l 418 19 q 417 17 418 17 l 413 17 q 408 14 411 17 q 413 21 406 14 l 418 26 q 415 31 418 28 l 413 35 q 403 26 404 32 q 404 25 401 25 l 406 24 l 404 13 l 389 6 q 383 1 386 1 l 388 6 q 382 4 383 6 q 378 3 381 3 q 376 4 378 4 l 365 4 q 364 6 365 6 q 347 -1 353 4 q 332 -8 343 -1 l 315 -17 q 300 -22 310 -22 l 293 -21 q 292 -22 293 -22 l 268 -18 q 265 -17 267 -18 l 265 -12 q 240 -10 254 -10 l 213 -6 q 192 -3 204 -3 q 190 -1 192 -1 l 188 -1 q 169 0 182 3 l 167 1 q 164 6 163 3 q 151 8 163 4 q 144 11 149 11 q 140 13 140 11 l 136 11 q 131 10 133 10 l 114 18 l 110 18 l 108 22 l 100 25 q 96 26 97 25 q 94 28 94 26 q 83 38 92 28 q 81 43 83 39 q 76 49 78 49 l 75 51 q 72 53 74 53 q 65 64 71 60 l 65 74 l 63 76 l 60 76 l 60 79 q 58 82 60 82 q 56 86 58 83 l 50 93 q 49 97 49 94 q 46 103 49 99 l 43 108 q 35 117 42 115 q 33 135 33 119 l 32 154 q 28 172 25 165 l 29 176 q 35 156 39 151 q 36 163 36 156 l 32 208 l 32 313 l 33 314 l 35 340 q 33 358 35 363 q 35 364 35 358 q 39 365 38 363 l 43 393 q 47 415 47 406 l 56 446 q 61 471 57 447 l 65 479 q 68 490 68 482 q 69 494 68 494 l 76 508 q 79 518 79 511 q 81 528 79 526 q 90 547 90 528 l 97 563 q 101 574 101 571 l 101 568 q 97 549 101 564 q 92 528 92 533 l 99 546 q 106 567 103 553 q 110 571 108 567 l 113 574 q 119 590 114 579 l 125 601 q 125 593 128 600 l 122 585 l 128 592 l 128 597 q 129 600 128 600 l 131 600 q 132 603 133 603 q 132 597 133 601 q 131 593 131 596 l 139 607 q 143 614 143 613 q 146 621 149 619 q 143 601 143 624 q 154 621 147 614 l 154 614 q 164 632 158 618 l 169 646 l 174 649 l 174 651 q 174 654 171 657 q 175 651 178 656 l 158 613 q 161 615 160 611 l 164 619 l 164 611 q 169 622 168 615 l 175 633 l 179 633 l 182 640 q 182 624 185 636 l 197 643 l 204 669 q 201 667 203 674 l 201 663 q 200 665 200 663 q 196 668 200 668 q 210 699 207 688 q 203 694 210 701 q 200 696 200 692 q 204 704 203 699 l 206 710 l 210 714 q 211 717 211 715 l 214 722 q 211 728 211 725 q 214 736 214 731 l 217 739 q 221 746 217 742 q 235 779 221 756 q 232 779 235 782 q 228 778 231 778 l 232 790 q 236 803 236 800 l 228 792 q 221 786 225 794 q 219 781 221 781 l 218 779 q 215 778 215 779 l 214 774 q 213 768 214 769 l 208 763 q 206 756 204 754 q 200 743 206 749 l 197 740 q 196 738 196 740 l 192 726 q 186 719 190 726 q 181 707 185 718 q 183 718 179 708 q 185 722 185 719 l 188 729 q 190 736 188 733 l 196 750 q 189 740 200 751 l 181 726 q 178 721 181 724 q 168 697 174 714 l 164 697 q 156 682 158 685 l 176 732 l 175 733 l 168 722 q 175 742 165 725 q 176 744 176 743 l 178 750 q 179 754 178 753 q 181 757 181 756 l 181 760 q 188 772 186 765 l 192 786 l 194 786 q 196 789 196 788 l 196 793 l 199 794 l 199 797 q 200 801 199 800 l 208 815 q 210 822 208 821 l 213 824 q 219 829 218 829 q 229 847 221 835 q 238 864 238 860 l 250 878 l 261 894 q 258 893 261 899 l 256 890 q 258 899 251 892 q 263 904 261 901 l 265 908 l 276 914 l 318 958 q 319 960 318 960 l 329 964 l 356 988 q 357 990 356 989 q 358 993 357 992 q 360 994 360 993 q 381 1007 379 1001 q 388 1010 383 1007 l 394 1013 l 396 1015 l 400 1015 q 404 1018 400 1017 l 410 1019 q 419 1021 414 1021 l 428 1025 q 440 1014 428 1028 l 443 1003 q 446 999 443 1001 q 449 993 449 994 q 444 986 444 997 l 444 975 q 443 965 444 967 q 442 957 443 960 l 433 931 l 404 882 l 404 879 q 403 876 404 876 l 390 858 l 374 826 l 369 824 l 369 818 l 367 817 l 361 806 l 358 804 q 357 803 357 804 q 356 800 356 803 l 356 796 l 353 792 q 351 789 353 789 l 344 779 q 343 776 344 776 l 340 775 l 338 765 l 333 764 l 333 761 q 331 757 333 760 q 326 753 326 754 l 325 749 q 324 743 325 744 l 319 742 q 318 739 318 740 l 317 732 l 314 731 q 313 722 314 722 l 308 718 l 304 707 l 301 704 l 301 699 l 297 696 l 297 692 l 293 683 l 290 683 l 290 681 l 288 679 l 288 675 l 285 675 l 278 661 q 272 657 278 657 l 274 661 l 268 657 q 264 647 268 653 l 260 646 q 260 644 258 646 l 246 608 q 251 613 249 606 l 251 611 q 246 592 251 603 q 243 588 244 588 l 246 579 l 244 572 q 246 568 246 571 l 244 564 q 243 547 243 561 q 242 535 243 539 q 236 488 242 526 l 232 482 l 228 467 q 224 458 226 461 q 225 447 225 457 l 222 435 l 224 433 m 338 439 q 329 435 335 439 l 319 428 q 338 439 335 435 m 192 633 q 190 621 192 619 q 192 633 190 635 m 224 749 q 222 746 224 747 q 222 740 221 742 q 224 743 222 742 q 224 749 225 747 m 296 706 q 293 693 296 690 q 296 706 299 703 m 172 618 q 169 601 167 604 q 172 618 169 621 m 106 529 q 108 532 106 532 q 107 538 110 538 q 106 532 104 538 q 104 531 104 532 q 106 529 104 529 m 72 419 q 72 431 78 425 l 72 419 m 68 411 q 67 407 67 410 l 67 399 l 64 396 l 64 393 q 63 382 63 392 l 63 374 q 68 379 63 378 l 69 408 q 68 411 69 411 m 43 168 q 47 161 44 163 l 47 176 q 40 175 40 176 l 43 168 m 419 38 q 414 35 414 38 q 419 38 419 35 m 304 440 q 299 435 304 435 l 304 440 m 194 686 q 188 674 188 665 q 188 678 186 674 q 188 683 189 682 l 194 686 m 175 660 q 176 661 176 660 l 178 664 q 176 663 178 663 q 174 660 176 665 l 175 660 m 144 638 q 144 636 146 638 q 140 633 142 633 q 143 636 140 635 l 144 638 m 414 457 q 418 458 414 458 q 415 460 418 460 q 414 458 414 460 l 414 457 m 318 451 l 322 456 q 317 453 314 456 l 318 451 m 363 443 q 364 442 363 442 l 374 442 l 382 447 q 365 443 368 446 l 363 443 z "},"7":{"ha":501,"x_min":18,"x_max":488,"o":"m 331 729 q 329 728 331 728 q 326 717 326 725 l 324 717 q 321 715 322 717 l 318 713 q 319 731 319 713 q 331 729 325 732 m 388 618 l 388 621 l 383 621 l 383 618 l 388 618 m 331 588 q 329 594 325 589 l 333 596 l 332 593 q 331 588 331 590 m 168 244 q 167 247 167 246 l 172 246 l 168 231 l 168 244 m 156 178 q 154 182 154 178 l 154 188 q 157 181 160 188 q 156 178 156 179 m 140 94 q 138 99 138 96 q 143 100 138 101 l 142 99 q 140 94 139 97 m 400 917 q 383 910 394 913 q 400 917 383 900 m 429 694 q 426 696 426 694 q 422 689 422 694 q 417 686 419 690 l 414 683 q 407 660 408 667 q 399 624 411 663 q 406 628 401 624 l 410 631 q 418 632 415 629 l 415 583 q 413 550 413 564 l 415 549 q 418 547 418 549 l 415 547 q 410 539 410 546 q 417 538 410 538 l 422 539 l 461 539 q 461 535 460 535 q 465 539 468 535 q 468 528 469 526 q 485 511 479 514 q 478 504 485 504 l 483 489 l 482 485 q 479 481 481 481 q 485 467 488 474 q 475 465 471 467 q 479 464 475 464 l 483 464 q 474 456 475 456 l 475 451 l 479 450 q 482 449 482 450 q 472 442 478 444 q 478 433 475 431 q 475 429 478 432 l 463 415 l 446 389 l 447 383 q 449 378 450 381 l 451 375 q 454 371 454 374 l 454 361 q 442 357 453 360 q 435 346 446 357 q 413 342 419 338 q 415 349 411 344 l 418 353 l 415 354 l 413 351 l 413 349 l 410 349 l 403 339 q 401 338 401 339 l 397 335 q 396 332 396 333 l 392 332 l 386 326 l 371 318 l 369 311 q 367 292 367 311 q 365 290 365 292 l 365 286 q 361 272 363 286 q 358 271 358 272 l 357 265 q 356 258 357 260 q 354 250 356 251 q 353 249 353 250 q 351 246 353 246 l 356 238 q 353 219 356 225 q 351 215 351 218 l 349 208 q 346 199 346 201 l 346 194 q 343 179 343 192 l 343 157 q 342 156 342 157 q 339 147 342 150 l 339 144 q 333 131 339 142 l 331 124 l 331 115 q 329 107 331 108 q 328 106 328 107 l 326 97 q 326 85 325 89 q 325 64 329 74 l 318 28 q 317 15 317 28 q 315 -7 318 11 l 307 -28 l 307 -32 l 304 -35 l 304 -40 q 303 -44 304 -43 q 301 -51 303 -53 l 293 -65 l 293 -71 q 292 -75 293 -74 l 289 -76 l 289 -81 l 269 -100 q 257 -104 274 -104 q 242 -103 246 -104 q 235 -92 240 -96 q 225 -94 232 -92 q 215 -99 219 -99 q 207 -104 213 -99 q 188 -97 194 -104 q 182 -103 183 -97 l 179 -99 q 175 -96 178 -96 q 169 -97 169 -96 l 163 -89 q 149 -85 150 -89 q 147 -75 149 -76 q 140 -81 139 -75 q 139 -75 139 -81 q 136 -69 139 -69 l 136 -67 l 139 -64 l 132 -58 q 129 -44 122 -44 l 133 -35 l 133 -21 l 138 3 q 132 -4 139 3 q 124 -10 131 -10 q 126 0 121 -7 q 124 4 126 1 q 121 8 121 7 q 122 26 124 22 l 125 29 q 132 32 129 33 l 128 15 q 133 17 129 14 q 139 18 138 21 q 150 19 142 14 q 149 22 150 21 l 147 24 l 147 31 q 144 32 147 33 q 142 32 142 31 l 142 38 l 146 40 l 146 46 q 149 53 146 50 q 147 58 149 56 l 146 61 q 149 75 146 65 q 151 88 151 85 l 157 92 q 158 106 158 86 q 157 108 157 106 q 151 111 154 114 l 151 128 q 160 131 154 131 q 174 172 161 139 q 172 178 175 175 l 171 181 q 176 222 181 229 q 175 225 178 225 l 174 226 l 174 235 l 182 235 q 185 243 176 235 l 186 243 l 193 272 l 183 271 l 182 268 l 174 268 q 168 265 171 268 q 161 264 167 264 q 154 263 160 263 q 115 261 142 258 q 54 303 76 268 l 44 307 q 42 311 46 307 l 38 313 l 35 317 q 32 321 33 321 l 25 328 q 18 339 18 335 q 39 344 38 343 l 43 356 l 56 353 q 50 360 56 356 q 44 365 44 363 q 56 364 49 367 l 67 361 q 67 353 69 357 q 82 356 76 353 l 82 361 l 69 371 l 56 371 q 58 374 56 376 q 63 372 60 372 q 60 376 63 374 q 57 381 57 379 l 57 390 q 63 394 58 393 l 67 396 q 69 406 65 401 q 74 411 74 410 q 71 417 74 417 q 74 417 72 418 q 76 415 75 415 q 86 435 88 431 q 89 438 88 435 l 94 443 l 99 443 l 104 449 q 110 450 106 450 l 133 453 q 128 447 135 450 q 122 443 122 444 q 135 443 129 438 q 144 454 138 444 l 157 456 q 174 458 165 458 l 182 458 l 185 461 q 201 464 193 461 l 206 467 l 207 465 l 225 471 l 226 469 q 229 468 228 468 q 240 471 226 471 q 243 478 240 475 q 242 482 242 478 l 242 501 q 247 521 246 511 l 250 533 q 254 535 250 535 q 263 563 260 560 q 278 560 269 563 l 286 564 q 282 567 283 568 q 286 583 282 575 l 292 583 q 297 582 296 585 q 304 593 304 585 q 314 579 300 593 q 317 593 307 579 l 318 594 q 321 600 321 597 q 322 582 322 600 q 335 583 321 583 l 338 574 q 342 579 342 574 q 346 583 342 583 l 346 578 l 349 572 q 353 578 351 572 l 356 582 q 356 596 354 586 l 357 601 l 356 606 l 361 615 l 365 615 q 374 618 375 615 l 375 619 q 376 622 376 619 q 378 613 378 621 l 382 614 q 389 613 386 615 l 389 618 q 390 622 388 621 l 394 638 q 397 639 397 638 l 397 643 q 392 638 393 643 l 386 638 q 383 635 383 638 q 381 628 381 632 l 381 639 q 382 644 381 643 l 383 649 q 389 657 390 656 l 394 654 q 393 669 401 658 q 394 682 393 683 l 392 682 l 392 686 q 392 690 393 690 l 388 686 l 390 704 q 392 707 390 707 q 390 724 389 710 q 389 739 392 736 q 399 790 396 765 q 396 792 399 792 l 393 793 q 386 779 386 790 q 382 775 383 779 l 379 771 q 376 753 383 760 q 381 751 376 751 l 379 749 q 378 744 379 746 l 376 742 q 375 739 375 740 q 372 743 372 739 q 371 751 372 750 l 371 746 l 368 743 q 367 735 365 738 q 364 739 364 735 q 360 736 361 739 l 357 732 l 356 750 l 357 754 q 365 763 364 757 l 371 763 q 374 788 371 776 q 365 768 375 788 q 357 767 364 767 q 356 756 357 757 q 354 763 354 756 l 350 756 q 354 751 350 750 l 353 742 q 350 728 350 732 q 336 717 340 728 l 332 708 l 332 739 l 335 742 q 338 743 336 743 q 332 744 338 744 q 332 753 335 749 q 326 740 326 749 q 328 753 328 740 q 324 769 328 765 l 319 768 q 314 767 317 765 q 319 803 314 776 q 304 799 311 803 q 303 796 304 796 l 275 786 l 275 783 l 272 783 l 272 782 q 265 779 269 779 q 260 778 261 779 q 254 775 257 775 l 233 765 q 231 764 232 765 l 226 760 q 222 758 224 760 l 189 746 q 183 744 185 746 q 174 743 176 744 q 172 742 174 742 l 171 742 q 168 740 171 740 l 135 735 q 122 733 126 732 q 97 743 108 736 l 92 749 q 86 753 92 750 l 79 756 q 64 761 74 761 l 51 765 l 51 774 q 54 778 51 775 l 56 781 l 58 781 l 58 786 l 65 788 l 76 799 l 79 799 q 81 803 79 803 l 88 804 q 93 810 88 810 l 99 815 l 101 815 l 103 818 q 111 824 106 824 l 113 825 q 115 826 114 826 q 128 838 121 826 q 151 853 139 840 l 158 856 q 167 858 164 858 q 164 863 164 861 q 175 868 167 865 l 183 871 q 200 875 192 867 l 203 881 l 210 882 l 210 883 q 215 885 211 885 l 221 885 l 261 894 q 279 897 276 899 l 296 900 q 313 903 308 903 l 333 906 q 356 907 338 907 l 350 906 q 365 904 350 904 l 394 908 q 401 910 400 908 q 406 911 404 910 q 411 911 407 913 l 449 908 q 444 907 449 907 l 435 906 q 424 903 426 904 l 436 903 q 422 885 422 889 l 424 882 l 446 888 l 446 876 q 444 872 446 874 l 442 869 q 443 868 442 868 l 444 867 l 442 864 q 442 858 439 861 l 444 858 l 444 856 l 447 853 q 449 843 447 839 l 451 840 q 454 838 454 839 q 457 851 447 838 l 460 860 q 458 867 461 863 l 457 874 l 461 872 q 468 872 465 869 l 467 839 l 464 835 l 464 817 l 460 785 q 454 764 457 769 q 456 758 453 763 q 456 753 457 754 l 438 689 q 442 683 438 688 l 442 679 q 438 674 440 676 q 439 665 438 664 q 425 660 428 658 l 428 672 q 431 690 431 681 q 429 694 429 690 m 344 744 q 335 736 335 744 l 342 733 q 344 744 344 736 m 389 906 q 381 903 389 911 l 375 903 q 379 904 375 904 l 389 906 m 340 904 q 333 900 336 900 q 340 904 332 904 m 404 833 q 403 826 403 832 l 404 833 m 397 817 l 393 803 q 401 813 400 803 l 397 817 m 393 653 l 392 646 q 394 647 394 643 l 393 653 m 367 592 q 363 586 363 590 l 360 585 q 358 582 357 585 q 365 576 358 576 l 368 588 l 367 592 m 258 526 l 256 526 q 251 525 253 526 l 249 513 l 251 510 q 265 514 261 510 l 265 524 l 263 525 l 261 531 q 260 533 261 535 l 258 526 m 247 486 q 246 475 247 474 q 247 486 246 488 m 257 474 q 254 469 253 472 q 260 472 257 464 q 260 476 263 475 l 257 474 m 239 467 q 233 464 239 464 q 239 467 233 467 m 228 464 q 219 464 224 467 q 221 461 219 461 q 228 464 225 461 m 161 64 q 150 53 150 67 q 151 46 151 54 l 150 44 q 151 40 150 42 q 153 35 151 35 l 163 43 l 163 50 q 161 64 161 51 m 151 853 q 151 857 147 856 l 153 858 q 153 856 154 857 q 151 853 151 854 m 339 619 l 332 618 q 333 624 332 622 q 335 628 335 625 l 342 628 l 342 613 q 339 611 339 613 l 339 619 m 350 621 l 351 618 q 353 624 354 622 l 353 622 q 351 621 353 621 l 350 621 z "},"8":{"ha":660,"x_min":18,"x_max":643,"o":"m 574 724 q 569 724 572 722 l 567 724 q 558 724 561 726 l 556 722 q 553 721 554 722 q 550 719 553 719 l 546 717 l 535 714 l 524 706 l 521 706 q 515 701 515 706 l 515 699 q 514 697 515 697 l 511 697 l 508 694 q 494 686 503 694 q 493 685 493 686 l 489 681 l 489 675 q 485 671 489 674 q 481 667 482 669 q 479 663 479 665 l 475 658 l 475 654 q 474 650 475 651 q 472 649 474 649 l 469 646 l 465 633 q 479 618 467 628 q 482 617 481 618 l 493 606 l 497 606 q 499 603 499 606 l 499 600 l 501 600 l 501 599 q 519 579 504 594 l 524 575 l 540 547 l 568 471 q 569 468 569 471 l 586 415 l 586 410 q 589 406 589 407 l 590 399 l 593 399 l 593 396 l 597 390 q 601 383 599 386 q 603 381 603 383 l 603 371 l 613 350 l 617 346 q 618 340 618 344 l 624 325 l 624 319 q 625 315 624 317 q 626 314 626 315 l 631 297 q 633 261 633 286 l 635 254 q 633 251 633 253 q 635 250 635 251 q 636 222 635 228 l 643 206 l 643 193 l 640 186 q 638 179 638 182 l 635 172 q 633 167 635 168 l 622 154 q 621 151 621 154 l 621 149 l 613 140 l 608 133 l 606 97 q 601 93 603 97 q 599 86 599 90 l 597 83 q 596 78 597 79 l 588 68 l 585 68 q 583 65 583 68 l 583 63 l 564 46 l 564 43 q 563 40 564 40 l 561 40 q 558 39 558 40 l 556 36 l 550 35 q 546 33 549 33 l 528 33 l 526 35 l 524 33 q 510 33 522 36 l 497 29 q 471 26 485 25 q 454 28 460 26 q 417 38 439 29 l 406 28 q 419 18 406 32 q 421 11 421 15 q 418 1 421 7 l 413 -6 q 407 -7 411 -7 q 394 -10 399 -10 q 383 -6 388 -10 q 382 -3 382 -6 l 374 10 q 365 -1 368 6 l 354 -11 l 347 -12 l 339 -19 l 335 -19 q 306 -25 314 -25 l 289 -25 q 250 -24 257 -25 q 229 -22 233 -24 l 225 -22 q 196 -15 194 -14 q 189 -12 196 -12 q 183 -11 185 -12 l 172 -7 l 171 -4 q 169 -3 171 -3 l 168 -3 q 165 -1 165 -3 l 158 4 l 118 19 l 117 24 q 114 25 117 25 l 108 25 q 99 28 101 25 l 97 29 q 96 31 97 31 l 92 32 l 69 51 q 51 71 57 67 l 50 72 q 47 74 49 74 l 47 76 l 39 89 q 38 92 38 90 q 35 99 35 94 l 29 111 q 26 118 25 117 l 31 136 l 31 144 q 29 147 31 146 l 28 150 l 28 167 l 24 179 l 25 214 q 22 219 22 217 l 24 226 q 22 231 22 228 q 21 235 19 233 l 19 258 q 22 268 19 265 q 18 294 18 285 q 21 306 18 297 q 24 310 24 308 l 35 361 l 44 389 l 47 390 q 49 396 49 392 l 50 401 q 58 421 50 408 q 63 432 60 421 l 64 433 q 65 436 65 435 l 71 447 q 74 456 74 450 l 83 471 q 85 474 85 472 l 94 499 l 101 511 q 103 513 101 513 l 108 519 q 129 544 113 528 l 167 581 l 169 581 q 171 583 171 581 l 172 586 l 175 586 q 178 588 176 586 l 192 601 q 196 606 196 601 q 188 613 194 610 l 176 615 q 172 617 174 615 q 171 618 171 617 l 169 619 q 165 622 165 624 l 153 629 q 146 635 151 629 l 144 639 l 136 643 l 133 658 l 125 667 q 108 676 124 669 l 107 678 q 93 690 106 678 l 89 694 q 85 701 82 699 l 92 718 l 82 735 q 79 757 79 743 q 78 758 78 757 q 79 775 78 771 q 81 778 81 776 q 83 785 81 788 q 106 785 89 786 q 108 786 107 786 l 110 785 q 113 789 113 788 q 111 794 111 790 l 111 796 q 113 801 111 800 l 115 807 l 119 826 l 119 839 q 121 853 119 850 q 122 854 122 853 q 125 861 122 857 q 128 868 128 865 l 128 869 q 129 872 128 871 l 139 886 q 140 888 139 888 l 143 888 q 144 889 144 888 l 144 890 l 165 899 l 176 910 q 186 921 183 919 l 190 922 l 190 925 l 213 942 l 215 942 l 215 944 l 217 944 q 219 946 219 944 l 222 949 q 224 950 222 950 l 226 950 q 228 951 228 950 l 228 953 l 231 953 q 240 960 232 956 l 290 990 l 296 990 l 299 994 l 317 1000 q 331 1004 322 1000 l 346 1008 q 361 1010 357 1008 q 363 1011 361 1011 l 381 1013 q 394 1014 392 1013 l 400 1019 l 404 1019 q 410 1021 408 1019 q 411 1022 410 1022 q 426 1025 415 1022 q 444 1028 438 1028 q 465 1031 456 1031 l 493 1032 q 504 1028 496 1032 l 513 1025 q 524 1021 521 1024 l 531 1015 q 533 1011 535 1013 q 536 1010 535 1010 l 539 1010 l 543 1001 l 546 1000 q 549 999 547 999 l 564 971 l 564 965 q 567 960 565 964 q 568 956 568 958 l 568 953 l 569 953 q 571 951 571 953 q 583 926 575 939 l 586 924 l 586 917 q 588 914 586 914 q 593 897 589 913 q 599 857 599 875 l 599 846 q 597 826 600 844 q 596 814 596 821 l 597 788 q 594 778 597 781 l 592 775 q 589 772 589 774 l 589 769 q 588 767 589 768 l 583 761 q 579 756 582 758 l 574 750 l 575 743 q 576 736 578 740 q 574 724 576 729 m 360 706 l 363 706 q 365 707 364 706 l 379 719 q 382 721 382 719 l 394 733 q 408 744 397 740 l 424 757 l 429 758 l 429 763 l 438 767 q 450 783 449 778 l 457 807 q 463 839 463 824 q 460 858 463 844 l 453 869 q 451 872 451 871 l 451 878 l 442 896 q 439 899 439 896 l 429 903 l 419 919 q 415 925 417 925 q 382 933 407 933 l 381 932 l 379 933 l 335 931 l 324 924 q 313 922 321 922 l 299 919 l 293 917 q 286 913 286 914 l 286 911 l 283 911 q 282 910 282 911 l 282 908 l 279 908 q 275 907 276 908 l 274 903 l 258 896 q 257 893 258 893 l 236 871 l 221 847 l 221 843 l 218 843 l 217 838 q 215 836 217 836 l 214 836 l 214 831 q 213 825 214 826 l 210 822 l 206 803 q 204 788 204 799 q 213 763 204 769 l 213 758 l 218 753 q 229 740 226 740 q 233 738 231 740 l 247 726 q 261 718 256 724 l 272 710 l 325 694 q 338 690 336 693 q 354 699 346 693 l 360 706 m 456 371 q 453 375 456 372 l 450 379 q 443 388 450 388 l 442 394 l 422 418 q 417 429 417 424 l 408 438 l 404 446 q 400 450 404 449 q 396 453 396 451 l 396 456 l 388 467 q 385 468 385 467 l 378 476 q 376 478 376 476 l 375 479 q 374 481 375 481 l 371 481 l 358 492 l 358 494 l 356 494 l 356 499 q 346 508 354 501 l 335 518 l 331 518 l 328 515 l 325 515 l 318 499 l 310 492 q 307 490 307 492 l 294 476 l 283 450 l 278 449 q 272 447 274 449 l 260 433 q 258 429 258 432 l 254 428 l 254 424 l 251 421 q 240 406 256 421 l 240 401 l 238 400 q 231 386 231 383 q 229 381 229 385 l 222 358 q 221 356 222 357 l 219 353 q 218 347 218 351 l 211 315 q 207 265 207 299 l 206 258 q 207 257 207 258 q 210 228 207 231 q 213 201 213 232 q 214 196 214 200 l 215 189 q 231 154 222 168 l 236 147 q 249 143 239 147 l 260 138 q 286 135 271 135 l 321 135 l 325 133 q 343 136 329 133 l 357 139 l 358 138 q 367 142 363 138 l 399 149 q 401 150 401 149 l 406 157 l 408 157 q 410 158 410 157 l 424 168 l 426 168 l 433 176 q 446 194 446 182 l 449 196 q 453 217 449 213 l 453 219 q 457 235 453 226 q 460 250 460 244 l 461 258 q 464 278 461 269 l 465 281 q 472 299 476 303 q 476 292 475 296 q 482 288 479 288 l 485 288 l 492 311 q 490 339 494 308 l 489 351 q 488 358 489 357 q 486 360 486 358 l 486 364 q 485 369 486 368 q 479 381 482 378 l 478 381 q 472 378 475 381 q 465 375 469 372 l 463 367 q 461 363 463 363 l 456 371 m 233 404 q 231 401 231 404 q 232 399 231 400 l 233 404 m 558 385 l 553 385 q 561 371 553 374 l 558 385 m 528 353 q 535 360 532 353 q 535 365 538 363 q 533 369 535 368 q 529 371 533 371 q 528 353 528 369 m 546 346 q 549 350 549 346 l 546 367 q 542 369 544 369 q 540 360 540 365 q 546 346 540 351 m 586 368 q 585 365 585 368 q 586 364 585 364 q 588 361 586 363 l 586 368 m 525 335 q 524 333 524 335 q 525 325 524 325 l 525 335 m 31 292 q 32 290 31 290 q 33 297 33 292 l 32 308 l 36 325 l 35 326 q 33 328 35 328 l 26 303 l 31 297 l 31 292 z "},"9":{"ha":653,"x_min":19,"x_max":636,"o":"m 71 122 l 78 122 q 79 117 78 118 q 82 115 81 117 l 83 114 q 85 111 85 114 l 85 108 l 88 106 q 86 101 86 104 q 89 99 86 99 l 88 99 q 83 101 86 99 l 82 103 q 81 106 82 106 l 78 107 q 76 110 76 108 l 76 113 l 71 122 m 67 129 q 64 136 64 132 q 63 140 63 138 q 67 129 65 138 m 61 149 l 60 150 l 61 149 m 122 876 q 128 886 122 881 l 129 885 q 125 881 129 883 q 122 876 122 878 m 133 882 q 138 892 138 882 l 139 890 l 136 886 q 133 882 133 883 m 144 78 l 142 75 q 139 71 139 72 l 143 69 l 147 65 l 150 67 l 154 63 l 161 60 q 164 54 161 56 l 168 51 q 172 50 169 53 q 175 46 175 47 q 179 56 175 54 q 190 53 188 53 q 193 54 193 53 q 182 63 189 54 l 179 61 q 174 60 176 60 l 169 60 l 174 56 q 160 67 163 60 l 157 69 l 157 74 l 136 89 l 144 78 m 107 151 q 115 139 114 139 q 110 153 114 149 l 110 157 l 108 157 q 107 158 107 157 q 101 163 103 163 l 107 151 m 121 150 q 117 163 121 158 l 115 164 q 107 182 122 171 l 121 150 m 88 181 q 90 174 90 178 l 90 167 q 94 161 89 167 q 97 149 97 153 l 100 147 q 101 140 101 146 q 106 133 101 138 l 107 133 q 118 118 114 118 l 121 124 q 117 125 119 125 q 111 133 119 125 l 110 135 q 111 138 110 136 l 104 149 q 100 160 104 156 q 97 165 97 163 l 92 181 l 88 181 m 94 224 q 100 206 94 211 l 97 222 q 94 224 97 224 m 92 250 q 94 242 92 244 q 92 250 94 247 m 90 301 q 89 290 89 301 q 90 278 89 279 q 93 283 90 283 q 94 281 93 281 l 93 292 q 90 301 93 300 m 144 351 q 143 343 143 350 l 144 321 q 149 319 146 319 l 153 321 q 157 319 156 321 l 157 322 q 153 336 157 331 q 147 350 147 343 q 144 351 147 351 m 422 826 q 419 828 421 826 q 418 829 419 829 l 413 826 q 411 828 411 826 l 411 829 q 408 833 411 831 q 403 847 407 835 l 401 847 l 399 858 l 396 858 l 396 861 l 385 875 q 367 882 379 881 q 340 885 347 885 q 326 883 331 885 l 275 874 l 272 871 l 242 857 l 238 857 q 228 851 233 857 l 217 840 l 213 839 l 213 835 l 210 833 l 203 818 l 196 796 q 190 785 190 792 q 186 763 186 775 q 188 757 186 758 l 186 751 q 188 724 186 725 l 188 721 q 190 714 188 717 q 194 704 190 708 q 200 694 201 690 q 207 688 207 694 l 211 686 q 215 681 214 683 q 219 679 217 679 q 222 678 219 678 l 226 678 l 232 675 q 235 674 233 675 q 257 665 260 665 q 301 656 282 656 q 311 657 310 656 l 322 660 l 325 663 l 331 663 q 336 664 335 663 q 349 668 340 668 l 351 671 q 354 672 353 672 l 371 676 l 385 685 l 388 685 l 401 696 l 411 700 l 415 704 q 421 707 418 707 l 433 714 l 435 740 q 422 826 435 779 m 60 815 q 54 799 60 804 q 64 794 54 804 l 67 792 q 71 790 68 790 l 74 790 q 83 797 76 790 l 86 799 l 86 806 l 89 808 l 89 807 q 88 797 89 801 q 83 768 83 783 l 83 761 q 88 772 85 761 q 89 774 89 772 q 99 804 89 779 q 97 806 99 806 l 96 803 q 93 794 94 794 q 92 797 92 796 l 93 804 q 93 807 96 804 q 90 811 90 810 q 97 817 97 814 l 103 817 q 104 815 104 817 q 108 825 108 821 l 107 826 l 108 829 q 110 833 110 831 l 110 838 l 113 839 q 115 844 113 842 q 118 846 115 846 q 122 850 122 846 l 122 853 q 126 856 122 851 l 128 857 q 129 860 128 860 l 163 896 l 168 897 q 185 917 168 900 q 182 919 185 919 q 193 926 185 925 l 197 935 q 204 938 201 935 l 208 942 l 213 942 q 219 949 217 949 l 225 960 q 286 990 238 961 q 292 997 290 994 q 329 1008 303 997 l 339 1011 l 342 1014 l 347 1014 q 351 1015 350 1014 q 353 1018 351 1018 q 376 1022 365 1022 l 383 1021 l 396 1025 l 419 1029 l 432 1029 q 461 1026 442 1029 l 467 1025 q 472 1024 471 1025 q 474 1022 472 1022 q 483 1019 476 1019 q 506 1010 488 1019 l 549 982 l 557 972 q 563 968 557 971 q 571 958 568 964 q 572 956 572 958 l 575 950 q 578 949 578 950 l 578 944 q 579 942 578 942 l 582 940 l 592 915 q 593 913 592 914 l 608 881 l 613 875 l 613 871 q 614 865 613 867 l 615 858 l 617 858 l 624 815 l 629 765 l 632 760 q 633 750 633 756 q 635 725 633 729 q 636 701 636 721 l 635 696 q 636 693 636 694 q 635 692 635 693 l 633 668 l 631 661 l 628 642 l 629 613 q 628 601 629 603 q 626 597 628 599 l 625 594 q 624 583 624 593 l 622 558 l 624 521 q 622 504 624 508 l 619 496 q 615 476 615 496 l 611 449 l 611 431 q 613 424 611 425 l 610 386 l 603 347 q 601 335 603 338 l 597 313 l 594 307 q 593 301 593 306 l 586 269 q 582 261 582 265 l 581 261 l 581 258 q 578 250 581 256 l 575 242 l 572 240 q 571 238 571 239 l 567 224 l 567 218 q 565 213 567 214 q 564 211 564 213 l 563 208 q 556 194 561 200 q 553 186 553 192 l 544 171 l 544 158 l 540 143 q 539 139 540 140 l 538 136 q 532 100 538 132 q 531 90 532 92 q 529 89 529 90 l 526 78 l 524 75 l 524 71 l 521 71 q 517 60 519 63 l 514 57 q 513 56 513 57 l 513 53 q 508 50 513 54 q 490 33 500 40 l 483 31 l 456 32 q 444 29 453 32 l 429 21 q 426 19 429 19 l 422 19 q 417 18 418 19 l 410 17 q 404 18 408 18 l 399 18 q 394 17 396 18 q 389 15 390 17 l 388 14 q 386 11 388 11 q 381 10 385 10 q 371 11 372 10 q 361 14 364 11 q 354 19 361 13 l 344 28 q 342 26 343 28 l 333 22 l 318 29 q 315 33 315 29 l 313 38 q 311 40 311 39 l 311 42 q 313 46 311 44 q 307 47 311 47 l 294 43 q 290 42 293 42 l 286 43 l 285 39 q 282 35 285 35 l 268 33 q 253 31 256 33 l 235 31 q 240 35 235 35 q 233 39 240 39 l 228 40 q 221 39 222 40 l 221 35 l 210 32 q 196 32 199 29 q 194 33 196 33 l 183 32 q 163 39 190 32 q 161 43 163 42 l 160 46 q 139 57 147 49 l 144 57 q 131 68 142 63 q 119 82 129 72 l 107 93 q 106 96 106 94 l 106 99 l 100 104 q 99 107 99 106 l 97 111 q 93 118 93 115 l 89 126 q 93 128 89 128 l 96 128 q 85 160 96 121 q 83 157 83 160 l 85 151 q 83 149 85 149 q 78 168 78 154 l 71 185 l 65 217 q 63 264 63 231 q 64 251 64 263 q 71 225 65 232 q 72 229 72 225 l 74 233 q 78 226 76 232 l 75 292 q 79 301 75 301 l 81 301 l 82 265 l 83 265 q 86 268 86 265 l 88 274 l 86 276 l 86 325 q 88 328 86 328 l 89 328 q 93 329 92 328 l 93 331 q 94 332 93 332 q 100 340 99 335 q 104 344 101 344 l 107 344 l 126 363 l 133 365 q 136 364 136 365 q 138 361 136 361 q 144 358 140 358 l 147 358 l 147 363 q 156 356 156 363 q 161 357 157 357 q 181 351 169 357 l 181 350 q 179 347 181 349 q 176 340 176 346 q 178 326 176 332 l 182 326 q 185 325 183 326 l 186 324 q 192 304 192 314 l 192 301 q 194 296 192 299 l 200 285 l 203 263 l 207 251 q 215 229 208 236 q 217 224 215 225 q 222 210 217 215 q 224 208 222 208 l 226 207 q 229 200 229 204 l 231 197 q 232 193 231 194 l 236 188 q 238 185 236 185 l 239 183 q 243 176 239 181 l 250 171 l 307 174 l 313 179 q 315 182 313 181 l 318 185 l 318 188 l 321 188 l 322 194 l 324 194 l 328 204 q 338 221 338 214 l 354 271 q 356 275 356 272 l 363 300 q 361 304 361 301 q 365 329 361 311 l 372 360 l 372 372 q 374 385 372 382 l 378 407 q 386 461 381 418 l 393 500 l 392 500 q 382 486 386 500 q 376 464 378 465 l 375 460 q 372 447 372 457 q 367 432 367 438 q 364 440 364 435 l 365 457 q 365 481 369 468 q 371 515 371 503 l 371 519 q 361 517 368 519 l 351 514 q 307 500 313 500 l 299 497 l 299 496 l 246 490 l 224 490 q 217 489 224 492 l 210 488 l 208 490 l 207 488 l 206 490 q 192 492 203 492 l 175 492 l 157 496 q 147 497 149 496 l 139 500 q 131 503 138 501 q 121 506 124 506 q 108 510 117 510 l 103 510 q 96 515 103 511 q 86 521 88 518 l 83 521 q 82 522 82 521 l 76 528 q 75 529 76 529 q 71 531 72 529 l 56 544 q 50 553 51 553 l 31 583 l 31 588 l 28 593 q 26 596 28 594 q 22 611 22 604 l 22 647 q 22 667 25 656 l 21 668 q 19 671 19 669 l 22 683 q 24 686 22 685 q 25 689 25 686 l 25 696 q 26 704 25 703 l 29 715 q 32 735 32 718 q 33 736 33 735 l 33 743 q 36 744 36 743 q 38 753 36 750 q 39 758 39 756 q 43 778 39 761 l 47 785 q 50 794 47 792 l 54 807 q 61 821 56 815 l 63 819 l 60 815 m 269 990 l 269 986 q 264 983 267 983 q 261 982 264 982 l 257 982 q 256 978 257 978 l 240 971 q 238 969 239 971 l 229 963 q 224 960 226 960 q 221 958 221 960 l 210 951 q 207 950 208 950 q 194 944 200 950 q 196 947 194 946 q 210 958 201 953 l 211 960 q 214 961 214 960 q 221 965 217 964 l 222 967 q 229 971 226 971 q 236 975 233 972 q 251 983 243 982 l 269 990 m 143 49 q 147 46 147 47 l 147 44 q 146 46 147 46 l 139 44 q 138 46 139 46 l 136 46 l 136 49 q 132 51 136 51 l 133 54 l 135 53 q 138 51 136 51 l 143 49 m 74 260 q 75 250 75 257 l 75 236 q 74 246 74 239 l 74 260 m 151 328 q 150 326 151 326 l 149 329 q 147 336 147 332 q 150 332 150 336 l 151 328 m 185 340 l 185 338 l 181 338 l 181 340 l 185 340 z "},"\u0000":{"ha":71,"x_min":0,"x_max":0,"o":""}," ":{"ha":385,"x_min":0,"x_max":0,"o":""},"!":{"ha":290,"x_min":49,"x_max":272,"o":"m 256 943 l 256 932 l 254 931 l 254 942 l 256 943 m 186 39 l 186 42 q 181 53 185 46 l 179 54 q 178 57 179 57 l 172 63 q 171 65 172 65 q 172 67 171 67 l 181 61 l 181 58 l 186 51 q 190 44 190 47 l 206 17 l 203 19 l 201 18 q 204 14 201 14 l 207 15 l 219 3 l 219 0 q 231 -12 229 -10 q 232 -14 232 -12 q 228 -22 232 -15 q 226 -25 228 -25 q 233 -61 233 -56 q 231 -78 233 -69 q 222 -79 229 -79 q 200 -69 206 -79 q 190 -65 197 -69 l 181 -62 q 179 -65 179 -62 l 181 -71 l 178 -79 l 176 -79 q 174 -76 174 -79 q 171 -75 172 -75 l 167 -79 l 164 -79 q 156 -75 160 -79 q 154 -78 154 -75 l 156 -86 q 154 -92 154 -89 q 157 -96 154 -93 l 153 -110 l 157 -132 l 156 -137 q 153 -139 154 -139 q 147 -140 149 -139 l 146 -143 l 140 -146 l 133 -146 q 132 -149 133 -149 l 125 -149 l 124 -146 l 117 -144 q 111 -142 114 -144 l 97 -129 l 94 -121 q 83 -104 83 -115 q 82 -100 82 -103 q 81 -97 82 -97 l 79 -97 q 74 -86 81 -97 l 72 -86 q 71 -82 71 -85 l 71 -78 l 67 -74 l 67 -61 l 74 -62 l 72 -50 q 75 -44 72 -47 q 57 3 68 -21 l 54 0 q 49 17 49 1 q 51 15 51 17 l 53 13 l 54 14 q 53 19 54 17 q 50 24 50 22 q 51 26 50 25 l 54 26 q 63 17 53 26 l 61 15 q 58 13 58 15 q 60 4 58 6 l 63 3 l 82 -50 q 89 -62 82 -56 l 90 -61 l 89 -58 q 88 -54 88 -57 q 89 -50 89 -53 q 76 -29 88 -42 q 74 -18 76 -24 l 69 -10 l 68 7 l 65 10 q 68 11 68 10 l 64 18 q 60 29 60 24 l 64 29 l 64 31 q 72 38 64 36 q 76 46 76 40 l 83 43 q 88 44 88 43 l 93 51 q 96 50 94 51 l 96 47 l 99 47 l 108 26 q 111 25 110 26 l 115 21 l 117 14 l 118 14 q 131 -15 125 1 q 132 -18 132 -17 q 135 -29 132 -21 l 147 -47 q 143 -31 150 -49 l 139 -21 l 136 -19 l 133 -8 l 104 44 q 100 54 100 50 l 100 57 l 103 57 q 106 58 106 57 q 108 60 107 60 l 119 58 q 118 63 118 60 l 118 64 q 122 65 122 64 l 128 61 l 143 43 l 140 53 l 129 61 q 136 68 129 68 q 140 67 139 68 l 143 76 q 146 75 144 75 q 154 79 149 75 l 186 39 m 140 39 l 138 44 q 133 50 136 49 l 136 42 q 138 39 136 40 l 139 36 l 140 39 m 147 57 l 154 50 q 144 64 149 63 l 147 57 m 121 57 q 131 39 126 43 l 131 42 q 121 57 131 51 m 92 25 q 100 11 97 14 l 97 22 q 96 28 97 26 l 92 31 l 92 33 l 86 39 q 85 38 85 39 l 92 25 m 133 35 q 142 17 135 19 l 142 19 l 133 35 m 86 18 q 90 15 90 18 l 90 14 q 89 11 90 13 q 86 18 86 14 m 93 6 q 99 -8 94 -4 q 94 3 99 -6 l 93 6 m 154 -3 q 153 -6 153 -4 q 156 -11 153 -8 l 160 -22 q 163 -18 160 -18 l 168 -21 l 168 -17 q 158 -6 168 -7 l 160 -10 q 158 -11 160 -11 l 154 -3 m 118 -12 q 124 -24 122 -22 q 118 -12 119 -12 m 100 -17 q 104 -24 101 -17 l 111 -42 q 114 -46 111 -43 l 117 -49 q 114 -53 114 -51 l 121 -60 l 121 -49 q 111 -32 111 -39 q 106 -17 106 -12 l 101 -15 q 100 -17 100 -15 m 111 -14 q 117 -22 111 -21 q 118 -19 118 -21 q 111 -14 118 -14 m 114 -25 q 121 -37 126 -37 q 122 -33 122 -36 q 114 -25 122 -25 m 124 -43 q 128 -47 124 -44 q 124 -40 128 -42 l 124 -43 m 78 -51 q 79 -56 79 -51 l 79 -57 q 75 -54 76 -54 l 78 -51 m 142 -54 l 144 -61 q 150 -65 144 -65 q 143 -53 150 -53 l 142 -54 m 258 1038 l 258 1007 q 254 981 256 996 q 250 983 251 983 q 246 975 246 979 l 247 964 q 250 933 247 950 q 253 926 250 929 l 257 922 l 256 911 q 254 900 256 903 q 256 896 254 897 q 258 892 258 893 l 257 836 l 260 807 q 258 769 258 801 q 257 757 257 765 q 261 733 257 747 q 265 713 265 719 q 267 699 267 711 l 268 678 l 264 649 l 272 590 q 268 540 268 561 l 267 529 q 265 501 265 525 l 267 482 l 260 374 q 256 336 260 365 l 253 331 l 250 329 l 250 322 l 247 319 q 243 314 243 319 l 243 311 q 246 307 243 310 q 249 304 249 307 l 251 288 q 254 247 254 268 l 256 219 l 254 210 l 256 203 q 254 200 256 201 q 251 160 254 176 l 250 142 q 249 128 250 131 q 247 126 247 128 l 239 110 l 235 110 q 218 114 229 110 l 204 117 q 190 140 196 126 q 186 142 189 142 l 151 140 l 144 142 q 140 143 142 142 l 139 144 q 138 146 139 146 l 132 146 l 132 150 q 131 151 132 151 l 126 153 q 121 150 124 153 l 119 144 l 117 144 l 113 140 q 108 135 108 136 l 108 133 l 94 131 l 82 135 l 81 142 l 76 149 l 74 150 l 71 147 q 68 151 69 151 q 67 150 67 151 q 64 154 64 153 q 65 158 64 157 q 63 161 65 160 l 60 163 l 58 169 q 60 171 60 169 l 57 181 q 56 176 56 181 q 54 179 54 178 l 56 189 q 57 203 56 203 l 60 200 q 61 201 61 200 l 61 206 l 63 206 q 65 204 65 206 l 64 201 l 65 201 q 67 203 67 201 l 69 257 q 72 256 71 257 l 74 276 q 76 271 76 276 l 78 269 q 79 267 79 268 l 79 264 q 81 263 79 263 q 85 269 85 265 l 82 282 l 82 304 l 81 306 q 78 310 78 307 l 79 344 l 76 367 l 75 486 l 72 497 l 72 567 l 71 579 l 74 594 l 72 597 q 75 600 75 597 l 75 604 q 78 606 78 604 l 81 629 q 78 653 81 635 q 74 676 74 672 l 81 711 q 83 719 81 717 l 82 724 q 83 733 83 725 l 85 767 l 83 788 q 85 797 83 796 l 86 800 q 88 804 88 801 q 89 819 89 808 l 88 842 q 89 856 88 853 q 94 889 89 883 q 92 900 94 886 l 96 978 q 97 993 96 989 q 99 994 99 993 l 99 997 l 101 1000 q 106 1001 103 1001 q 113 1006 108 1001 l 117 1008 l 124 1008 l 131 1011 q 140 1014 133 1014 l 151 1019 q 186 1022 154 1022 q 190 1025 189 1025 l 192 1025 q 194 1026 192 1026 q 201 1028 196 1028 l 210 1028 l 219 1031 l 222 1033 l 233 1033 q 244 1035 243 1033 l 258 1038 m 231 963 q 229 949 229 961 q 232 939 229 942 l 232 961 q 231 963 232 963 m 156 957 l 154 940 l 171 936 q 186 931 186 933 l 186 910 q 188 904 186 906 l 193 929 l 190 943 l 190 953 q 188 957 190 957 l 156 957 m 201 926 l 206 926 l 206 929 l 201 929 l 201 926 m 144 897 q 143 903 144 903 l 142 903 l 144 897 m 189 888 q 186 889 189 889 l 186 888 q 171 871 186 886 q 157 854 157 857 q 189 850 157 850 l 188 885 l 189 888 m 186 819 l 171 815 q 156 811 156 813 q 186 808 156 808 q 188 815 188 810 l 189 838 q 186 843 189 840 l 186 819 m 228 826 q 231 828 231 826 l 228 828 l 228 822 q 231 818 228 818 l 232 822 l 228 826 m 150 788 l 144 749 q 139 744 140 744 l 131 761 q 125 724 129 746 l 126 721 q 129 718 126 718 l 131 718 q 138 732 132 732 l 139 728 l 143 729 l 147 725 l 146 721 l 182 721 l 153 724 q 168 729 153 725 l 182 735 l 175 736 q 161 738 165 736 l 153 739 q 151 736 153 738 l 150 733 q 149 739 149 735 l 151 758 l 183 758 q 168 765 183 761 q 153 771 153 769 q 167 779 153 774 q 182 786 182 785 l 150 788 m 232 742 l 231 739 q 236 731 231 731 l 233 768 q 232 767 232 768 l 232 742 m 189 757 q 193 751 189 754 q 194 756 194 753 q 190 764 194 760 l 189 757 m 221 757 q 218 738 218 746 q 219 731 218 732 q 225 738 225 731 l 226 753 q 225 756 226 754 q 221 757 225 757 m 192 746 l 189 718 l 190 718 q 194 722 194 718 q 192 732 194 726 q 194 743 194 740 l 192 746 m 115 369 q 114 365 115 367 q 113 368 114 368 l 113 353 l 114 350 q 115 347 115 349 l 115 346 q 114 340 114 344 l 107 304 q 104 286 107 292 q 103 271 103 282 l 104 268 l 104 250 q 110 242 104 242 q 114 246 113 242 l 115 249 q 121 268 115 267 q 124 267 122 268 l 125 265 q 128 271 125 268 l 128 265 q 129 256 128 256 q 131 250 129 250 q 133 256 131 256 q 135 253 135 254 l 133 246 q 136 243 133 243 l 139 269 q 138 279 139 278 q 139 281 138 281 q 140 283 140 282 q 142 292 142 286 l 142 310 l 135 308 q 136 310 136 308 l 135 315 q 132 328 135 325 q 131 324 131 326 l 131 314 q 129 310 131 311 q 128 313 128 310 l 128 315 q 126 317 128 317 l 125 317 l 126 314 l 122 308 q 115 292 119 296 q 119 372 119 361 l 121 403 q 124 435 124 444 q 121 436 122 435 l 115 369 m 179 329 q 164 317 179 326 q 149 303 149 307 l 146 299 q 143 293 143 296 q 146 288 144 292 q 147 282 147 285 l 146 275 q 178 271 146 271 q 179 274 179 271 l 181 326 q 179 329 181 329 m 204 310 q 206 308 206 310 q 204 307 204 308 q 206 306 206 307 l 204 296 q 207 292 204 292 q 208 297 208 293 l 208 313 q 207 318 208 317 l 204 310 m 192 297 q 193 306 193 297 q 194 307 194 306 l 192 306 l 192 297 m 94 293 q 92 286 96 294 l 88 271 l 93 257 l 93 261 l 96 261 q 97 267 97 263 l 96 290 q 94 293 96 293 m 215 288 q 218 285 215 285 l 219 285 q 217 293 219 293 l 215 288 m 90 249 l 92 249 q 93 251 93 249 q 92 256 93 256 l 90 249 z "},"\"":{"ha":463,"x_min":24,"x_max":429,"o":"m 140 814 q 138 817 138 814 q 139 818 139 817 q 140 814 140 818 m 118 857 q 121 856 121 865 l 121 851 q 119 851 119 850 q 118 857 118 854 m 96 885 l 96 888 q 94 889 96 889 l 93 889 q 96 872 93 875 q 99 885 100 882 l 96 885 m 114 896 q 117 881 110 896 q 114 896 122 881 m 93 897 q 94 897 94 899 q 93 900 94 899 l 93 897 m 375 1022 q 368 1021 376 1018 q 367 1026 368 1026 l 375 1022 m 44 722 q 47 711 49 713 l 46 713 q 43 714 44 714 l 40 724 q 33 763 35 736 l 33 786 q 32 815 33 808 l 31 835 q 28 869 26 868 q 26 919 26 879 l 28 969 q 31 983 28 992 l 31 996 q 28 1014 31 1000 q 24 1032 24 1029 q 28 1040 24 1039 l 33 1042 l 33 1043 q 40 1044 35 1044 l 46 1044 l 65 1050 q 71 1051 67 1051 l 92 1051 q 100 1046 96 1046 l 103 1046 l 104 1043 q 111 1040 108 1043 l 114 1038 q 119 1033 119 1039 l 119 1031 l 124 1029 l 124 1026 l 126 1026 q 129 1017 129 1024 q 135 1018 132 1017 l 139 1019 q 143 1014 139 1017 l 150 1018 l 150 1021 l 153 1024 q 156 1028 156 1025 l 171 1028 q 172 1022 171 1024 q 174 1018 174 1021 l 178 1018 l 178 1010 l 179 1015 q 182 1017 182 1015 q 183 1028 182 1026 q 188 1025 186 1028 q 190 1022 189 1022 q 197 1025 193 1021 l 200 1028 q 201 1028 201 1026 q 208 1006 196 1031 l 213 1003 q 211 999 213 1000 l 211 981 q 200 876 210 904 q 197 872 201 876 l 194 869 l 194 838 q 193 824 194 819 q 197 813 193 819 q 196 790 196 808 l 196 771 q 193 758 196 750 l 186 756 l 182 750 l 175 751 l 171 743 q 165 740 165 743 q 151 739 171 739 q 146 733 147 738 q 138 735 133 733 q 135 732 135 735 l 135 729 q 133 728 135 728 q 126 725 126 728 q 117 724 128 724 l 90 725 q 88 718 94 725 l 85 721 q 79 722 82 724 l 76 719 q 74 717 75 717 q 68 717 69 721 l 68 714 q 64 715 65 714 q 56 715 63 718 l 54 721 q 51 726 53 726 q 44 735 50 735 q 44 722 43 733 m 90 749 q 93 774 94 771 l 94 796 q 101 800 97 796 l 101 818 q 100 819 101 819 l 99 819 q 101 829 101 822 l 100 906 q 94 903 97 906 q 92 903 92 900 q 89 921 92 918 l 86 926 q 82 919 82 926 q 81 903 81 915 l 81 893 q 79 908 79 894 q 74 918 78 918 q 72 914 75 917 l 71 910 q 74 907 71 908 q 75 904 76 907 q 71 897 71 900 q 78 896 82 900 l 74 893 l 75 890 q 71 883 75 883 l 75 874 l 74 872 q 76 868 74 865 q 74 858 79 865 q 71 850 72 850 q 69 844 69 847 l 71 831 q 74 829 72 828 l 76 829 l 82 756 l 88 756 l 88 751 l 90 749 m 140 793 q 140 785 144 781 q 146 786 143 783 q 149 775 146 775 q 150 789 149 794 l 151 788 q 156 786 153 785 l 158 790 q 163 790 161 789 q 164 807 164 785 q 168 808 167 806 l 169 811 l 168 817 q 167 822 165 819 q 172 879 172 835 l 165 885 q 165 892 164 886 q 164 896 167 896 l 164 892 q 161 886 164 886 q 160 899 161 903 q 157 901 157 899 q 151 896 154 904 l 147 892 l 147 885 q 146 881 147 881 q 149 882 149 881 q 151 883 150 885 l 150 881 q 149 875 149 878 l 142 878 q 139 869 133 869 q 136 874 139 874 q 133 867 136 869 q 131 874 131 869 l 129 893 q 125 907 129 907 l 124 903 q 121 899 124 899 q 118 906 121 906 l 118 901 q 115 896 118 896 q 111 904 111 894 l 111 819 q 113 808 110 811 q 114 826 114 813 q 118 829 115 826 q 119 838 119 831 q 121 846 118 843 q 122 814 122 856 l 121 796 q 124 788 121 790 q 125 793 124 793 q 128 819 125 817 l 128 808 q 133 799 133 808 q 135 767 133 768 q 140 793 146 799 m 182 796 l 185 829 l 183 842 l 188 864 l 186 867 l 188 878 l 186 889 q 183 881 186 883 l 181 871 q 182 838 183 844 l 178 818 l 179 807 q 181 796 182 799 l 182 796 m 138 882 q 136 899 142 897 q 136 886 135 894 l 135 883 l 138 882 m 121 867 q 122 865 121 865 q 118 868 118 861 l 121 876 l 121 889 q 124 896 121 899 q 122 876 124 871 l 124 871 l 122 869 q 121 867 121 868 m 315 708 q 310 715 310 708 q 306 713 307 717 l 304 708 q 294 714 293 708 l 290 714 q 286 713 288 711 l 282 721 l 261 722 l 261 726 l 258 729 l 258 736 l 257 736 l 258 739 q 257 740 257 739 l 257 761 q 260 765 257 764 l 261 768 q 263 778 260 771 l 265 786 q 264 806 265 813 l 254 815 q 253 821 254 821 l 256 872 q 257 883 256 881 q 260 926 260 900 l 260 961 q 275 1018 260 1018 l 276 1018 q 281 1022 272 1022 l 288 1022 q 303 1026 297 1028 q 313 1019 303 1019 l 313 1014 q 315 1007 313 1010 l 318 1011 l 328 1006 q 325 1010 329 1006 l 319 1014 q 317 1019 315 1018 q 322 1018 318 1021 q 325 1021 324 1018 l 326 1024 q 329 1018 329 1021 q 333 1017 333 1018 l 338 1018 q 343 1017 340 1019 q 344 1010 344 1015 q 351 1008 343 1008 q 356 1014 356 1008 q 360 1018 356 1018 l 358 1015 q 357 1011 358 1013 q 364 1013 360 1015 q 365 1004 367 1011 q 372 1007 368 1003 l 376 1010 l 378 1008 q 382 1008 381 1011 q 386 1014 386 1008 l 389 1013 q 393 1011 390 1010 q 401 1024 400 1015 q 407 1021 404 1024 l 411 1017 q 415 1028 415 1019 q 417 1022 418 1028 q 418 1017 417 1017 l 421 1018 q 422 1021 422 1019 q 424 1019 424 1021 l 424 1017 l 426 1014 l 426 992 l 425 990 q 424 903 424 983 l 424 829 q 419 806 421 819 l 415 786 q 414 779 415 781 q 404 751 406 761 l 401 749 q 400 743 400 747 l 396 743 q 392 742 393 743 q 390 740 390 742 q 388 739 389 739 l 381 738 q 376 736 378 738 l 374 732 l 365 728 q 354 726 363 731 l 343 722 l 339 717 q 325 714 347 714 l 318 708 l 315 708 m 321 749 l 318 749 l 318 744 l 321 744 l 321 749 m 213 1001 m 25 922 m 25 914 l 25 922 l 25 914 m 26 926 l 25 924 l 26 996 l 28 993 l 26 926 m 428 1008 q 426 1011 426 1010 l 428 1025 l 428 1008 m 428 1008 q 429 997 429 1007 l 425 949 l 428 1008 z "},"#":{"ha":760,"x_min":21,"x_max":742,"o":"m 367 790 q 369 785 369 788 q 371 774 371 783 q 371 751 372 764 q 369 761 369 753 l 367 790 m 250 742 q 260 768 257 763 q 261 765 264 768 l 250 736 q 250 742 249 738 m 347 740 q 351 739 350 742 q 354 736 353 736 l 354 747 q 350 750 353 747 l 349 746 q 347 740 346 743 m 524 682 q 532 713 521 689 q 533 708 536 717 q 532 706 533 707 q 529 701 532 704 q 524 682 529 692 m 499 643 q 500 656 500 643 q 499 643 499 657 m 496 640 l 497 636 l 496 640 m 218 624 q 222 621 222 624 q 228 639 226 625 q 229 640 229 639 q 231 651 229 647 q 233 653 233 651 q 235 661 233 660 q 236 664 236 663 l 244 690 q 246 697 244 696 l 249 704 q 250 708 250 706 l 251 713 q 253 719 251 718 q 263 736 265 732 q 264 739 264 736 l 265 740 q 267 744 267 742 l 276 768 l 276 772 q 278 776 276 775 q 282 781 278 778 l 285 783 q 296 785 300 783 q 324 792 307 793 l 336 794 q 335 772 339 788 q 333 771 333 772 l 332 764 q 331 760 332 761 q 329 757 331 758 l 328 754 q 326 753 326 754 q 325 747 326 747 q 326 746 325 746 q 329 740 332 743 q 332 749 332 740 l 332 757 l 339 778 q 344 796 344 793 q 360 792 350 796 l 360 771 q 354 765 356 769 q 354 776 361 765 q 346 763 347 772 q 342 764 344 764 q 336 746 342 768 l 333 733 q 332 725 333 726 q 331 711 325 718 q 336 728 335 715 l 339 743 q 344 751 339 751 l 343 739 l 340 736 l 340 722 q 344 724 343 721 l 347 724 q 344 721 347 718 q 343 719 343 721 q 346 715 342 717 l 349 714 q 347 704 349 707 l 344 696 l 346 693 q 343 679 342 681 q 347 693 347 682 q 354 703 350 690 q 350 703 354 710 l 350 700 q 353 706 347 703 l 351 708 q 351 714 350 714 l 353 717 q 356 728 353 725 l 350 732 q 357 733 350 736 q 360 738 360 733 q 363 736 361 738 l 365 735 q 368 743 368 738 l 367 706 q 365 697 367 699 q 364 696 364 697 l 360 686 l 361 681 l 358 672 q 360 669 360 671 l 358 663 q 357 657 358 658 q 353 625 353 640 q 357 624 353 622 q 364 624 363 625 l 417 626 l 486 618 q 490 624 490 618 l 497 617 q 499 615 499 617 q 503 625 501 615 l 504 629 l 507 629 l 510 649 l 513 650 l 515 667 q 517 674 515 672 q 519 675 519 674 l 521 679 l 521 672 q 519 664 518 667 q 524 672 524 667 l 533 675 l 543 704 q 544 700 544 704 q 547 701 547 699 l 549 704 l 556 708 q 558 717 558 711 l 560 718 q 561 721 561 719 l 563 725 q 564 731 564 726 l 564 736 l 568 739 l 568 744 l 574 747 q 582 753 579 750 l 586 751 q 592 749 589 749 q 592 743 594 746 q 590 739 590 742 q 597 753 583 739 q 604 744 607 753 l 608 740 q 611 736 613 738 q 632 743 625 738 q 640 738 639 743 l 644 735 q 656 736 660 735 l 657 743 l 658 743 q 665 760 663 760 q 664 747 665 749 l 664 744 q 661 738 661 742 q 660 706 657 725 l 664 690 l 661 682 l 661 656 q 675 650 661 650 q 671 639 675 647 l 667 625 l 665 604 q 696 601 668 601 l 715 601 q 722 597 717 601 q 729 593 729 594 l 739 593 l 736 586 q 742 574 738 585 q 722 572 721 568 q 736 565 722 579 l 735 564 q 733 561 733 563 q 739 558 733 558 l 733 554 l 733 546 q 732 544 732 546 q 733 543 733 544 q 732 542 732 543 q 728 524 732 528 l 732 519 q 729 514 729 517 q 735 511 732 511 q 733 508 736 508 l 732 507 q 729 500 732 503 q 731 490 731 499 q 736 488 733 488 l 728 483 q 729 475 729 481 l 729 467 q 722 464 726 469 l 719 464 q 717 463 718 464 l 707 457 q 713 454 707 454 l 717 454 q 711 451 714 451 l 706 451 l 692 447 q 685 446 690 446 l 681 444 q 617 438 624 444 q 615 421 615 442 q 633 415 619 417 q 679 411 642 414 q 724 407 718 408 q 721 404 724 404 l 717 404 q 711 401 714 404 q 706 397 707 397 q 717 390 708 392 q 718 389 717 389 l 722 388 q 728 386 726 385 q 718 375 728 385 q 728 371 721 371 q 718 368 725 368 q 721 367 718 367 q 724 364 724 367 q 721 360 724 361 l 718 357 l 726 349 q 719 343 726 347 q 718 332 718 344 q 719 322 718 324 q 715 317 721 321 q 718 314 711 314 q 719 313 719 314 l 721 310 l 718 296 q 713 283 714 283 l 715 282 q 717 278 718 281 l 700 269 l 700 265 q 704 261 700 261 l 697 256 q 688 250 690 256 l 686 249 q 685 247 686 247 l 667 242 l 660 238 q 635 236 658 236 q 610 235 611 236 l 607 235 q 585 231 613 240 q 583 225 583 229 l 574 158 q 571 149 572 150 q 569 144 569 149 l 568 138 q 567 125 567 135 l 567 111 q 563 90 567 107 l 557 69 l 539 51 l 531 51 l 521 46 q 507 43 518 43 l 496 46 q 483 43 494 47 l 451 43 q 449 46 451 44 q 446 47 447 47 q 439 51 442 51 l 436 57 q 433 61 438 60 l 426 68 q 429 146 426 115 q 419 149 429 149 q 406 156 417 154 q 403 160 406 160 q 400 194 394 181 q 401 196 401 194 q 403 199 401 199 q 407 201 403 201 l 410 203 q 404 208 413 211 q 406 214 406 210 q 404 215 406 215 q 403 214 403 215 l 404 225 q 406 238 407 235 q 401 239 406 239 l 379 243 l 347 243 l 343 244 q 310 247 321 244 q 308 239 308 247 q 307 232 308 235 l 306 224 q 304 217 304 222 l 303 190 q 301 188 303 189 l 300 186 q 299 174 299 183 l 294 118 l 293 118 q 289 108 293 111 q 285 101 285 106 q 272 89 275 96 l 260 82 l 253 82 l 243 79 l 222 79 q 211 79 214 76 q 210 81 211 81 q 203 82 208 82 l 190 85 l 186 88 q 183 89 185 89 l 169 94 l 167 99 q 161 101 164 101 q 154 103 156 101 l 142 111 l 126 126 q 125 128 126 128 l 121 131 q 119 135 119 132 l 119 139 q 117 143 118 139 l 118 181 q 121 197 118 186 l 131 249 q 126 254 131 250 q 125 267 129 261 q 114 260 114 269 l 113 261 q 108 261 111 265 q 106 265 106 258 q 104 268 106 268 q 94 267 103 267 q 82 268 93 268 l 38 271 q 28 279 35 282 q 24 285 28 285 q 24 306 25 294 l 25 310 l 28 310 q 25 317 28 317 q 29 324 28 324 l 25 328 l 21 353 q 22 354 22 353 l 24 357 q 29 367 25 363 l 29 372 l 31 372 l 36 388 l 68 386 q 83 388 79 386 q 72 389 82 389 l 43 390 q 42 392 43 392 q 35 393 36 392 l 35 401 l 79 401 q 75 404 79 404 q 71 408 69 404 q 86 413 74 411 l 129 419 q 143 421 142 419 l 144 425 l 146 424 q 150 421 149 421 l 154 424 q 164 425 161 426 q 168 431 168 428 q 176 431 172 428 q 181 439 182 433 q 178 438 179 439 q 179 451 179 436 q 172 435 172 449 q 174 451 168 438 q 157 456 174 450 q 154 451 154 453 q 151 454 151 451 l 150 456 q 149 458 149 457 q 126 460 121 458 q 125 464 126 464 q 122 464 124 465 l 117 463 l 117 461 q 110 458 113 461 q 101 464 106 460 l 94 472 l 88 472 l 82 478 q 79 479 79 478 l 79 482 q 78 486 79 485 q 75 490 79 486 l 69 500 q 58 513 68 503 q 46 522 57 519 q 26 546 42 525 q 44 560 26 542 l 49 564 l 58 568 l 60 571 q 63 572 60 572 l 67 572 q 68 574 68 572 l 71 576 q 74 578 72 578 q 79 581 79 579 l 94 589 q 100 592 97 592 q 147 608 115 607 q 149 610 149 608 l 149 611 q 167 610 172 611 l 172 611 q 185 617 185 611 l 192 617 q 196 624 196 617 q 201 633 199 625 l 204 643 q 204 635 213 643 q 203 629 207 633 l 201 628 l 203 621 q 207 619 207 621 q 218 636 217 619 l 232 683 q 235 692 235 686 q 238 700 236 699 q 236 690 239 699 q 232 672 236 685 l 231 667 l 228 667 l 228 661 q 225 649 228 656 q 222 636 222 642 l 221 628 q 222 626 222 628 l 218 624 m 329 700 q 331 703 329 701 q 329 708 331 707 l 329 700 m 278 667 q 274 646 274 654 l 274 639 l 278 649 q 279 660 282 656 q 282 675 288 665 q 286 685 286 679 l 282 685 l 282 688 q 283 690 282 689 l 290 704 q 283 706 285 704 q 271 660 279 681 q 275 663 274 658 l 278 667 m 340 697 q 336 694 339 699 l 333 692 q 331 690 331 692 l 331 685 q 333 683 333 685 l 333 682 l 338 682 q 340 697 340 690 m 343 657 l 344 656 l 344 643 q 346 665 344 669 l 343 657 m 274 635 q 268 622 281 635 q 272 628 272 622 q 274 635 272 633 m 431 447 q 425 446 428 444 l 421 450 q 414 453 417 453 l 369 456 l 338 456 q 331 432 325 451 q 338 431 331 431 l 426 426 q 453 425 451 424 l 453 449 l 431 447 m 221 446 l 218 439 q 213 432 215 433 q 211 439 213 440 l 210 433 q 208 428 207 431 l 221 428 l 221 446 m 94 379 q 89 378 94 378 q 83 374 76 374 l 75 374 q 71 378 71 374 q 82 379 72 379 l 94 379 m 94 283 q 82 278 86 283 q 93 276 78 276 l 94 283 m 94 275 q 78 274 94 274 l 94 275 m 135 261 q 131 253 131 261 l 135 261 m 543 740 q 549 744 543 750 q 550 750 549 749 l 544 751 q 543 744 547 749 q 543 740 540 740 z "},"$":{"ha":738,"x_min":18,"x_max":721,"o":"m 515 446 q 521 446 521 440 q 522 439 522 446 l 522 432 q 524 435 524 432 q 525 432 525 435 l 525 428 q 518 410 532 424 l 517 435 q 515 446 514 443 m 521 410 q 519 389 521 390 q 524 407 524 389 q 526 415 524 418 q 522 413 524 417 l 521 410 m 149 408 q 156 411 158 408 q 149 408 149 411 m 106 396 q 108 393 111 396 q 122 394 119 393 q 124 401 122 400 q 113 403 119 404 q 106 396 107 400 m 160 392 q 175 386 164 386 l 183 385 q 188 389 188 385 q 175 388 186 390 q 175 394 178 390 q 160 392 163 394 m 147 379 q 153 376 153 379 l 153 372 q 158 381 150 372 q 147 379 149 381 m 183 376 q 179 379 182 379 q 175 375 175 378 l 183 376 m 308 367 l 308 364 l 308 367 m 193 356 q 210 363 207 356 q 193 356 197 364 m 647 329 q 650 357 647 346 q 653 356 653 357 q 639 285 644 299 l 638 297 l 639 299 q 640 303 640 300 l 640 308 q 642 311 640 310 l 643 313 l 643 322 q 646 326 643 324 l 647 329 m 636 322 q 640 328 640 322 q 638 333 640 333 q 636 322 638 322 m 117 319 l 115 322 q 113 324 115 324 l 117 319 m 619 299 q 624 317 633 310 q 619 299 624 294 m 635 207 m 246 194 q 242 207 250 210 l 246 194 m 253 190 l 251 201 l 253 190 m 199 192 q 200 194 201 192 l 196 194 q 197 190 196 190 l 199 192 m 247 171 l 249 171 l 249 188 q 247 183 249 183 l 243 185 l 244 182 q 247 176 244 179 l 247 171 m 219 174 q 222 169 231 174 l 229 169 q 222 182 229 179 q 221 176 222 179 l 219 174 m 304 158 q 301 160 303 158 l 301 161 l 304 158 m 301 99 l 301 101 l 299 101 l 299 99 l 301 99 m 431 46 q 421 44 431 43 q 410 43 418 46 l 401 42 q 388 40 389 42 l 429 38 l 432 40 l 433 39 l 443 40 q 438 44 443 43 q 431 46 431 44 m 431 28 q 440 31 438 26 l 436 31 q 431 28 432 31 m 267 -54 l 264 -54 q 265 -50 265 -53 l 265 -46 q 268 -50 269 -49 l 267 -54 m 218 -86 q 217 -78 217 -86 q 218 -86 218 -79 m 232 -111 q 228 -104 229 -110 q 231 -96 228 -99 l 232 -97 q 238 -100 233 -99 q 239 -101 239 -100 l 242 -103 q 232 -111 232 -112 m 228 -143 q 229 -146 225 -146 l 228 -143 m 242 149 q 246 161 246 149 q 247 158 247 163 l 246 151 q 250 144 246 150 q 254 138 254 140 q 260 139 257 136 l 264 140 q 268 136 264 136 l 285 136 q 282 142 285 144 q 286 142 285 144 q 294 139 292 142 q 296 146 296 139 q 308 133 303 144 l 311 135 q 314 139 314 136 q 318 136 318 139 q 319 149 321 139 l 318 146 q 314 143 317 142 q 311 147 314 150 q 313 151 310 150 l 314 153 q 314 157 310 157 q 313 158 314 158 l 311 158 q 313 169 313 154 q 308 158 319 169 q 307 165 301 165 l 310 197 q 308 199 308 197 q 304 206 308 204 q 301 196 301 203 q 299 200 300 194 q 296 206 296 200 q 299 210 296 210 q 297 219 294 222 q 300 235 301 233 q 294 225 300 242 l 290 214 q 286 215 289 215 q 288 201 286 204 q 285 199 286 203 q 285 194 283 196 l 285 186 q 283 185 283 186 l 283 178 l 278 200 l 275 194 q 272 188 274 189 q 269 196 269 185 l 269 207 q 274 253 274 228 q 271 253 271 256 l 269 292 q 268 289 268 292 l 264 283 q 263 276 263 282 l 260 253 l 260 236 q 254 214 258 235 q 254 229 250 218 l 254 236 q 256 249 254 244 q 258 260 256 246 q 261 282 258 254 q 265 315 261 294 l 265 321 q 267 331 265 328 q 268 333 267 332 l 269 336 q 271 346 271 339 l 274 368 q 275 375 274 374 l 278 393 l 282 407 q 286 439 282 419 q 288 463 288 443 l 289 479 q 292 503 289 486 l 299 528 l 304 568 l 304 581 q 290 586 300 585 l 276 589 q 267 590 269 589 l 260 593 q 253 594 254 593 q 240 600 242 599 q 232 604 235 604 l 231 604 q 228 606 228 604 l 225 608 l 219 608 l 214 614 l 200 619 q 194 621 196 619 l 179 631 l 176 631 l 176 632 q 167 636 172 636 l 157 643 q 147 650 153 644 q 133 664 135 660 l 125 675 q 124 678 125 678 l 119 683 q 118 686 119 686 q 115 692 115 689 l 107 708 q 106 713 106 710 l 97 753 q 96 763 97 760 l 94 768 q 94 806 93 789 q 107 856 97 829 l 110 867 l 122 888 q 125 889 122 889 l 128 896 q 129 899 128 899 l 131 899 q 132 900 132 899 l 151 922 l 151 925 q 153 926 151 926 l 156 926 q 157 929 153 929 q 158 932 158 931 q 169 946 158 935 q 174 947 172 946 l 181 953 q 189 960 188 960 l 192 960 q 201 968 199 967 q 211 976 210 976 l 219 979 l 224 983 l 236 988 q 263 996 256 996 l 285 994 l 306 997 l 310 996 q 331 997 319 999 q 342 997 339 996 l 375 996 q 394 997 394 996 l 408 1038 q 408 1028 418 1038 q 415 1044 415 1031 l 414 1042 q 413 1039 413 1040 q 410 1043 410 1039 l 421 1092 l 429 1119 l 440 1122 q 450 1125 443 1125 l 458 1125 q 468 1113 460 1121 l 468 1088 l 472 1086 q 475 1085 475 1086 q 474 1064 474 1090 l 476 1057 l 475 1021 l 472 1008 q 469 996 472 1004 l 485 990 q 504 988 493 988 q 517 986 514 988 q 518 985 517 985 l 586 974 q 599 971 589 971 q 600 968 599 968 q 608 967 607 968 l 626 961 q 633 957 629 958 q 638 956 636 957 l 642 953 q 654 942 646 950 q 665 938 661 942 l 667 936 q 676 928 668 936 q 700 906 697 907 l 714 906 q 715 896 714 897 l 717 896 q 718 893 718 894 l 721 867 l 707 849 l 681 838 l 643 835 l 642 836 q 632 838 640 838 l 622 838 q 621 840 622 842 l 613 842 q 596 849 606 842 l 585 858 q 581 864 581 863 q 576 865 579 865 l 574 867 q 563 879 564 876 l 553 890 q 550 892 553 892 l 549 896 q 547 897 549 897 l 546 899 q 543 900 543 899 l 540 903 q 529 914 532 907 q 525 915 528 913 l 511 929 l 483 940 q 475 942 478 943 l 474 940 q 472 938 474 938 l 474 857 q 474 849 472 853 l 474 833 l 469 804 q 468 797 469 800 q 454 724 468 790 l 524 715 q 525 714 524 714 l 539 710 q 568 693 567 696 l 572 689 q 593 669 576 686 l 600 663 l 601 657 l 615 644 l 649 600 q 654 593 654 596 l 660 581 l 664 579 q 665 574 665 578 l 665 568 l 668 568 l 668 565 q 676 546 672 563 q 678 538 676 539 l 681 535 l 682 526 q 683 514 683 524 q 686 507 683 511 l 690 456 l 689 426 l 685 401 q 681 378 681 393 l 678 344 q 672 306 676 326 q 671 296 672 299 l 669 288 q 668 276 669 281 q 665 258 665 263 q 663 247 665 256 l 656 224 q 654 217 654 222 l 654 210 q 653 208 653 210 l 650 200 l 647 200 q 646 194 646 199 l 643 188 q 640 178 640 185 l 638 175 l 635 161 q 632 151 632 161 q 631 147 632 149 q 629 142 631 140 q 628 139 628 140 l 622 126 q 618 118 619 119 l 614 113 q 613 111 613 113 l 610 110 l 604 100 q 603 99 604 99 l 600 96 l 599 83 l 586 69 l 561 47 l 558 47 q 557 44 557 46 l 557 47 q 554 43 554 47 l 546 43 q 549 42 546 42 q 543 42 546 39 l 538 39 l 533 33 l 524 28 l 522 24 l 514 21 q 503 17 507 21 q 499 18 501 15 q 497 19 499 19 q 474 18 496 18 q 476 21 471 21 l 478 22 q 467 31 467 33 l 479 33 q 472 38 479 40 l 463 33 q 464 29 463 29 q 460 28 464 28 l 454 28 l 453 25 l 451 28 l 449 26 q 443 25 446 24 q 451 29 446 28 q 453 31 451 32 l 456 28 q 458 29 457 28 q 460 32 456 32 l 460 36 l 456 39 l 456 42 q 446 39 446 42 q 447 42 450 39 q 447 47 444 44 q 443 49 447 49 q 442 50 442 49 l 439 54 l 433 54 q 428 56 428 54 q 425 56 425 53 q 422 49 422 56 q 414 58 414 51 l 417 60 q 421 61 418 63 q 422 61 422 60 l 424 64 q 425 63 425 64 l 425 60 q 422 64 422 60 q 417 68 419 67 q 403 68 407 67 q 411 71 403 71 l 403 79 q 414 82 404 85 q 413 92 413 81 q 414 93 414 92 q 413 94 414 94 l 417 101 l 419 101 q 424 106 425 101 l 417 106 l 415 104 q 413 103 413 104 l 397 103 q 400 111 406 111 q 411 114 403 114 q 417 121 417 119 q 425 124 419 119 l 429 126 q 426 128 429 128 l 424 129 l 418 125 l 413 125 l 413 124 q 411 121 413 121 l 404 118 q 397 114 397 115 l 389 114 l 379 108 q 381 113 375 113 q 378 121 381 124 q 365 122 382 122 q 358 100 353 122 q 361 99 360 100 q 363 97 363 99 q 363 96 364 97 q 360 94 361 94 q 365 93 360 93 q 361 92 365 92 q 357 89 354 92 q 358 85 356 86 l 360 83 q 365 78 360 79 q 361 76 365 76 l 357 75 l 358 67 q 365 60 361 60 l 364 58 q 363 57 363 58 q 367 53 363 56 q 369 54 368 53 q 369 51 372 54 q 368 47 368 50 l 371 47 q 371 42 372 42 q 372 40 371 40 q 374 42 374 40 l 374 33 l 378 33 l 381 31 l 393 32 l 400 29 q 411 29 406 28 q 414 28 414 32 l 415 24 l 428 22 q 435 22 429 21 q 442 19 438 19 q 453 22 449 24 l 449 18 l 447 19 l 447 17 q 446 14 447 15 q 439 17 443 17 l 439 15 q 435 13 439 8 q 411 8 429 18 l 407 8 q 403 10 403 8 q 397 6 400 10 l 394 7 l 382 7 l 381 4 q 378 1 381 1 l 368 6 q 365 -6 365 3 l 365 -18 q 367 -67 367 -25 l 367 -87 q 365 -100 367 -97 q 364 -111 365 -110 q 363 -112 363 -111 l 357 -129 l 353 -135 l 353 -143 l 342 -161 q 340 -164 342 -164 q 333 -168 338 -171 q 331 -161 336 -164 q 325 -156 325 -158 q 317 -165 314 -158 l 315 -164 q 311 -161 313 -161 q 303 -168 307 -161 l 303 -171 l 297 -178 l 297 -183 q 296 -176 296 -182 l 294 -172 q 289 -176 292 -171 q 285 -182 286 -182 q 283 -178 283 -181 l 283 -174 q 282 -172 283 -172 l 281 -172 l 282 -169 q 281 -165 282 -167 l 279 -164 q 278 -160 276 -161 q 276 -165 276 -160 q 274 -151 283 -165 q 272 -144 272 -150 l 269 -146 l 268 -143 q 261 -140 264 -143 q 260 -124 261 -125 l 258 -124 q 253 -122 254 -124 l 253 -111 l 256 -115 l 258 -111 q 256 -110 258 -110 l 253 -108 q 250 -117 250 -111 q 247 -121 251 -117 l 247 -122 q 246 -110 246 -121 q 247 -92 246 -96 l 250 -58 l 254 -58 l 254 -56 q 256 -53 254 -53 q 260 -50 256 -50 q 258 -56 258 -51 l 258 -62 l 261 -60 q 265 -61 263 -61 q 271 -58 271 -61 q 268 -57 269 -58 l 269 -51 q 271 -46 269 -46 l 268 -39 q 261 -43 260 -39 q 253 -37 258 -40 q 254 -7 254 -47 q 247 -10 247 -7 q 246 -6 246 -10 q 243 -4 246 -1 l 243 7 l 242 4 q 238 1 240 0 l 235 -11 l 226 -11 q 222 -32 218 -36 q 225 -36 225 -35 l 224 -42 q 221 -47 222 -46 l 221 -53 l 219 -47 q 226 36 219 -54 q 221 44 226 43 l 218 53 l 211 56 l 211 51 q 208 44 211 47 q 203 49 206 44 q 196 51 199 51 q 188 68 196 60 l 178 63 q 164 76 174 64 l 151 79 q 147 88 151 86 l 146 92 q 140 96 146 96 l 140 99 l 138 100 l 138 104 l 131 111 l 128 118 q 126 122 126 119 q 125 131 126 128 l 124 133 q 122 149 124 149 l 118 153 q 117 154 117 153 l 114 163 q 113 165 114 164 q 111 167 113 167 l 108 169 l 108 172 l 106 174 q 104 176 104 175 q 101 185 104 179 q 97 193 99 192 l 90 200 q 86 206 86 204 l 85 204 q 81 201 83 201 q 82 207 78 204 l 79 210 q 78 215 76 213 q 68 219 72 215 q 57 236 64 224 q 56 238 57 238 l 53 240 q 51 243 51 242 l 51 247 q 50 249 51 249 l 49 251 q 42 265 53 249 q 32 281 40 271 q 22 297 25 290 q 18 306 18 301 q 26 319 18 314 q 25 350 26 357 l 31 371 q 40 375 28 371 l 43 378 l 42 383 q 50 394 46 383 q 57 393 53 396 l 63 392 q 63 400 71 392 q 60 401 63 401 q 56 407 56 403 q 51 406 51 407 q 53 413 50 407 q 58 418 56 417 l 67 417 q 75 415 68 415 q 72 411 75 413 l 68 408 q 74 396 74 399 l 81 378 q 82 375 82 378 l 82 371 l 88 360 q 89 358 86 358 q 90 347 89 351 l 92 343 q 99 332 92 335 q 100 319 100 333 q 94 332 99 321 l 92 333 l 90 339 q 89 343 90 342 q 92 331 88 342 q 96 324 93 331 l 99 317 q 104 319 103 321 l 106 315 q 113 314 111 315 q 115 304 113 307 l 117 299 q 122 297 118 297 q 121 304 128 297 q 124 304 121 307 l 126 303 q 128 301 126 301 q 125 297 125 304 q 133 283 133 285 q 139 292 135 283 l 142 288 q 146 285 143 283 l 146 274 q 149 272 146 272 l 151 272 l 154 267 q 156 269 156 267 q 154 271 156 271 q 160 268 156 272 q 165 265 163 265 l 163 272 q 161 279 160 276 q 165 278 165 282 q 165 274 164 276 l 176 264 l 176 261 l 179 261 q 182 260 182 261 q 181 244 181 264 l 178 249 q 174 251 176 251 q 175 247 172 249 l 176 243 q 171 240 179 240 l 171 232 q 174 231 171 228 q 175 228 179 236 l 169 226 q 168 228 168 226 l 168 231 l 164 232 q 158 236 164 236 q 157 232 156 233 q 158 228 158 231 l 165 225 l 165 218 q 176 217 167 219 l 176 215 q 176 213 178 214 l 175 211 q 179 204 175 210 q 182 196 182 199 q 185 192 182 194 l 188 189 q 190 182 192 181 q 196 186 194 186 l 197 186 q 204 178 206 182 q 208 176 207 178 l 213 175 l 215 171 q 221 167 218 167 q 224 160 221 164 l 225 154 q 231 156 228 153 l 233 157 l 242 149 m 67 396 q 72 396 68 397 q 74 390 76 393 q 69 393 71 390 l 67 396 m 411 1007 q 410 1004 411 1006 q 413 999 411 999 q 414 1004 414 999 l 415 1013 l 418 1013 l 418 1015 q 419 1024 418 1025 q 415 1025 419 1025 l 411 1007 m 326 964 q 315 958 314 960 q 326 964 328 958 m 511 946 q 500 951 508 949 l 486 957 q 474 960 483 960 l 472 961 l 471 960 l 471 951 l 497 944 q 511 946 510 944 m 350 863 q 342 851 347 857 l 339 847 q 338 844 339 844 q 328 824 335 842 l 326 821 q 325 813 325 819 l 319 763 l 321 761 q 324 735 324 747 q 332 721 328 718 q 338 738 338 726 q 349 793 343 756 l 354 844 l 354 863 l 350 863 m 399 808 q 394 803 396 808 q 396 797 393 799 l 397 803 q 399 808 400 806 m 396 815 q 394 819 396 819 l 389 804 l 394 803 l 396 815 m 376 761 q 378 760 378 761 q 375 742 378 747 q 374 738 375 739 l 371 732 l 371 742 q 367 743 367 740 q 363 746 364 746 q 354 735 367 747 q 350 732 353 735 l 351 753 q 349 761 354 761 q 344 754 344 757 q 343 749 343 753 l 339 724 l 363 724 q 367 721 364 724 q 374 719 369 718 l 372 714 q 389 714 381 708 l 396 714 l 396 715 q 397 718 396 718 l 390 717 l 389 718 l 379 718 q 383 719 379 719 l 389 719 q 388 725 390 722 l 386 729 l 399 729 l 399 738 q 393 742 393 738 l 394 746 q 396 751 397 749 q 393 753 396 753 q 390 757 390 753 l 392 781 q 392 790 396 790 q 390 783 392 786 l 386 768 l 381 763 q 378 761 379 761 l 376 761 m 350 774 m 396 724 l 396 719 l 390 719 l 390 724 l 396 724 m 364 144 q 367 144 364 142 q 401 174 397 168 l 413 188 l 421 193 l 422 199 l 436 221 l 447 235 l 449 239 q 450 242 449 240 q 451 244 450 243 l 460 257 q 467 271 463 261 l 472 285 q 478 297 474 293 l 478 300 q 482 311 478 307 l 497 368 l 501 390 q 503 414 503 393 l 506 429 l 501 453 q 500 454 501 454 q 499 463 499 456 l 490 496 l 481 521 l 468 540 l 457 563 l 453 564 q 439 579 442 579 q 436 581 439 581 q 431 567 433 578 l 429 556 q 426 533 429 536 l 426 529 q 421 506 426 515 l 414 472 q 411 453 411 457 l 408 433 q 404 421 404 429 l 397 399 q 396 392 396 397 l 396 383 q 392 368 392 371 l 389 319 l 390 292 l 385 215 q 383 210 385 211 l 381 207 q 374 181 379 197 q 364 144 367 160 m 636 536 q 638 531 636 532 l 643 517 q 651 504 647 504 q 650 511 651 510 l 649 517 q 647 522 649 521 l 643 524 l 642 528 q 640 536 642 536 l 636 536 m 568 301 q 572 322 576 326 l 576 328 q 582 322 581 326 q 583 324 582 324 l 586 324 l 589 333 q 589 347 593 347 q 585 343 586 350 q 581 336 582 336 q 583 385 581 363 l 578 385 q 583 408 583 417 l 583 411 l 586 413 q 588 415 589 415 q 586 425 586 417 l 586 435 q 585 440 586 438 l 583 446 l 586 449 l 585 451 q 583 456 583 453 q 581 463 583 465 l 581 457 q 581 450 583 453 q 579 444 581 446 q 576 442 579 442 l 576 456 q 575 460 576 458 l 572 463 q 571 468 571 464 l 567 500 q 564 504 564 497 q 563 507 564 507 q 564 486 560 492 q 563 476 563 485 q 561 467 563 465 l 564 465 q 563 464 563 465 q 564 463 564 464 q 560 456 564 460 l 560 440 l 558 439 q 556 419 558 419 l 553 403 l 550 401 q 546 400 549 399 q 543 381 546 394 q 549 379 549 375 l 549 368 l 544 351 l 544 324 l 543 321 q 542 318 542 319 q 543 314 546 314 l 544 313 l 542 300 q 550 297 547 303 q 551 300 551 297 l 553 303 q 556 297 553 294 q 560 308 556 307 q 564 297 560 297 q 567 307 564 304 l 568 301 m 575 499 q 578 488 578 496 l 579 488 q 585 478 588 479 l 585 486 q 585 494 586 493 q 583 497 585 496 l 581 500 q 576 504 579 504 l 575 499 m 511 393 q 510 382 514 390 q 511 393 515 381 m 506 378 q 507 381 506 379 l 508 381 l 508 386 q 508 394 510 388 q 511 400 508 400 q 515 397 511 397 q 517 403 515 403 q 515 394 515 401 l 515 383 q 515 361 511 363 q 521 381 517 376 l 521 369 q 524 382 521 374 q 528 396 525 393 l 531 418 l 531 433 q 531 447 529 438 q 529 457 531 456 q 526 454 529 454 l 524 476 q 522 479 524 478 l 521 482 q 519 486 521 486 q 519 479 517 483 l 521 474 q 519 463 521 464 q 515 475 519 475 l 515 458 q 511 465 511 461 q 508 450 515 447 l 508 392 q 506 378 508 374 m 664 264 q 665 272 665 265 l 667 296 l 669 300 l 672 319 l 672 335 q 674 349 672 347 q 674 363 675 354 l 672 369 l 675 376 q 674 407 675 397 q 671 410 671 407 l 671 413 l 669 407 l 665 404 l 665 397 q 664 390 665 392 l 663 389 q 658 388 661 386 q 654 368 661 379 l 653 364 q 651 360 653 360 q 653 376 653 356 l 651 378 q 651 397 647 399 l 643 354 q 640 347 643 350 q 643 388 640 357 l 639 392 l 635 404 q 633 372 636 396 l 632 360 q 629 354 632 351 q 629 363 626 358 l 631 371 q 629 382 629 367 l 631 406 q 631 414 633 413 q 632 425 629 417 l 633 442 l 632 443 q 631 440 631 443 q 629 407 629 433 q 625 404 628 407 q 624 390 626 400 l 621 376 l 617 376 l 617 368 q 615 367 615 368 l 617 356 l 618 358 q 621 360 618 363 q 614 328 621 335 q 615 308 615 333 q 610 297 614 301 l 607 289 q 610 285 610 288 q 611 283 610 283 l 610 279 q 610 275 608 279 q 610 271 613 272 l 606 258 q 607 257 607 258 q 604 253 604 254 q 603 250 603 251 l 603 243 l 600 240 l 600 228 q 596 224 599 228 q 590 219 593 219 q 592 214 590 215 q 581 206 585 207 q 578 196 582 203 q 582 199 579 196 q 588 200 586 203 q 586 197 586 200 l 586 193 l 583 190 q 581 188 582 188 l 581 165 q 592 185 582 174 l 592 192 q 593 199 592 196 q 599 204 594 199 q 603 210 600 210 q 604 217 601 213 l 606 224 q 611 225 611 224 q 614 239 611 242 l 610 235 l 607 236 q 608 238 607 238 l 611 239 l 610 240 q 610 246 608 244 q 617 253 617 249 l 611 253 q 614 257 614 253 q 615 264 615 258 l 615 274 l 618 276 l 618 283 q 622 285 621 286 q 624 286 624 283 q 625 289 625 286 l 628 301 q 629 308 629 303 l 631 314 q 635 329 631 325 q 629 294 635 322 q 626 269 629 278 l 624 257 q 621 244 628 249 q 624 242 626 244 l 624 238 q 628 239 626 236 l 629 242 l 628 247 q 628 250 625 250 q 633 249 628 249 q 638 274 638 260 q 643 292 639 274 l 647 294 q 649 299 649 296 l 650 306 q 653 318 650 315 q 642 254 646 264 q 647 249 647 253 l 640 239 l 638 229 l 633 225 q 629 210 629 221 l 628 210 l 626 203 l 625 203 l 624 199 q 618 190 621 193 q 615 189 618 189 l 613 189 l 615 190 q 617 194 618 192 q 613 197 613 194 q 615 204 613 201 q 613 207 613 204 q 614 213 615 207 l 617 214 l 610 215 l 611 210 l 606 207 l 607 206 q 607 200 613 211 q 601 197 604 200 l 599 193 q 596 185 600 190 l 593 178 q 597 176 594 176 l 604 169 q 606 174 604 174 l 607 174 q 606 168 607 171 l 607 164 q 610 168 607 167 l 618 176 q 624 182 622 182 q 626 178 624 175 q 642 222 636 194 q 649 222 646 219 q 650 231 649 232 q 646 232 646 231 q 647 242 647 235 l 649 250 q 651 251 651 250 l 656 278 l 658 278 q 656 263 656 267 q 658 256 656 258 q 654 244 658 240 l 664 264 m 636 196 q 640 193 639 196 q 638 189 642 190 l 638 181 q 628 174 633 172 q 632 185 628 176 q 636 196 636 193 m 304 325 l 307 324 q 308 319 310 322 q 304 294 301 292 l 304 292 q 301 288 303 288 l 299 290 q 293 268 303 297 q 299 267 294 265 q 304 265 304 267 q 301 264 301 265 l 304 265 l 308 272 q 313 275 311 275 q 314 268 311 271 q 319 268 315 269 l 319 278 q 321 286 319 285 l 324 293 q 322 300 321 296 l 325 304 q 321 299 322 304 q 319 293 319 297 l 317 282 l 315 286 l 318 290 q 317 293 321 297 q 313 304 317 303 l 311 297 q 313 304 310 299 l 313 318 l 318 322 q 324 332 319 331 l 324 346 q 326 347 325 346 l 328 349 l 325 313 q 331 332 329 321 q 331 340 333 335 l 331 344 q 335 361 335 349 l 335 368 q 333 372 332 369 l 335 379 q 332 383 335 383 l 329 374 q 328 371 329 371 q 329 385 329 365 q 325 382 328 385 l 328 421 q 325 425 328 425 l 325 422 q 324 419 325 419 l 321 418 q 319 417 319 418 q 318 408 317 410 l 318 406 q 317 401 318 403 q 313 397 313 400 l 313 392 l 311 392 l 310 388 q 308 383 310 383 l 308 407 q 301 394 308 399 q 294 397 304 397 q 293 401 294 401 l 286 379 q 282 365 285 368 q 281 368 282 368 l 272 340 l 276 335 q 283 335 283 328 l 283 313 q 282 310 282 311 q 288 306 282 306 q 290 308 288 308 l 290 313 q 292 318 290 317 l 294 321 l 300 342 q 301 350 301 343 q 306 351 304 347 l 306 354 q 307 356 306 356 q 306 338 308 353 q 307 326 306 325 q 304 331 308 328 l 304 325 m 289 419 q 288 399 288 419 q 289 419 289 399 m 329 400 q 329 388 336 394 l 329 400 m 619 397 q 621 394 621 399 q 619 397 619 394 m 618 388 q 621 381 621 388 q 617 378 618 376 q 618 388 617 392 m 67 382 q 69 360 69 385 l 76 354 q 78 351 78 353 l 79 349 q 85 344 82 344 l 85 354 l 81 358 q 75 374 79 369 q 74 382 74 374 l 72 383 q 69 382 71 383 q 63 383 63 385 l 67 382 m 368 374 q 365 363 368 365 q 364 354 363 356 l 361 346 l 361 338 q 360 331 361 332 l 354 318 q 358 303 354 306 q 367 326 360 304 l 368 351 q 368 374 372 374 m 339 369 l 342 371 l 339 363 l 339 369 m 338 353 q 339 351 338 351 q 338 361 349 361 l 338 353 m 519 346 l 511 346 l 511 339 q 515 340 514 338 l 518 343 q 519 332 518 332 q 528 343 526 343 q 528 350 525 346 q 524 351 524 350 q 525 356 526 353 q 522 360 524 360 l 519 346 m 338 328 q 335 313 333 314 q 332 325 332 315 q 338 350 333 326 l 338 328 m 515 335 q 514 325 515 321 q 511 326 513 325 q 508 328 511 329 q 515 335 508 332 m 517 326 q 515 313 514 314 q 510 296 511 308 q 508 294 508 296 q 504 283 508 300 l 500 278 l 500 271 q 494 268 494 271 q 493 267 494 267 l 486 256 l 482 256 q 483 242 483 258 q 483 238 479 238 q 486 239 483 239 q 486 236 483 236 l 489 236 q 490 235 490 236 q 489 221 479 231 q 496 236 492 224 q 503 250 500 249 q 506 264 503 261 l 508 274 q 508 279 510 279 q 506 278 507 279 l 510 288 l 510 294 q 514 296 514 294 l 517 307 q 518 314 518 308 l 519 318 q 517 322 518 322 l 517 326 m 329 290 l 328 294 l 329 290 m 576 278 q 569 263 583 276 l 569 274 q 576 278 574 275 m 289 276 q 290 265 290 276 q 289 276 288 267 m 524 236 q 540 253 535 240 q 544 244 546 251 l 540 235 l 542 235 l 542 229 l 522 204 q 519 207 519 204 l 519 211 q 517 214 519 214 l 515 213 q 511 213 514 211 l 511 215 q 513 229 506 222 q 519 244 513 235 q 526 256 526 254 l 528 253 l 524 236 m 560 228 l 558 226 q 557 225 557 226 l 553 210 q 550 204 553 206 l 546 215 q 538 204 544 215 q 536 208 535 207 q 538 214 538 211 q 542 215 539 215 q 546 224 542 218 q 550 231 550 229 q 560 236 558 231 l 560 228 m 624 224 q 615 222 618 221 l 619 225 q 622 229 622 226 l 624 224 m 147 226 q 150 228 147 229 q 153 222 154 225 q 149 224 150 221 l 147 226 m 646 210 q 647 208 649 210 q 646 203 646 206 q 639 201 644 201 q 638 199 639 199 q 640 207 638 201 q 646 210 646 207 m 518 200 q 524 197 524 201 q 521 189 524 192 q 518 200 518 192 m 578 193 q 579 190 581 193 q 574 188 576 186 q 578 193 574 189 m 183 181 q 185 179 185 181 l 188 167 q 182 178 185 167 q 174 192 175 185 l 183 181 m 464 182 q 467 183 465 185 q 467 179 469 179 q 464 182 464 179 m 192 171 q 197 160 193 169 l 193 164 l 194 165 l 192 171 m 315 169 q 319 164 319 168 q 315 158 318 160 l 315 169 m 319 167 q 322 164 325 167 q 321 158 321 161 q 319 163 319 158 l 319 167 m 188 165 q 192 164 189 167 q 193 163 192 163 q 190 161 193 160 q 188 165 186 163 m 431 149 q 426 144 431 147 l 422 143 q 421 132 417 138 q 424 135 421 135 q 426 139 426 138 q 426 142 424 139 l 428 144 l 436 149 l 431 149 m 224 139 q 232 139 226 142 l 224 139 m 338 140 q 336 136 342 144 l 338 140 m 388 136 q 375 132 386 132 q 381 133 378 139 l 383 135 q 388 136 385 138 m 582 133 q 578 131 579 135 q 579 128 576 128 l 582 133 m 418 132 q 411 131 417 131 q 401 124 406 128 l 418 132 m 246 131 q 246 122 244 129 q 251 121 249 122 q 254 121 253 119 l 253 124 q 251 126 253 126 q 249 129 249 126 q 246 131 247 131 m 299 76 q 304 75 304 76 l 303 74 q 306 76 306 74 l 306 79 q 313 82 313 79 l 315 85 q 317 92 319 86 l 308 96 q 311 99 311 96 q 307 103 306 97 q 308 110 308 106 q 304 107 306 110 q 299 104 303 104 l 299 108 l 285 108 q 283 110 283 108 l 286 111 q 292 113 289 113 q 285 119 292 115 l 285 124 l 276 126 l 276 128 l 272 128 q 267 126 274 126 l 258 131 q 258 124 256 126 q 257 118 257 124 q 265 117 264 121 q 260 113 263 117 q 275 106 272 110 l 275 101 q 292 99 285 97 q 297 96 293 99 q 301 93 301 94 q 303 82 301 78 l 299 76 m 565 117 q 568 110 568 114 q 563 110 567 108 q 560 115 558 111 q 565 117 565 115 m 436 111 l 432 108 l 432 110 l 436 111 m 289 88 q 294 83 289 83 q 300 85 300 82 q 293 83 300 86 l 289 88 m 293 49 q 293 46 294 47 l 289 47 l 293 49 m 483 39 q 482 33 483 35 q 486 36 485 32 q 483 39 486 39 m 364 36 q 367 28 364 28 l 369 29 q 371 32 371 31 l 364 36 m 317 33 q 315 29 322 32 l 313 29 l 317 33 m 508 22 l 508 19 l 504 19 l 504 22 l 508 22 m 379 21 q 374 17 382 8 q 379 21 372 21 m 281 -21 q 278 -35 281 -32 q 276 -42 276 -36 l 276 -49 l 272 -58 l 274 -68 q 278 -78 274 -78 l 282 -58 q 283 -46 282 -47 l 283 -71 q 288 -69 286 -72 l 289 -67 q 292 -56 286 -57 q 294 -62 292 -60 l 294 -49 q 292 -50 294 -50 q 289 -53 292 -53 q 292 -47 292 -50 l 292 -40 l 294 -39 q 285 -36 292 -36 q 283 -43 285 -43 l 283 -24 q 281 -21 279 -22 m 81 414 q 79 407 81 408 l 89 411 l 90 414 q 93 418 93 417 l 88 417 q 81 414 83 414 m 639 336 q 640 344 640 336 l 640 346 q 639 336 639 344 m 568 325 l 567 325 q 567 322 569 325 l 568 325 m 554 311 q 558 311 557 310 q 560 315 558 315 q 558 322 560 324 q 556 311 558 314 l 554 311 m 658 286 q 661 294 661 283 l 663 301 q 661 303 663 303 l 658 286 m 631 265 q 635 271 635 265 q 633 271 635 272 q 631 256 626 257 l 631 265 m 199 231 l 188 231 q 193 228 188 226 l 197 228 l 199 231 m 607 179 q 613 186 608 178 l 607 179 m 413 57 l 407 63 l 404 60 l 394 60 q 396 56 394 56 l 399 56 l 399 53 l 413 57 m 411 44 q 407 50 407 47 l 408 49 q 411 44 411 46 m 424 0 q 428 1 426 0 q 432 4 431 4 l 435 3 q 438 4 438 3 l 433 4 l 432 7 l 424 7 q 415 4 417 7 l 424 0 m 183 313 l 181 313 l 182 311 q 183 308 185 310 q 181 307 181 308 l 182 306 l 183 308 q 188 308 186 311 l 194 307 q 196 318 194 319 q 201 318 199 315 l 203 321 l 203 336 q 203 347 200 343 q 186 344 199 349 l 185 325 q 189 322 185 326 l 183 324 l 183 313 z "},"%":{"ha":711,"x_min":18,"x_max":694,"o":"m 231 757 q 231 765 233 764 q 218 768 233 764 l 215 775 q 211 782 214 781 l 204 790 q 196 797 197 797 l 189 797 q 182 799 183 797 q 171 778 171 799 l 174 749 q 176 743 174 746 l 210 739 l 222 739 q 231 757 225 742 m 432 181 q 429 179 431 179 l 433 185 l 432 181 m 410 199 l 407 186 l 411 192 q 413 190 413 192 l 414 188 l 411 185 q 408 176 407 181 q 404 179 404 176 q 400 165 401 179 q 397 172 397 165 l 403 188 l 407 190 l 410 199 m 121 238 q 125 242 124 238 l 124 240 q 121 238 121 240 m 463 240 q 471 246 471 244 q 472 242 474 243 q 471 238 471 240 l 463 238 q 463 224 464 236 l 458 225 q 453 226 456 228 l 458 236 l 461 236 l 461 238 q 463 240 461 239 m 132 256 q 135 261 135 258 l 132 256 m 428 233 q 424 229 428 229 q 433 246 424 236 l 443 257 q 449 258 444 258 q 450 261 449 260 l 453 265 q 460 269 453 269 q 454 257 461 264 l 447 250 l 447 253 q 436 247 442 253 l 436 244 q 435 240 436 242 l 428 233 m 396 100 q 399 96 399 100 l 399 92 q 400 89 401 89 l 403 83 q 408 81 406 81 l 401 100 l 396 100 m 436 104 q 439 103 438 104 l 440 101 q 436 101 440 96 l 436 104 m 458 106 q 460 100 457 100 q 454 106 457 97 l 458 106 m 450 136 q 453 132 453 136 l 453 129 q 453 114 458 115 l 450 136 m 607 149 q 603 139 603 144 q 594 132 600 132 q 599 139 594 135 l 604 144 q 607 149 604 151 m 449 149 q 451 142 451 149 q 449 149 449 139 m 438 150 q 440 143 440 153 q 438 150 438 140 m 613 160 q 614 154 614 160 l 608 154 l 613 160 m 493 172 q 497 140 493 143 q 496 169 497 179 q 493 172 496 172 m 589 179 q 588 168 589 168 q 590 172 588 169 q 589 179 594 178 m 663 181 q 660 174 664 178 q 657 168 657 169 q 661 161 668 168 q 667 168 664 161 q 665 174 664 168 l 667 181 l 663 181 m 606 192 q 606 182 604 183 l 606 188 l 607 188 q 606 192 611 192 m 611 136 q 617 138 614 138 q 622 150 617 146 q 632 156 626 154 l 635 176 q 640 181 638 178 q 642 196 642 181 q 636 189 640 196 l 626 172 l 622 156 l 619 156 l 618 150 q 617 147 618 149 l 606 139 q 600 128 606 135 q 594 118 594 121 l 603 114 q 606 125 607 121 l 617 136 q 613 133 615 136 q 608 133 611 132 l 611 136 m 514 200 q 508 182 510 192 l 503 182 q 503 179 501 181 l 504 176 l 500 174 q 503 168 500 168 q 506 175 504 169 l 507 181 l 510 179 q 514 178 511 176 q 515 182 514 182 q 514 192 514 178 l 514 200 m 507 204 q 508 196 513 204 q 504 193 506 193 l 507 204 m 606 206 q 610 201 606 200 q 613 192 610 194 q 615 199 611 194 l 619 203 q 618 192 621 199 l 617 182 q 608 172 610 179 q 611 165 615 165 l 613 168 q 614 174 614 171 q 618 176 615 174 q 622 179 621 179 l 625 186 q 629 196 626 193 q 631 204 626 203 q 633 206 632 206 l 633 203 q 636 200 631 200 l 638 204 q 640 208 638 208 l 647 206 q 649 219 647 224 l 644 219 q 643 228 646 222 l 642 235 l 639 236 l 639 240 q 636 242 638 242 l 633 242 l 632 244 q 629 246 631 246 q 624 210 629 215 q 618 213 621 210 q 622 221 622 215 q 622 239 624 231 q 617 233 619 239 q 611 229 615 228 q 610 224 613 226 l 608 221 q 599 217 607 222 q 597 219 599 218 l 594 222 l 593 229 l 592 226 q 589 236 592 233 l 589 239 l 586 242 l 586 213 q 581 211 583 214 l 578 207 q 576 222 578 219 q 571 219 574 222 l 568 215 q 564 225 568 225 q 563 213 563 224 q 558 214 560 213 l 557 215 l 553 207 l 550 206 q 549 201 547 203 q 543 188 543 192 q 542 176 542 183 l 542 167 l 544 160 q 547 154 544 157 q 551 161 547 156 q 553 157 551 157 q 563 174 556 167 q 563 165 565 165 q 554 154 556 158 q 561 157 557 154 l 565 160 l 569 160 q 565 163 567 164 q 568 168 568 165 l 569 172 q 575 182 571 178 q 578 199 586 199 l 578 189 q 582 190 579 188 l 583 189 q 586 181 583 183 l 589 189 q 593 196 590 194 l 597 192 q 606 206 600 200 m 618 247 l 618 244 l 615 244 l 615 247 l 618 247 m 617 258 l 617 256 l 614 256 l 614 258 l 617 258 m 526 264 q 519 261 519 264 q 526 264 526 261 m 656 269 q 660 261 656 261 q 656 269 660 268 m 635 294 q 640 279 639 279 q 635 294 646 288 m 639 306 q 643 288 639 296 q 646 286 644 288 q 647 285 647 286 l 649 281 l 651 279 l 651 275 l 656 271 q 654 279 656 275 l 651 286 q 639 306 651 300 m 650 118 q 650 122 649 121 q 651 125 650 124 q 653 126 653 125 l 647 126 q 646 125 647 124 l 643 128 q 640 126 642 128 q 642 129 642 128 q 643 133 643 131 l 646 135 q 650 142 649 136 l 656 147 q 658 153 658 150 l 660 158 l 647 153 q 651 160 649 153 l 654 161 q 656 164 656 163 q 650 163 654 167 l 635 149 q 632 143 635 147 q 629 138 628 140 q 615 122 625 135 l 621 122 q 624 115 621 119 l 626 111 q 617 100 625 106 l 615 94 q 614 89 613 92 q 631 103 625 92 l 638 106 q 639 110 636 107 q 640 111 640 110 q 642 114 640 114 q 644 111 647 117 q 643 106 644 107 l 639 100 q 628 88 639 99 q 639 90 628 90 q 618 71 639 71 q 606 76 610 71 q 599 71 603 76 q 590 65 593 65 q 586 53 590 56 l 583 51 q 581 50 581 51 q 571 46 578 47 q 561 40 565 44 q 558 14 571 31 q 546 15 554 13 q 543 13 543 18 l 539 8 q 536 7 536 8 l 531 6 q 513 3 522 3 q 499 4 493 3 q 471 4 482 1 l 450 8 l 444 11 q 439 14 442 11 l 436 17 l 426 19 q 421 22 424 22 q 417 26 419 22 l 414 29 l 411 29 l 399 46 q 397 47 397 46 q 389 57 397 53 q 388 71 389 71 q 372 106 378 86 q 375 99 374 106 l 375 110 q 374 119 375 124 q 371 114 374 121 l 368 129 q 367 146 365 143 q 374 158 367 158 q 372 146 372 157 q 375 126 375 149 q 385 100 378 108 l 386 90 q 385 89 385 90 l 388 85 q 388 78 390 81 q 392 82 394 78 l 389 96 q 385 113 385 107 l 385 115 l 388 115 l 388 117 q 386 122 386 118 l 386 126 q 381 128 386 128 l 381 146 q 381 147 379 147 q 382 147 381 149 l 382 131 q 383 139 385 133 q 385 147 383 144 l 389 167 q 390 163 390 167 l 392 151 q 396 117 390 129 q 399 129 401 118 l 397 131 l 399 139 l 397 142 q 400 147 400 142 q 401 143 403 147 q 401 136 400 138 q 404 149 400 135 q 406 153 406 150 q 413 158 408 161 q 411 142 415 153 l 413 136 q 414 131 414 133 q 419 107 415 111 q 417 104 422 104 q 419 99 414 101 l 419 96 q 424 94 419 94 q 421 104 429 96 q 425 103 422 106 l 424 118 l 419 122 q 425 146 428 147 q 424 150 426 149 l 422 154 q 426 151 425 151 q 426 143 428 151 l 426 129 q 432 111 426 133 q 435 113 433 111 q 438 114 435 115 q 439 107 439 113 q 449 103 451 111 q 447 114 447 101 l 447 113 q 444 111 446 111 l 443 111 l 443 117 q 440 122 443 121 q 439 119 439 121 q 440 114 440 117 q 438 122 438 114 l 438 125 q 438 128 435 128 q 432 132 438 131 q 432 154 431 144 q 436 157 433 149 q 435 163 438 160 l 433 163 q 435 165 433 164 q 438 164 436 165 q 439 163 439 164 l 442 165 q 446 167 443 168 q 444 143 446 143 q 447 161 447 146 q 451 167 447 165 l 456 178 q 456 167 463 174 q 457 163 454 165 q 458 161 458 163 q 458 128 453 139 q 460 142 460 128 l 464 164 l 465 161 q 469 158 467 157 q 471 161 471 158 l 471 165 q 474 153 474 165 l 474 140 q 468 149 471 140 q 464 144 464 149 l 464 139 q 464 131 463 138 l 469 117 l 476 107 l 483 107 q 485 114 485 107 q 483 128 488 122 l 483 139 q 479 140 483 140 q 476 143 479 143 l 476 164 q 479 167 479 164 q 482 168 481 168 l 485 168 l 488 185 q 492 188 489 185 q 496 200 496 192 l 507 225 q 508 229 507 229 q 507 235 508 235 q 511 242 507 238 q 515 249 515 247 q 504 242 504 253 l 504 239 l 494 225 q 490 221 494 221 q 493 228 492 222 q 496 236 493 233 l 490 235 q 476 224 479 224 l 486 233 q 485 236 485 235 q 490 244 490 240 q 489 247 492 246 q 492 258 488 247 q 483 256 490 263 q 485 260 482 257 q 475 251 479 265 q 475 258 472 251 q 472 260 476 260 q 476 267 475 261 l 478 272 q 469 271 478 279 q 468 274 468 271 l 475 276 l 482 283 q 485 285 482 285 q 488 286 486 285 l 514 310 q 521 311 525 310 l 526 318 l 532 321 l 544 322 l 546 325 l 565 332 q 576 336 569 336 l 579 336 l 581 340 q 593 343 596 346 q 603 350 597 344 q 618 353 615 350 l 638 353 q 640 342 636 353 q 650 351 650 342 q 651 347 651 350 q 653 344 653 346 q 656 339 658 342 l 647 325 q 654 314 649 321 q 660 304 660 307 q 658 300 661 301 l 656 299 q 660 288 656 296 q 664 276 664 279 q 672 271 664 275 l 675 257 q 678 240 678 246 q 683 233 678 238 q 686 226 682 231 l 689 221 l 689 206 l 690 204 q 689 199 690 201 l 688 196 q 690 182 688 190 q 675 160 689 174 q 674 149 675 144 l 667 138 q 657 126 657 128 l 650 118 m 96 74 q 96 67 94 68 q 97 68 96 68 q 100 72 101 71 l 96 74 m 89 81 q 85 76 89 76 q 89 81 88 81 m 113 140 q 114 138 114 140 l 114 133 q 113 131 114 131 l 111 131 l 111 128 q 104 117 104 125 q 97 104 104 115 l 97 101 q 89 100 96 100 q 90 104 88 103 l 93 106 q 101 117 93 111 q 104 131 104 108 l 108 135 l 108 138 l 111 139 q 113 140 113 139 m 196 340 q 196 332 190 335 q 197 343 196 343 l 196 340 m 194 351 q 193 347 192 350 q 197 351 197 346 q 196 354 199 353 l 194 351 m 313 519 q 307 517 310 521 q 301 513 303 513 l 301 506 l 297 497 q 301 499 299 500 q 300 488 301 486 q 313 499 308 500 l 313 503 q 314 507 315 506 q 308 508 308 507 q 313 519 315 515 m 347 611 q 338 592 340 604 l 344 597 l 344 603 l 349 606 q 347 611 351 613 m 376 682 q 368 674 371 672 q 369 664 368 663 q 368 658 367 661 q 369 661 369 660 l 371 664 q 372 665 371 665 l 374 667 q 375 668 375 667 l 375 671 q 378 685 379 683 l 376 682 m 389 688 q 385 675 389 671 q 388 681 385 678 l 390 683 q 389 688 392 685 m 385 700 m 458 824 q 443 796 457 819 q 451 807 451 796 l 454 810 l 454 813 q 456 814 454 814 l 457 815 q 458 821 458 817 l 458 824 m 83 83 q 89 96 89 93 l 83 97 q 76 90 81 97 l 69 89 l 68 86 q 65 83 68 82 q 67 96 65 94 l 69 107 l 68 108 q 72 115 72 121 l 76 124 q 81 119 79 126 q 85 117 81 117 q 96 128 88 117 l 100 131 l 100 133 q 101 138 100 136 q 103 139 101 139 l 104 140 q 106 144 106 142 l 106 147 l 108 150 q 104 147 107 151 l 100 143 q 94 138 94 140 q 100 154 100 132 q 90 147 90 154 q 89 150 89 146 q 92 156 92 153 q 92 163 94 160 q 89 160 89 163 q 81 149 88 160 q 82 156 75 149 q 88 168 85 158 l 100 203 q 113 208 108 204 l 118 215 q 119 219 119 217 l 119 222 q 126 228 126 222 q 138 242 124 228 q 143 250 140 244 l 143 253 l 149 260 q 144 257 146 263 q 129 243 131 243 l 132 250 l 136 250 l 136 253 l 142 263 l 144 275 q 149 279 147 274 l 153 283 l 153 286 l 160 297 l 163 306 l 167 310 l 171 325 q 174 331 172 331 q 175 333 174 332 l 176 336 q 179 340 176 340 q 178 343 176 343 q 179 347 178 346 q 181 351 182 350 l 188 354 q 194 357 192 357 q 192 358 194 358 l 199 365 l 199 368 q 200 371 199 369 l 203 375 q 210 383 204 381 q 211 399 211 378 q 214 403 214 399 l 217 404 q 221 406 218 407 q 224 411 221 411 l 235 432 q 236 433 236 431 l 240 440 q 242 446 242 442 l 242 453 q 247 463 247 457 q 263 479 261 467 q 260 478 263 481 q 258 482 258 478 l 267 500 l 271 501 l 274 510 l 276 511 q 283 515 282 517 q 285 521 283 521 q 285 510 293 518 q 290 514 288 508 l 292 532 l 300 540 l 301 546 q 306 549 304 549 q 307 561 306 561 q 310 567 306 563 l 315 581 q 313 579 314 581 q 314 583 311 581 l 318 589 q 322 601 318 596 l 326 608 q 332 606 331 604 l 332 603 l 335 606 l 333 607 l 335 607 q 338 615 338 610 l 343 621 l 344 628 q 349 642 349 628 l 349 644 l 351 647 l 351 656 q 354 657 354 656 q 357 664 354 661 q 367 674 363 674 q 392 722 367 675 l 400 738 l 406 743 l 406 747 l 418 764 l 418 768 q 419 771 418 769 l 421 772 q 428 782 421 779 l 429 788 q 431 790 429 789 l 444 813 q 449 826 450 828 l 453 832 l 467 863 q 471 867 469 863 l 475 869 q 494 904 476 874 l 501 906 l 525 925 q 532 931 531 931 q 533 932 532 932 q 539 933 536 933 l 540 938 q 543 939 542 939 l 554 942 l 575 942 l 597 946 q 624 944 631 946 q 628 939 624 942 l 628 931 q 629 928 628 929 l 631 926 q 629 922 631 924 l 628 921 q 626 917 626 919 l 626 910 q 625 908 625 910 l 611 869 q 607 861 607 865 l 606 858 q 604 854 606 856 l 601 850 q 600 846 600 849 l 600 842 l 590 819 l 574 764 l 565 746 q 561 736 564 746 q 553 718 557 724 l 542 697 l 540 690 l 538 689 l 538 683 q 536 679 538 681 q 535 678 535 679 l 531 675 q 529 672 529 674 l 529 667 l 528 667 q 525 658 528 664 q 524 654 524 657 l 521 638 q 517 626 518 628 l 513 618 q 510 611 510 614 l 508 607 l 504 606 l 496 582 l 492 581 l 490 565 q 485 544 489 553 l 483 538 l 481 538 l 476 526 l 467 515 q 463 511 467 510 l 451 489 l 440 439 q 438 428 439 431 q 436 426 436 428 l 433 425 q 432 422 432 424 l 422 400 l 418 396 l 418 393 q 407 378 411 381 q 404 367 407 369 q 401 353 401 364 q 393 332 400 343 q 392 331 393 331 l 390 328 q 381 317 389 319 q 375 304 379 315 l 371 301 q 369 299 369 301 l 363 283 l 357 279 l 356 275 q 354 269 356 271 l 347 261 q 346 258 347 258 l 344 258 q 343 257 343 258 q 342 254 342 256 l 342 251 l 335 243 q 333 240 333 242 l 333 239 q 332 236 333 236 l 325 224 l 322 222 l 322 219 q 321 217 322 217 l 315 207 l 315 203 q 314 201 315 201 q 311 197 311 199 l 311 194 q 307 167 317 196 q 306 165 306 167 l 301 160 q 299 153 299 156 q 290 140 297 147 l 272 119 q 267 115 272 118 q 261 111 263 114 q 260 104 267 111 l 254 97 q 246 88 246 97 q 244 85 244 86 l 244 82 l 228 60 q 226 56 228 57 l 224 53 q 222 50 222 51 l 222 47 l 215 40 l 200 15 q 199 13 199 14 l 199 11 q 197 8 199 8 l 178 -11 l 178 1 q 172 0 175 3 l 169 -3 q 160 -6 167 -1 l 151 -8 q 144 0 153 -1 q 133 -3 136 1 q 129 7 129 -3 q 108 6 131 6 q 106 15 108 13 l 103 15 l 103 19 q 99 25 103 25 q 89 15 89 24 q 85 13 88 17 q 79 10 82 10 q 69 4 78 0 q 68 21 63 25 q 78 31 68 22 q 82 36 75 33 l 86 50 q 93 61 93 57 q 86 58 90 63 q 79 56 82 56 l 79 49 q 74 42 75 47 l 71 40 q 69 36 68 38 q 65 35 68 35 q 69 44 65 40 q 71 46 69 46 l 72 46 l 79 64 l 82 67 q 85 72 88 69 l 79 72 l 76 68 l 83 83 m 29 -4 q 35 1 32 -7 q 33 7 35 6 q 32 0 35 4 l 29 -4 m 61 8 q 67 11 67 3 q 61 8 61 11 m 21 10 q 22 11 22 10 l 21 14 q 19 17 21 17 q 18 10 19 11 l 21 10 m 44 8 q 42 8 43 7 l 43 13 l 44 8 m 46 18 q 51 19 46 21 q 53 17 56 19 l 46 18 m 54 43 q 58 44 56 47 q 63 42 61 42 q 53 22 56 35 q 57 21 53 21 l 56 7 l 53 6 q 46 1 51 1 l 44 0 q 42 -1 43 -1 l 40 -1 q 42 6 42 0 l 39 8 q 40 19 40 7 q 44 21 42 18 l 49 29 q 51 36 51 33 q 58 38 57 36 l 57 40 q 54 43 57 46 m 39 58 q 39 44 36 50 q 50 43 42 39 q 40 35 49 35 q 38 31 40 33 q 35 25 35 28 q 29 22 29 25 q 31 33 31 22 l 21 35 l 32 58 l 39 58 m 642 81 q 651 83 646 85 q 640 67 649 72 l 640 63 q 639 57 640 58 l 631 47 l 628 51 q 624 54 626 54 l 624 68 q 638 76 633 72 l 636 78 q 639 81 635 79 l 642 81 m 619 96 q 625 100 625 96 q 619 96 619 100 m 664 110 q 653 93 656 101 q 672 108 661 96 q 671 117 671 104 l 672 118 q 672 122 676 121 q 664 117 672 121 l 664 110 m 481 119 l 479 124 q 475 126 478 128 q 476 119 474 122 l 481 119 m 58 107 l 63 110 q 68 121 61 114 q 67 126 71 128 l 58 107 m 683 142 l 683 138 l 683 142 m 75 140 q 76 143 78 143 q 72 142 74 143 q 72 139 69 139 l 75 140 m 692 160 q 694 161 694 158 q 693 164 694 164 l 692 160 m 401 160 q 404 160 403 158 l 403 164 l 401 160 m 446 169 q 444 175 444 169 q 447 172 447 175 q 446 169 446 172 m 376 176 q 381 186 381 181 l 381 181 l 376 169 q 376 176 369 169 m 471 169 q 474 192 474 165 q 474 186 475 190 q 472 182 472 185 q 471 169 472 171 m 419 196 q 422 201 422 199 q 418 203 419 201 l 415 196 q 415 193 414 194 l 419 196 m 444 199 q 446 203 443 201 l 447 206 q 443 203 444 207 q 444 199 442 200 m 431 224 q 436 233 436 231 l 440 233 q 440 231 442 232 l 439 228 q 424 214 435 217 l 431 224 m 85 850 q 76 847 82 853 l 67 844 q 74 850 69 853 q 76 858 76 853 q 90 869 82 861 l 101 878 l 103 881 q 110 883 104 882 l 117 885 l 142 906 q 158 914 154 910 q 186 919 174 922 q 208 925 190 922 q 229 929 226 928 l 242 926 l 253 926 q 258 914 256 922 l 260 844 q 288 846 281 847 l 290 844 q 294 844 293 843 l 303 846 q 308 847 307 846 l 325 850 q 332 846 325 849 l 342 801 q 344 774 346 778 q 340 746 344 761 l 339 738 q 336 733 338 738 q 329 718 332 721 l 328 717 q 324 710 328 714 q 317 701 315 703 l 315 699 q 314 697 315 697 l 311 697 l 304 689 l 297 686 q 293 681 294 683 l 290 681 l 267 664 l 258 663 l 257 658 q 253 657 256 657 l 222 647 q 194 643 218 643 l 176 644 l 167 647 q 157 650 160 650 q 153 651 156 651 l 147 653 q 142 654 146 654 l 131 657 q 126 658 128 657 l 125 661 q 124 663 125 663 l 121 663 q 111 668 117 663 l 92 685 q 90 686 92 686 q 76 699 88 686 l 68 706 l 67 711 q 65 714 67 713 q 64 715 65 715 l 61 718 q 60 722 60 719 q 58 724 60 725 l 56 726 q 54 731 54 728 q 51 764 51 739 l 50 785 q 54 807 50 801 l 56 808 q 57 811 57 810 l 57 814 l 61 815 l 63 821 l 65 822 l 74 835 q 69 838 74 836 l 74 842 q 76 846 72 846 q 81 846 79 844 l 82 849 q 85 850 83 850 m 643 149 q 644 150 644 149 l 643 149 z "},"&":{"ha":914,"x_min":15,"x_max":897,"o":"m 300 867 q 299 861 300 863 q 296 860 299 860 q 283 854 289 860 l 282 851 l 269 849 q 261 844 268 847 l 238 833 l 231 826 q 222 824 225 824 l 221 824 l 221 826 q 229 844 221 835 l 231 846 q 232 849 231 849 l 235 849 q 238 850 236 849 q 242 858 239 856 l 251 863 l 263 863 q 275 864 272 863 l 300 867 m 883 642 l 875 649 l 883 642 m 75 563 q 64 569 71 563 q 61 565 65 569 l 44 585 q 43 583 43 585 q 47 579 43 582 q 50 575 50 576 l 54 563 l 53 560 q 51 563 51 560 l 35 585 q 32 586 35 586 l 29 586 l 25 599 l 28 617 l 25 621 q 18 644 15 646 l 18 669 q 21 678 18 672 l 24 704 q 22 707 22 706 q 24 708 24 707 q 25 739 24 735 l 26 749 l 31 756 l 29 757 q 31 764 29 763 q 32 765 32 764 l 32 768 q 36 786 32 772 q 39 794 39 786 l 42 803 q 43 807 42 806 l 44 810 q 46 813 46 811 l 53 826 q 54 828 53 828 q 56 831 56 829 q 57 833 57 831 l 57 838 q 60 839 58 839 l 61 839 l 61 842 q 64 844 61 843 q 65 847 65 846 q 71 854 67 850 q 75 861 75 860 q 76 863 75 863 l 81 868 q 82 872 82 869 l 85 874 q 86 876 86 875 l 88 879 q 97 889 88 881 l 131 918 q 138 924 136 924 q 144 928 140 926 l 146 931 q 150 932 149 931 l 151 935 q 171 947 164 947 q 175 949 174 947 l 176 950 q 179 951 179 950 q 186 957 183 956 l 194 961 q 196 963 196 961 l 197 964 q 206 967 203 964 q 224 974 201 963 q 239 979 233 974 l 242 979 q 251 982 244 982 q 263 985 256 982 q 272 988 269 988 l 296 993 l 310 993 q 322 994 319 993 l 325 996 q 349 1001 336 996 q 364 1006 360 1006 l 356 1008 q 354 1010 354 1008 q 339 1011 340 1010 l 339 1015 l 329 1015 q 340 1019 333 1019 l 361 1018 l 371 1015 q 372 1017 371 1017 q 374 1015 372 1015 l 381 1013 q 389 1006 382 1013 q 399 999 394 1000 l 408 999 q 413 996 408 997 l 417 992 l 428 988 q 446 983 439 983 l 463 972 l 467 972 q 469 969 468 972 q 471 971 471 969 l 469 976 q 471 978 469 978 q 476 971 474 976 q 488 961 482 963 q 492 957 489 961 q 494 951 494 953 q 507 944 504 950 q 510 939 508 944 l 513 932 q 515 931 513 931 l 517 931 q 536 899 517 918 l 536 896 l 539 896 q 540 894 540 896 l 540 892 q 542 889 540 890 q 547 883 543 885 q 556 893 550 885 q 564 901 561 901 l 565 911 q 571 900 567 911 l 571 897 q 576 879 576 892 q 585 874 576 874 l 596 871 q 597 863 597 868 l 599 857 l 606 853 q 608 849 610 849 l 611 838 l 610 835 q 608 832 608 833 l 607 821 q 601 807 607 814 q 600 806 601 806 q 597 804 599 806 q 596 803 596 804 l 596 800 q 593 797 596 799 l 568 772 q 504 736 560 764 l 463 721 q 450 718 449 717 l 447 719 q 446 718 447 718 q 439 717 444 717 l 408 714 q 389 717 400 714 l 349 728 q 344 729 346 728 q 336 732 342 732 q 335 733 336 733 q 310 764 325 733 q 307 769 307 767 q 304 788 304 781 q 307 803 304 792 l 319 811 q 326 813 322 813 q 346 814 329 814 l 375 814 q 376 815 376 814 q 407 828 393 815 q 410 840 410 836 q 406 860 410 850 l 393 881 q 389 885 390 885 q 375 907 389 892 q 356 924 363 921 l 340 936 q 319 943 333 942 l 315 943 q 297 946 304 946 l 282 944 l 272 942 q 265 938 269 942 q 260 936 260 938 l 258 935 q 257 933 258 933 q 254 931 256 931 l 251 931 q 213 911 232 911 l 207 908 q 199 904 203 908 q 193 899 194 899 l 188 896 q 172 885 181 896 q 169 876 169 882 l 165 867 l 150 844 l 151 861 q 149 856 149 861 l 146 854 q 138 849 143 854 q 133 835 133 843 l 125 828 l 125 825 q 124 822 125 822 l 122 821 q 121 818 121 819 l 118 806 l 117 806 q 113 768 117 772 q 108 763 110 765 q 107 732 108 747 l 106 714 q 111 685 106 701 q 113 683 113 685 l 114 678 q 117 672 114 675 q 118 675 118 674 l 115 697 q 122 681 122 697 l 124 681 q 125 679 125 681 l 125 675 l 129 667 q 135 664 131 667 q 139 661 139 663 q 151 647 144 650 l 151 651 q 150 657 151 656 l 149 658 q 147 660 147 658 l 140 714 q 139 740 139 722 l 138 774 q 156 790 138 790 q 171 783 165 790 l 172 782 l 164 771 l 160 760 l 157 758 q 156 757 156 758 l 156 751 q 150 704 150 740 q 151 690 150 694 q 153 683 151 685 l 160 671 q 157 663 157 665 q 164 650 157 657 l 174 656 q 176 654 175 656 q 179 649 178 650 l 188 636 q 213 639 199 639 l 228 644 l 236 644 q 251 649 249 649 q 264 654 257 654 l 289 663 q 286 664 289 664 l 276 660 l 276 661 q 289 668 279 667 l 303 672 q 292 665 300 665 l 321 676 l 343 678 q 344 676 343 676 q 361 674 351 676 q 379 669 371 669 l 390 668 l 414 646 l 421 646 l 421 643 q 425 636 421 639 l 425 635 q 424 632 425 633 l 421 631 q 425 626 421 629 q 428 622 428 625 q 425 618 425 622 l 425 613 q 410 608 413 611 q 397 594 413 610 l 390 593 l 386 590 q 379 583 381 588 q 378 582 378 583 l 374 575 q 376 574 376 575 q 354 547 376 569 q 350 538 351 544 q 344 528 349 532 l 333 501 q 332 499 333 499 l 319 486 l 319 482 q 313 475 318 479 q 294 454 296 458 l 288 447 q 279 443 285 444 l 257 421 l 256 417 q 254 414 256 415 l 253 413 q 251 411 251 413 q 247 404 247 407 l 244 401 q 243 397 243 400 q 232 378 236 382 q 229 365 232 374 q 228 361 229 363 q 226 357 226 360 l 215 321 q 214 315 214 319 l 214 308 l 211 300 q 208 290 208 293 q 206 268 206 282 l 204 257 q 208 242 204 249 q 218 235 207 246 l 221 226 q 222 222 222 225 l 222 218 l 226 215 q 228 210 228 214 l 228 203 q 229 201 228 201 q 236 189 229 199 q 242 175 242 178 q 256 160 261 156 q 260 157 258 157 l 263 156 q 264 154 263 154 l 267 154 q 271 153 269 154 q 272 151 271 151 q 283 149 275 151 l 292 146 l 301 146 q 308 143 304 143 l 311 143 q 318 142 313 142 l 343 140 l 354 143 q 365 144 357 144 l 375 144 q 401 150 381 144 l 428 154 q 457 163 456 161 q 479 171 472 169 q 483 174 481 171 l 490 175 q 531 196 513 183 q 542 211 542 204 q 543 214 542 213 l 546 217 q 549 218 549 217 q 553 232 549 224 l 558 246 q 561 247 561 246 l 563 250 q 564 257 564 251 l 565 264 q 571 283 567 264 q 572 300 572 286 q 568 329 572 310 q 563 356 563 349 q 547 385 557 385 l 542 388 q 538 389 540 389 l 538 390 q 536 393 538 392 l 535 396 q 517 390 529 396 q 499 385 504 385 l 478 375 l 440 368 l 450 350 q 451 347 450 347 l 456 344 q 460 338 458 338 l 460 326 q 449 336 450 336 l 449 335 q 451 331 449 333 q 463 313 460 313 q 457 303 463 304 l 450 308 l 450 304 q 446 308 449 304 q 442 311 444 311 l 440 311 q 443 307 440 310 q 446 301 446 304 q 443 297 443 301 q 439 296 442 296 l 438 296 q 422 285 415 285 l 425 282 q 428 276 428 279 q 425 272 428 274 l 422 269 q 424 267 422 268 q 421 268 424 268 q 413 263 413 268 q 414 260 413 261 l 417 254 q 413 251 417 251 q 415 249 413 249 q 410 247 415 247 q 408 249 408 247 q 407 247 408 247 q 404 246 406 246 q 408 236 404 243 q 411 226 411 229 q 400 231 404 226 q 399 218 399 229 l 392 221 l 383 221 q 381 222 382 221 l 379 225 q 378 215 382 228 q 367 213 369 215 q 364 210 364 213 l 364 207 l 358 208 q 353 210 356 210 q 349 208 350 210 q 338 218 338 221 l 326 221 q 321 231 326 225 l 310 261 q 306 268 308 265 q 304 271 304 268 l 301 307 l 300 308 l 301 344 q 303 353 301 351 q 304 357 304 354 l 306 360 q 308 369 306 367 q 321 383 308 371 l 333 393 q 340 396 336 396 l 343 397 q 361 408 350 397 q 379 418 374 418 q 383 419 382 418 l 390 426 q 403 432 396 432 l 443 446 q 446 447 446 446 l 449 444 l 451 446 q 456 449 454 449 q 524 468 504 449 l 524 471 l 525 471 q 532 474 528 471 l 536 476 q 547 481 540 481 l 628 525 q 651 538 635 532 q 675 549 669 543 l 679 551 q 689 556 686 556 q 694 561 694 556 l 696 565 q 699 567 697 567 q 690 576 697 569 l 682 585 l 672 588 q 671 590 671 588 l 665 593 q 658 597 660 594 l 625 603 l 625 613 q 596 644 614 624 l 593 647 q 590 651 590 649 l 590 653 l 610 653 q 607 654 610 654 l 603 656 q 600 658 603 658 l 593 657 q 596 661 593 658 l 599 664 l 606 664 l 606 669 q 610 671 608 669 l 610 672 q 614 671 613 672 q 617 669 614 669 l 618 671 q 622 685 622 675 q 625 686 624 686 l 629 686 l 632 689 l 656 685 l 649 688 q 639 693 640 690 q 647 696 639 696 q 646 700 647 699 q 647 704 646 704 q 660 700 643 704 l 657 699 q 653 694 653 697 l 654 696 l 665 690 l 672 692 q 681 689 675 689 l 683 689 l 683 688 q 685 685 683 686 l 689 682 q 690 675 689 675 q 683 676 686 675 q 669 682 678 682 l 668 682 q 676 676 668 681 q 678 675 676 675 l 682 675 q 685 672 683 675 l 690 671 l 696 672 q 703 669 699 669 l 710 674 q 707 676 710 675 q 703 681 704 678 l 703 682 q 706 685 703 683 l 707 688 q 696 693 706 690 q 688 697 688 693 l 688 699 q 692 701 689 701 q 701 699 694 701 l 710 696 q 700 699 707 699 q 706 701 700 700 l 710 704 q 700 708 707 708 l 682 707 l 678 711 q 693 715 682 715 l 715 714 l 719 711 l 757 708 q 760 710 760 708 q 763 711 761 711 l 771 708 q 778 704 774 708 q 797 699 793 703 l 799 697 q 801 696 800 696 l 810 693 q 839 676 826 676 l 878 635 l 878 625 q 886 615 878 628 q 897 589 897 596 l 897 585 l 893 578 l 894 572 q 893 571 893 572 l 893 565 q 892 561 893 563 q 888 554 888 557 q 882 542 883 542 l 881 540 q 879 539 879 540 l 876 532 q 875 529 876 529 l 867 525 q 858 518 860 521 l 857 517 q 825 493 857 525 l 819 492 q 806 485 815 492 q 790 478 796 478 l 789 478 q 782 475 790 479 l 781 472 q 761 469 769 472 q 760 468 761 468 l 732 463 l 729 458 l 721 458 q 711 456 714 458 l 711 453 l 718 442 q 724 429 726 429 q 733 397 733 407 q 732 368 733 383 l 738 343 l 740 340 l 746 321 l 746 301 q 742 272 746 289 l 742 268 q 729 222 742 254 l 729 219 q 726 218 729 221 l 721 208 q 714 196 719 208 q 706 182 708 182 l 706 169 q 704 168 704 169 q 703 163 704 165 l 697 153 q 694 151 696 153 l 694 149 q 693 146 694 146 l 685 143 q 683 142 683 143 q 681 139 683 139 q 649 124 654 139 q 640 122 642 124 l 639 121 q 636 119 638 119 l 617 113 q 601 106 604 108 l 586 99 q 583 96 585 96 l 572 93 q 551 83 561 93 l 549 83 l 542 76 l 513 67 q 511 64 513 64 q 508 63 510 63 l 493 57 q 492 54 493 56 l 490 53 q 488 51 489 51 l 485 51 q 471 43 475 47 q 469 42 469 43 q 467 40 468 42 l 464 38 q 458 36 463 36 l 418 24 l 367 22 l 363 21 l 293 22 q 272 24 275 22 q 267 25 272 25 l 249 32 q 233 35 246 35 q 228 33 228 35 q 219 36 228 36 l 207 36 l 207 38 l 196 39 q 192 42 196 38 q 188 44 189 44 q 183 46 188 46 l 178 47 l 190 47 q 231 40 207 46 l 231 42 q 228 44 231 43 l 225 47 l 207 47 q 204 56 213 47 q 183 64 190 63 l 181 64 q 172 71 172 64 l 183 69 l 189 65 q 190 64 190 65 q 199 61 193 61 l 200 63 q 188 72 199 68 q 176 76 186 74 l 172 76 l 169 79 q 165 81 168 81 q 143 92 163 85 l 143 90 q 149 85 143 88 l 150 83 q 153 82 151 82 l 156 82 q 157 81 157 82 q 160 79 158 81 q 161 76 161 78 q 164 75 163 75 l 167 74 q 169 72 168 74 l 169 71 l 149 76 l 144 82 l 142 82 l 128 90 q 124 93 128 89 q 121 94 122 93 l 133 83 q 135 82 135 83 l 135 81 l 139 81 q 140 79 140 81 l 140 76 l 143 76 q 146 75 144 76 q 149 72 149 74 q 143 69 149 69 q 146 65 146 67 l 146 64 q 142 69 142 64 l 142 71 l 139 71 q 136 72 136 71 l 133 75 q 132 76 133 76 l 129 76 q 128 81 128 78 q 125 82 128 82 l 118 85 q 113 88 115 88 l 111 88 q 119 83 114 83 l 119 81 q 122 79 119 79 q 128 72 128 78 q 117 79 125 75 l 103 85 q 94 92 100 86 q 86 101 86 100 l 86 106 q 83 110 83 108 q 86 108 85 110 q 89 107 89 108 l 88 111 q 86 117 86 114 l 83 117 q 82 119 82 117 l 82 122 q 79 125 82 124 l 76 129 q 75 131 76 131 l 72 133 q 67 143 72 138 q 61 151 61 149 l 60 156 q 53 182 57 158 l 51 193 q 49 229 49 215 l 50 247 q 58 282 53 254 q 65 303 63 286 q 69 324 68 321 l 76 346 l 79 350 q 82 354 82 353 l 90 379 q 94 383 90 381 q 97 390 97 388 q 114 421 114 407 q 115 425 114 424 l 118 426 q 121 432 119 428 l 124 438 q 129 442 126 440 q 131 443 131 442 l 144 461 l 144 464 l 147 464 l 150 468 q 156 474 151 474 q 158 479 156 476 q 161 485 161 483 q 168 489 164 485 l 181 504 q 171 506 179 506 q 149 515 163 507 q 124 529 133 526 q 110 531 119 531 l 88 531 q 86 535 86 531 l 85 538 q 78 542 82 538 l 72 547 q 82 546 76 547 q 88 544 88 546 l 89 543 q 90 540 89 540 q 100 539 94 539 q 107 540 106 539 q 83 549 101 546 l 79 551 q 74 554 76 554 l 68 561 q 64 564 64 561 q 68 561 65 564 q 78 557 74 561 l 82 553 q 93 551 83 551 l 94 553 q 93 556 94 556 q 90 560 90 558 q 94 561 94 560 l 83 568 l 83 569 l 79 569 q 71 574 78 574 l 65 579 q 63 585 65 581 q 60 589 61 589 q 54 597 54 594 l 51 601 l 51 607 q 50 608 51 608 l 49 608 l 49 613 l 46 617 q 42 625 42 621 q 40 622 40 625 l 40 618 q 42 613 40 614 q 49 604 43 607 l 49 596 l 51 590 q 58 583 56 583 q 56 585 58 585 q 57 586 56 586 q 58 585 58 586 q 68 574 61 578 q 76 564 75 568 l 75 563 m 86 683 q 85 672 85 682 l 94 674 q 86 683 93 683 m 76 682 q 78 668 76 674 q 79 676 79 668 l 78 679 q 76 682 78 682 m 122 665 l 119 658 q 126 654 119 654 l 122 665 m 74 617 q 75 618 75 617 q 71 625 75 617 q 67 638 67 632 l 57 642 l 56 640 q 58 632 56 638 l 61 625 l 63 625 q 68 621 65 625 q 74 617 72 617 m 108 640 q 115 633 108 633 q 117 636 117 633 q 111 643 117 643 l 108 640 m 36 638 l 40 629 l 36 638 m 86 629 q 93 615 86 622 q 103 601 99 601 q 96 619 103 606 q 93 631 96 628 l 86 636 l 86 629 m 58 617 q 53 613 54 613 l 51 613 q 68 593 53 608 q 83 575 82 575 l 88 574 q 94 571 92 571 l 96 572 l 94 574 q 83 581 88 581 q 68 599 71 593 l 68 603 q 67 606 68 604 q 64 607 64 606 q 63 610 63 608 l 63 613 l 58 617 m 76 610 q 81 601 76 606 q 83 600 81 600 l 85 601 l 81 607 q 76 611 79 611 l 76 610 m 97 574 q 99 575 97 575 q 104 569 104 575 q 103 568 104 568 q 100 571 101 568 q 97 574 100 574 m 440 350 q 444 347 440 347 q 442 349 443 347 l 440 350 z "},"'":{"ha":214,"x_min":22,"x_max":181,"o":"m 89 731 q 86 738 86 731 q 88 749 86 746 q 92 739 92 747 q 89 731 92 736 m 90 656 q 86 661 86 656 q 89 665 86 665 l 90 656 m 72 788 q 74 786 74 788 l 71 783 l 72 788 m 74 778 q 72 775 72 776 l 74 771 l 74 778 m 171 819 l 174 782 q 169 789 171 785 q 168 797 168 790 q 167 800 168 800 l 164 801 l 160 822 l 158 817 q 157 810 158 811 l 156 810 q 154 813 154 810 l 154 835 q 151 814 151 832 l 150 808 q 151 807 151 808 l 151 794 q 147 803 147 797 q 144 796 144 803 l 146 782 q 147 781 146 781 l 150 781 l 150 776 q 151 775 150 775 l 151 739 l 157 778 q 160 765 160 778 l 160 753 q 164 756 161 753 q 168 757 165 757 l 169 767 q 171 774 169 771 l 172 774 l 175 742 q 176 744 176 742 l 176 749 q 178 739 178 749 l 172 693 l 168 685 l 169 674 q 171 654 171 663 l 171 646 l 165 639 l 164 640 q 163 642 164 642 q 161 640 161 642 q 158 639 161 639 q 156 640 157 639 q 154 643 156 642 l 149 642 l 142 646 q 140 643 140 644 q 139 640 140 640 q 136 643 138 640 q 132 647 135 646 q 131 668 131 649 q 128 661 128 668 l 128 651 l 126 651 q 119 650 122 651 q 117 638 117 647 q 114 643 114 640 l 114 647 q 111 649 111 647 l 110 658 q 107 657 108 658 q 103 654 104 654 q 100 656 101 654 q 97 665 97 658 q 94 703 94 676 l 93 713 l 96 793 l 94 796 q 93 800 94 800 q 92 792 92 797 l 89 757 q 86 764 86 758 l 88 794 l 85 817 q 82 858 85 839 q 79 856 79 858 l 79 847 l 78 846 l 78 856 q 74 867 78 858 q 72 854 72 865 q 74 797 74 846 l 72 796 l 72 801 q 68 811 63 811 q 67 796 67 811 l 63 747 l 65 750 q 68 753 67 753 l 71 753 q 74 744 74 750 l 74 736 l 72 736 l 74 721 q 71 728 71 724 q 68 722 68 728 q 71 718 68 718 l 74 718 q 76 715 76 718 l 74 688 l 76 685 l 72 676 l 76 663 q 74 664 75 664 q 71 657 71 664 l 53 660 q 50 663 51 660 l 49 664 q 42 647 44 664 l 39 649 q 35 650 38 650 l 33 650 q 32 653 32 651 l 32 656 l 31 656 l 32 679 l 28 739 l 31 742 l 29 743 l 32 807 q 26 836 32 818 l 24 861 q 22 882 22 871 l 24 892 q 25 904 25 899 l 22 938 q 24 949 22 944 l 25 953 q 31 968 25 963 l 28 985 q 36 989 31 985 q 43 993 42 993 l 44 993 q 46 990 46 993 l 46 989 l 64 990 q 68 989 67 990 q 72 986 72 989 q 81 988 76 988 l 86 985 l 96 985 q 97 983 96 983 q 106 988 104 983 q 117 983 113 983 l 122 985 q 126 981 122 983 q 131 976 131 979 q 135 979 133 979 l 136 975 l 168 967 q 176 961 176 967 l 179 958 l 181 938 q 179 926 181 928 q 178 921 178 925 l 178 854 l 176 856 q 174 857 175 857 l 171 819 m 140 765 q 142 761 140 761 l 142 772 q 140 776 142 776 l 140 765 m 56 815 q 54 797 54 811 l 56 768 q 54 749 56 753 q 56 760 56 750 l 58 806 q 56 815 58 813 m 46 746 q 47 756 47 749 l 49 772 q 51 776 49 774 l 53 779 l 53 792 q 49 794 49 792 l 49 807 l 47 806 l 44 753 q 46 746 44 747 z "},"(":{"ha":425,"x_min":19,"x_max":408,"o":"m 65 108 q 72 92 67 97 l 72 94 q 69 104 72 97 l 67 114 q 68 119 67 118 l 64 121 q 65 108 64 111 m 32 261 q 33 254 32 254 l 36 254 q 39 261 39 254 l 38 271 l 35 274 q 33 276 35 276 l 32 276 l 32 261 m 225 950 q 231 949 229 950 l 232 951 q 231 956 231 951 l 225 954 l 225 950 m 253 958 q 253 963 257 963 q 251 961 253 961 l 244 960 q 238 944 229 953 l 238 942 q 239 939 235 939 l 246 940 q 249 939 247 940 q 251 936 249 936 l 228 838 q 225 826 225 829 l 219 776 q 217 708 219 742 l 217 697 l 215 696 q 199 460 199 590 l 197 414 l 199 368 q 200 328 199 351 q 204 289 203 290 l 206 279 q 207 271 206 274 l 208 269 l 208 258 q 210 246 208 247 l 218 204 q 219 197 219 203 l 221 186 q 228 165 224 183 q 235 144 228 163 l 236 143 l 236 111 l 238 104 l 253 85 l 253 81 l 257 79 l 257 76 l 278 60 l 278 57 l 281 57 l 306 32 q 311 29 308 32 l 311 26 q 314 25 313 26 l 335 11 q 336 10 336 11 l 340 6 q 342 4 340 4 q 344 3 342 3 l 349 3 l 351 0 l 364 -4 q 408 -61 408 -71 q 388 -100 408 -76 l 372 -100 q 371 -101 372 -101 q 297 -104 318 -104 q 296 -107 297 -107 l 294 -106 q 292 -104 293 -104 l 276 -106 l 265 -103 q 240 -101 267 -101 q 233 -100 235 -101 l 161 -74 q 153 -71 156 -74 l 151 -67 l 147 -67 l 144 -64 q 142 -62 143 -62 q 136 -60 136 -62 l 106 -32 q 101 -31 103 -32 l 101 -28 l 99 -26 q 97 -25 99 -25 q 94 -24 96 -24 l 94 -21 q 93 -17 94 -18 l 90 -14 q 89 -11 89 -14 l 89 -7 l 79 10 q 78 11 79 11 l 76 13 q 74 29 74 21 l 65 56 q 63 67 65 64 q 60 88 60 69 q 57 89 57 88 l 54 104 q 57 103 56 103 l 54 124 q 56 126 56 125 q 50 142 53 138 q 43 153 43 149 l 39 172 l 29 203 l 24 260 l 25 261 l 26 260 l 19 365 q 21 376 19 375 q 22 378 22 376 q 26 393 26 390 q 25 394 25 393 l 26 401 l 25 429 q 35 607 25 500 l 46 749 q 50 764 46 751 q 51 765 51 764 q 53 775 51 772 q 54 776 54 775 l 57 779 l 57 785 q 58 793 57 792 l 63 807 q 64 819 63 817 q 65 822 65 821 q 74 842 65 828 l 81 865 q 82 872 81 871 l 99 900 q 111 913 99 904 l 128 933 q 129 936 128 936 l 131 936 q 133 938 133 936 l 138 946 q 143 950 140 949 q 165 975 160 967 l 165 978 q 167 981 165 979 l 185 1007 q 188 1008 188 1007 l 188 1014 l 197 1018 l 224 1044 l 226 1044 q 229 1046 228 1044 l 231 1047 q 235 1053 231 1050 l 236 1053 q 239 1054 239 1053 l 246 1063 l 254 1067 q 299 1089 281 1089 l 300 1089 q 335 1061 319 1089 q 333 1050 333 1060 l 333 1029 q 319 1010 333 1017 l 318 1010 q 315 1008 315 1010 l 303 996 l 299 996 l 292 992 l 289 988 l 269 972 l 263 963 q 261 960 263 960 q 253 956 261 958 l 253 958 z "},")":{"ha":458,"x_min":15,"x_max":440,"o":"m 413 421 q 415 418 413 418 q 414 444 415 440 l 408 444 l 413 421 m 360 882 q 361 883 361 882 l 358 893 q 353 896 358 896 q 360 882 353 882 m 265 918 l 265 914 q 271 906 265 907 l 272 910 q 274 915 274 913 l 272 925 l 269 925 l 269 918 l 265 918 m 338 943 q 333 949 338 949 q 338 943 333 946 m 276 947 q 281 940 278 947 l 281 938 q 283 932 281 935 l 288 928 l 289 924 q 293 921 292 921 q 292 928 292 922 l 293 938 q 292 943 293 942 l 281 954 l 278 954 l 276 947 m 371 958 q 376 947 375 947 l 382 949 q 368 976 381 974 l 365 976 l 368 960 l 371 958 m 340 1026 l 329 1035 q 328 1036 329 1036 q 321 1039 325 1039 q 318 1036 318 1039 l 335 1019 q 343 1013 339 1013 l 340 1026 m 401 919 l 401 914 q 403 910 401 911 l 410 894 l 410 890 q 411 885 410 886 l 415 868 l 419 831 q 421 815 421 828 l 422 783 q 425 756 425 775 q 431 738 425 760 l 433 706 q 436 667 435 672 l 439 656 l 439 632 q 440 629 440 631 l 440 610 q 439 563 440 572 q 438 543 439 547 l 436 535 q 431 522 436 528 q 429 507 429 519 l 428 464 q 426 461 426 463 q 428 460 428 461 l 426 414 l 429 375 l 428 365 l 429 315 l 428 308 l 426 224 q 422 182 426 201 q 421 176 421 181 l 419 167 l 406 125 l 404 125 q 400 117 400 119 q 396 106 400 114 l 392 100 l 393 90 l 389 71 q 388 58 389 60 q 386 57 386 58 l 385 53 q 383 50 385 51 l 379 43 q 376 42 376 43 l 371 35 q 369 31 369 33 l 360 21 l 360 18 l 357 18 q 356 17 356 18 l 336 -3 l 332 -3 q 326 -11 331 -7 l 315 -22 l 313 -22 l 306 -28 q 283 -46 293 -33 q 281 -50 281 -49 l 281 -53 l 278 -54 q 272 -64 272 -60 l 267 -71 q 257 -82 267 -72 l 257 -86 l 251 -90 q 250 -94 250 -92 l 250 -97 l 246 -97 l 244 -101 l 239 -106 l 236 -106 q 233 -107 233 -106 q 203 -114 217 -114 l 183 -112 q 181 -114 183 -114 l 168 -112 l 143 -115 q 140 -117 140 -115 q 122 -114 132 -114 l 114 -114 q 107 -112 108 -114 l 93 -107 q 72 -103 78 -103 q 44 -85 64 -92 q 25 -67 43 -85 q 21 -64 25 -68 l 15 -51 l 18 -26 q 22 -22 18 -24 l 26 -19 q 33 -10 33 -12 l 43 -6 l 43 -3 l 50 3 l 53 3 q 56 4 54 3 q 60 7 57 4 q 67 11 64 11 l 68 15 q 72 17 69 17 l 75 18 q 76 19 76 18 l 78 21 q 81 22 79 22 l 85 22 l 97 32 l 104 35 q 113 40 110 40 l 138 54 q 140 58 138 58 q 144 60 142 60 l 153 68 q 157 69 156 68 l 172 90 q 174 93 174 92 l 174 96 l 176 99 q 181 106 176 101 l 201 151 q 206 157 206 156 l 221 196 q 222 204 221 203 q 224 207 224 206 l 232 233 q 239 303 239 271 l 242 336 q 240 338 240 336 q 244 369 240 357 l 246 392 q 244 454 246 439 l 246 490 l 239 533 l 238 610 q 236 611 236 610 l 238 617 q 236 618 236 617 q 238 621 238 619 l 240 682 q 239 685 239 683 q 240 686 240 685 l 240 757 l 236 815 l 238 817 q 236 818 236 817 l 239 886 q 238 897 239 894 l 232 921 q 231 926 232 924 l 228 933 q 226 936 228 935 l 224 938 q 221 944 224 942 q 207 957 215 954 q 203 958 204 957 l 199 961 l 179 961 q 161 963 165 961 l 153 965 l 151 968 q 146 972 146 968 q 143 975 146 974 l 140 976 q 133 986 129 988 q 132 988 133 988 l 129 988 l 125 992 q 111 996 115 996 l 89 999 q 58 1010 61 1000 l 58 1013 q 64 1026 58 1026 l 113 1047 q 115 1049 114 1047 q 117 1051 117 1049 l 126 1054 l 126 1056 q 131 1057 129 1056 l 132 1060 q 142 1063 135 1063 q 150 1065 149 1064 q 165 1071 157 1071 q 167 1072 165 1072 l 194 1074 q 221 1072 217 1074 l 231 1072 q 232 1071 231 1071 l 244 1068 q 253 1067 250 1068 q 256 1065 254 1065 l 268 1063 q 299 1053 278 1063 l 310 1049 q 317 1047 315 1049 l 332 1039 q 335 1035 331 1039 q 347 1024 338 1033 q 358 1017 356 1024 l 358 1014 q 360 1011 358 1011 l 367 1006 l 367 1003 q 368 1000 367 1001 q 369 999 368 999 q 371 996 371 997 l 372 992 q 378 982 376 992 q 381 963 378 971 q 383 958 379 963 l 389 956 q 390 953 390 954 l 390 949 q 394 938 394 944 l 401 919 z "},"*":{"ha":410,"x_min":21,"x_max":390,"o":"m 21 926 l 32 939 l 32 942 q 33 944 32 943 q 35 947 33 946 l 38 951 q 44 944 40 951 l 47 942 q 58 951 47 940 l 63 957 q 71 965 65 961 l 76 969 q 79 971 76 971 l 85 972 l 86 975 l 92 975 l 97 978 q 110 978 104 981 l 119 975 l 132 968 l 140 958 q 143 954 144 954 q 150 950 149 954 q 151 949 151 950 l 179 929 q 185 933 185 931 l 188 932 q 189 935 189 933 l 192 940 q 189 956 192 953 l 186 969 q 183 978 185 978 l 181 1003 l 182 1011 l 185 1014 l 190 1011 q 211 1010 210 1011 l 217 1011 l 244 1003 q 253 994 247 997 q 258 990 258 992 l 260 989 l 258 986 l 263 976 l 258 928 q 257 918 257 926 l 257 914 l 292 943 q 294 946 289 946 q 300 949 297 946 q 306 953 304 953 l 313 957 l 335 964 q 342 963 336 963 l 347 963 l 350 953 q 340 940 350 946 q 339 936 339 939 l 338 929 l 333 926 l 333 924 q 332 921 333 922 l 324 913 q 319 903 324 910 l 310 886 q 308 882 308 885 l 307 878 q 306 876 307 876 l 303 872 q 301 871 301 872 l 299 864 q 306 844 294 858 l 339 810 l 347 799 q 350 796 350 799 q 354 790 350 794 l 365 779 q 371 775 371 779 l 376 767 q 382 756 381 763 q 383 754 383 756 q 385 746 383 747 q 390 724 390 733 q 386 713 390 719 l 369 694 l 356 693 q 353 689 353 690 l 353 683 l 346 678 l 331 683 l 329 686 q 322 683 329 690 l 322 682 q 307 672 317 672 l 286 678 q 279 681 282 678 l 271 686 l 247 715 q 243 719 244 719 l 228 733 l 199 765 l 199 768 l 193 769 l 176 756 l 100 675 q 99 672 100 672 l 88 665 l 86 663 q 78 661 81 663 q 76 660 78 660 l 56 657 l 49 660 l 42 665 l 39 671 l 39 675 q 38 683 36 682 l 39 683 q 40 692 39 690 l 43 699 q 46 703 43 700 q 47 706 46 706 l 57 718 q 71 738 67 735 l 75 742 l 75 744 l 78 744 l 78 747 q 96 764 92 758 l 106 774 l 108 774 l 126 793 l 133 804 q 121 822 133 813 l 114 829 q 113 831 114 831 l 110 831 l 83 854 q 76 858 81 854 q 75 860 76 860 l 74 863 q 67 867 71 863 q 58 872 63 868 q 53 876 58 871 l 46 882 q 43 883 43 882 l 29 900 l 21 926 m 60 921 q 57 914 57 921 l 57 908 q 60 906 57 906 l 61 907 q 61 904 58 904 q 61 908 63 906 l 60 921 m 57 900 q 56 915 56 904 q 53 925 57 922 q 51 913 46 918 l 56 900 l 57 900 z "},"+":{"ha":485,"x_min":21,"x_max":467,"o":"m 389 546 l 389 543 q 386 546 386 543 l 389 546 m 386 513 q 383 513 385 511 l 383 508 l 385 510 q 388 510 386 511 l 388 507 q 394 507 390 504 q 393 511 394 510 l 392 514 l 386 513 m 381 511 q 383 508 381 508 l 381 511 m 136 485 m 315 276 q 318 279 321 276 q 315 276 315 279 m 414 494 q 407 493 414 486 l 407 490 q 411 489 407 489 l 419 485 q 421 486 419 486 l 428 481 l 440 475 l 440 471 l 447 468 l 451 464 q 454 461 451 461 q 453 453 453 461 l 454 453 l 454 450 l 464 436 l 464 421 q 464 413 467 417 l 460 403 l 454 397 l 458 393 q 460 392 458 392 l 454 385 q 456 375 454 376 l 454 371 l 438 361 q 436 360 436 361 l 436 358 l 429 357 q 426 353 428 353 l 424 353 q 410 351 422 351 l 375 350 l 374 349 q 371 347 372 347 l 368 347 q 357 346 360 347 l 339 342 q 332 340 333 342 l 333 276 l 335 275 l 333 268 q 331 276 332 268 q 326 285 329 285 q 325 274 325 285 q 324 269 325 271 q 322 276 322 271 l 321 281 q 319 285 319 282 l 319 292 q 318 286 317 292 q 317 281 318 282 q 314 290 314 283 l 310 300 q 307 297 307 300 l 303 297 l 303 292 l 300 290 l 300 286 l 297 283 l 299 282 l 297 281 q 294 279 294 281 l 299 276 q 289 279 301 279 l 285 276 q 282 272 283 276 l 281 264 q 279 261 281 261 l 276 267 q 274 283 276 272 l 271 281 l 271 282 q 269 283 271 283 q 265 282 267 283 q 261 279 264 282 q 260 263 261 267 l 260 257 l 258 263 q 254 268 257 267 q 249 264 253 268 l 250 256 q 247 258 247 253 l 246 260 q 242 263 246 265 l 240 267 q 233 267 238 264 q 228 275 232 271 q 226 268 226 274 l 226 258 l 222 264 q 221 265 221 264 l 222 268 l 221 268 q 217 265 219 268 l 213 267 l 211 260 q 210 253 211 254 q 208 254 208 253 l 199 265 q 192 265 197 271 l 192 249 q 190 246 190 247 l 188 254 l 189 256 l 186 258 q 179 267 182 269 l 176 269 l 172 268 q 167 267 169 265 q 164 263 164 267 l 158 263 q 156 268 158 265 q 154 264 154 268 q 156 256 154 254 l 151 261 q 150 267 150 264 l 146 288 l 140 299 q 139 306 139 301 q 138 313 140 310 q 142 331 131 331 q 140 333 142 333 l 139 338 q 131 339 138 339 l 85 350 q 81 351 82 350 l 63 358 q 60 361 63 360 l 57 363 q 49 369 49 368 l 44 374 q 40 376 46 375 l 36 381 l 38 382 q 39 383 40 382 l 36 392 q 33 393 36 393 q 31 394 32 394 q 32 396 31 396 l 35 396 l 35 397 q 35 399 36 399 l 33 400 l 35 401 l 32 404 q 28 408 28 406 l 24 410 l 25 418 l 31 418 q 29 421 31 419 l 26 422 q 24 424 25 424 l 21 424 q 25 425 22 425 q 28 426 28 425 l 28 433 l 35 435 l 33 440 q 35 442 33 442 l 36 443 q 29 450 36 447 q 33 451 29 451 l 35 456 l 40 457 q 42 467 49 458 q 39 468 40 467 l 36 471 q 40 472 38 472 l 43 474 q 44 479 43 479 l 46 481 q 46 485 49 483 q 49 486 46 486 q 51 488 50 486 l 51 490 q 53 490 53 489 q 50 494 53 497 q 47 506 50 497 l 54 507 l 53 510 l 63 510 l 57 514 q 63 515 57 515 l 82 515 q 86 513 83 515 l 101 511 q 106 510 104 511 q 129 508 111 508 q 125 507 129 507 q 133 506 125 506 l 136 504 l 136 501 l 131 501 q 138 500 131 500 q 136 499 138 499 l 142 499 l 143 496 l 146 496 q 150 496 150 492 l 151 496 l 151 503 q 153 506 151 504 l 154 507 q 153 511 154 510 l 156 518 q 150 521 153 521 l 75 519 q 63 521 65 519 q 64 525 64 522 l 68 529 l 94 532 l 96 531 q 97 529 97 531 l 111 529 q 119 528 124 529 l 124 525 q 131 526 126 526 l 132 525 q 135 526 133 525 l 136 528 l 157 526 l 161 549 q 168 576 168 583 l 172 581 q 178 596 176 594 q 179 615 179 600 l 185 619 q 186 624 185 622 l 199 626 l 203 631 l 208 628 l 217 632 l 232 632 l 235 628 l 240 626 q 242 631 242 626 q 243 633 242 632 q 251 631 249 633 q 258 633 256 631 q 265 635 261 632 l 275 636 l 282 640 l 286 646 l 293 643 l 297 644 q 300 643 297 643 q 294 640 300 640 l 296 640 q 296 638 297 639 q 293 640 293 638 q 289 642 290 643 q 289 639 288 640 l 292 632 l 297 626 q 292 625 297 631 l 292 618 q 294 610 292 613 l 299 614 q 299 619 297 615 l 299 621 q 314 619 297 619 q 315 629 310 624 l 314 628 l 311 629 l 310 633 q 308 636 310 635 l 307 638 q 306 642 306 639 q 311 640 308 642 l 314 639 q 311 644 319 644 l 315 644 q 317 643 317 644 l 317 638 l 321 631 l 324 631 q 328 626 324 629 q 331 621 331 624 l 331 633 q 336 629 332 633 l 339 626 l 347 588 l 346 586 q 346 583 344 585 q 347 586 347 583 l 349 589 q 350 581 350 588 l 350 567 l 356 585 q 357 588 356 588 q 356 571 357 575 l 356 568 q 354 560 356 561 l 360 558 q 364 558 363 557 q 364 554 360 554 q 361 550 364 553 l 364 550 q 367 547 368 550 l 382 544 q 381 542 382 542 l 383 539 q 385 536 388 539 q 383 536 383 535 l 382 538 q 379 538 381 539 l 379 535 l 374 535 q 379 532 374 532 l 379 529 q 381 526 379 526 l 386 526 l 388 521 l 385 521 q 381 521 383 519 q 376 515 381 515 q 378 513 376 514 l 379 513 l 379 507 l 386 507 q 386 503 376 503 l 385 500 q 388 501 385 501 l 393 501 l 399 496 l 394 493 q 389 492 396 492 l 394 490 q 396 490 396 492 l 406 489 l 404 499 l 414 494 m 244 624 l 244 622 l 242 622 l 242 624 l 244 624 m 275 621 q 276 619 276 621 l 276 618 q 275 621 275 618 m 283 619 q 286 618 286 619 q 283 619 282 618 m 283 615 q 282 613 283 614 l 279 615 l 283 615 m 282 582 q 283 589 283 583 l 283 597 q 285 604 286 600 q 279 608 283 608 l 278 607 q 276 604 276 606 q 279 603 279 604 q 275 600 275 603 q 276 593 276 599 q 278 592 276 592 l 279 589 q 282 582 279 582 m 346 582 q 344 575 344 581 q 346 582 346 576 m 354 554 l 357 554 l 357 556 l 354 556 l 354 554 m 374 529 q 376 529 374 532 l 374 529 m 63 508 m 114 501 q 119 503 115 503 q 125 500 125 503 l 114 501 m 124 496 q 121 496 124 493 l 124 496 m 140 496 l 133 494 l 133 496 l 140 496 m 117 493 q 124 490 124 493 l 118 490 q 117 493 117 492 m 143 492 q 151 490 151 492 l 147 482 l 138 482 l 136 481 q 133 479 135 479 q 132 483 131 482 q 131 486 132 485 l 129 488 l 144 489 l 143 492 m 136 476 q 132 474 136 474 q 136 476 132 481 m 133 471 q 138 472 133 472 l 144 474 l 147 471 l 133 471 m 158 322 q 157 321 157 322 l 161 318 l 161 333 l 157 333 l 158 322 m 160 317 q 161 310 160 310 q 160 317 161 317 m 161 293 l 163 292 l 161 292 l 161 293 z "},",":{"ha":300,"x_min":19,"x_max":274,"o":"m 151 210 q 147 210 151 208 l 151 210 m 265 167 q 267 169 265 168 q 268 164 268 169 l 269 164 l 269 158 q 268 161 269 160 q 267 163 268 163 l 261 164 l 258 168 q 261 169 258 169 q 265 169 264 171 l 265 167 m 263 106 q 267 106 265 108 l 265 106 q 263 104 263 106 l 263 99 l 260 97 l 258 90 q 260 94 260 90 q 261 93 261 94 l 261 90 q 264 89 263 89 l 268 89 l 268 90 q 271 92 271 93 q 269 89 271 90 q 265 88 267 89 l 261 83 l 258 76 q 258 72 261 75 q 261 71 258 71 l 268 89 l 269 85 l 274 85 l 274 78 q 272 71 274 72 q 271 71 271 72 q 272 69 272 71 q 272 65 271 68 q 269 61 274 65 l 268 49 q 265 49 265 51 l 265 60 l 264 61 l 261 58 l 263 56 l 261 54 q 258 49 258 51 l 258 46 l 254 42 l 256 40 q 257 38 258 39 l 254 33 l 254 25 l 264 40 q 267 42 265 42 l 264 32 l 265 29 l 261 22 l 257 4 q 256 0 257 1 q 254 -1 254 0 l 240 -21 q 232 -31 243 -19 l 232 -36 l 225 -44 q 222 -49 222 -47 l 222 -50 q 221 -53 222 -51 q 219 -54 219 -53 l 213 -67 l 208 -79 q 206 -79 206 -76 l 210 -79 q 208 -82 210 -81 l 203 -89 q 199 -89 197 -90 l 193 -92 l 193 -93 q 192 -94 193 -94 l 181 -99 l 176 -107 l 172 -111 l 165 -114 l 165 -117 q 161 -118 161 -117 q 160 -117 160 -118 q 156 -122 156 -121 l 146 -128 l 143 -132 q 142 -131 142 -132 q 139 -132 140 -131 l 136 -133 q 135 -128 135 -132 l 118 -137 q 111 -139 113 -137 l 85 -154 l 85 -156 q 79 -157 81 -156 l 74 -161 l 63 -162 l 63 -164 q 61 -165 63 -165 l 58 -165 q 56 -167 57 -165 l 54 -168 q 46 -174 51 -168 l 44 -175 q 40 -178 40 -179 l 31 -183 l 25 -179 l 22 -179 q 24 -176 22 -178 l 26 -174 q 29 -160 35 -157 l 31 -158 q 35 -146 31 -150 l 35 -140 q 42 -135 38 -139 l 49 -126 q 63 -111 63 -112 l 76 -101 q 78 -99 76 -100 q 79 -97 79 -99 l 118 -58 l 118 -54 q 131 -47 121 -51 q 136 -35 133 -43 q 140 -21 140 -31 q 142 -18 142 -19 l 142 -14 l 143 -14 q 144 -10 144 -12 l 144 3 l 136 3 q 135 1 136 1 l 117 1 l 103 4 q 100 6 100 3 l 93 7 q 88 13 90 7 l 85 18 l 83 17 l 72 19 l 71 18 q 71 19 72 19 l 43 21 q 40 25 40 24 l 35 25 l 35 28 q 33 29 35 31 q 35 33 35 31 q 40 36 40 33 l 33 36 q 32 39 33 38 q 31 42 32 42 l 26 46 l 28 50 l 24 54 l 24 63 l 19 67 l 19 76 l 24 76 q 25 82 25 78 q 24 85 26 82 q 21 89 19 89 l 19 103 q 21 107 19 106 q 29 111 24 107 l 29 114 q 31 117 29 115 q 32 118 32 117 l 32 121 q 33 122 32 122 l 36 122 l 39 129 l 44 129 q 51 140 44 133 l 56 146 l 58 146 l 63 150 q 67 151 64 151 l 65 157 l 74 164 q 79 169 71 167 l 76 175 q 79 174 78 176 l 82 172 q 89 174 89 172 q 89 175 88 175 l 94 176 l 90 181 l 94 182 l 101 181 q 115 186 107 186 l 115 188 l 147 197 q 154 199 153 197 l 172 204 q 176 206 174 206 l 181 207 l 179 208 q 179 210 178 208 q 174 208 176 210 l 169 206 q 165 208 167 206 l 163 210 l 181 213 q 192 214 185 214 l 200 211 q 207 210 204 208 q 206 201 208 210 l 206 193 l 210 192 q 222 197 222 196 q 229 186 229 197 l 231 183 q 235 171 236 172 q 236 169 236 171 l 247 171 q 254 168 254 171 l 258 168 l 258 163 q 260 154 258 158 q 261 149 264 151 l 257 149 l 253 156 q 251 157 251 156 q 250 147 250 157 l 250 146 q 251 139 251 144 q 254 128 251 131 q 257 131 257 128 l 258 132 l 258 121 l 263 117 l 261 110 l 263 106 m 257 108 q 261 118 261 113 q 258 121 257 119 l 257 121 q 256 126 257 125 q 254 118 254 125 q 257 108 254 108 m 254 103 q 253 93 251 100 l 257 93 q 254 103 257 103 m 249 44 q 243 32 247 43 q 240 18 240 26 q 246 28 244 18 l 247 29 q 249 35 249 31 l 250 43 q 249 44 250 44 m 242 -3 q 235 -8 239 -4 l 231 -12 q 226 -22 231 -26 l 231 -19 q 236 -18 233 -17 l 236 -17 q 238 -11 238 -18 l 238 -8 l 240 -7 q 242 -3 242 -6 m 199 -75 l 196 -79 l 197 -82 l 199 -75 m 168 -99 q 164 -104 168 -100 l 160 -110 q 168 -104 168 -110 l 169 -100 l 168 -99 m 97 -106 q 97 -103 94 -106 l 97 -106 m 149 -119 l 147 -118 l 149 -119 m 142 -124 q 146 -119 150 -124 l 142 -124 z "},"-":{"ha":436,"x_min":24,"x_max":411,"o":"m 192 544 q 229 542 206 542 q 267 544 253 542 q 260 540 264 542 q 251 539 258 539 q 249 538 249 539 l 247 535 l 226 531 l 233 529 q 239 528 239 529 l 236 526 q 233 525 233 526 l 214 525 q 235 521 218 521 l 240 519 q 242 521 240 521 l 254 521 q 244 518 251 518 q 251 515 244 515 l 265 517 l 268 519 l 274 519 l 274 521 l 310 521 q 271 528 314 517 q 282 531 271 531 l 296 531 q 293 535 296 532 q 292 539 292 536 l 282 540 q 275 543 275 540 l 275 544 q 292 543 276 543 l 307 544 q 304 546 307 546 q 300 547 303 547 q 310 549 301 549 l 403 551 l 410 547 l 408 544 q 407 543 407 544 l 406 529 l 401 524 q 404 521 401 522 l 407 519 q 401 503 407 525 q 379 501 400 501 q 386 497 379 497 l 397 499 l 397 497 q 399 490 397 493 q 411 488 401 488 q 401 483 411 485 q 400 482 401 482 l 390 481 l 394 474 q 393 471 394 472 q 383 468 390 468 q 346 465 372 465 l 336 464 l 332 465 l 256 467 q 253 465 254 465 q 249 464 249 465 q 257 461 251 461 q 281 460 265 460 l 292 460 q 285 456 290 456 l 272 458 l 254 458 l 232 456 q 190 453 210 456 q 194 450 190 450 l 201 450 l 199 447 l 193 447 q 182 444 190 447 q 194 443 182 443 q 251 444 203 444 l 253 443 l 242 442 l 238 439 q 251 438 239 438 l 301 433 l 299 436 q 296 439 296 438 l 296 442 q 304 444 299 444 l 313 444 l 313 443 l 328 444 q 324 443 326 443 q 321 442 322 442 q 325 439 321 439 q 331 442 331 439 l 331 444 q 332 446 331 446 q 353 444 340 444 l 364 446 l 372 443 q 386 446 389 449 q 392 442 386 442 l 390 439 q 389 433 389 436 l 389 432 q 388 426 388 431 l 389 424 l 388 414 l 385 408 q 400 396 388 397 l 399 393 q 397 389 397 392 l 397 388 q 394 386 396 386 l 392 386 l 392 385 l 371 385 l 368 386 l 318 383 q 300 385 306 383 l 296 386 q 288 388 289 386 l 288 389 q 286 390 288 390 l 238 392 l 204 385 q 188 383 190 385 q 179 382 186 382 l 168 382 q 140 381 164 381 l 64 378 l 63 376 q 47 381 51 376 l 32 383 q 28 392 32 385 q 24 400 24 397 q 26 401 24 401 l 28 401 l 28 404 q 26 413 26 406 l 28 435 q 31 439 28 439 l 29 443 l 33 464 q 29 472 33 471 q 33 483 33 479 l 32 489 q 36 493 35 489 q 40 497 39 497 q 38 501 38 500 l 42 503 l 43 511 q 47 522 44 519 l 50 535 q 56 543 50 543 l 58 546 l 86 547 q 119 546 92 546 l 197 546 l 196 544 q 194 542 194 543 l 192 544 m 275 444 l 276 446 l 278 444 l 275 444 m 265 442 l 265 444 l 261 443 q 263 442 261 442 l 265 442 m 382 458 q 385 456 382 456 q 393 461 393 456 l 382 458 m 318 458 q 308 456 315 456 q 300 457 301 456 q 310 460 303 460 q 318 458 317 460 z "},".":{"ha":225,"x_min":25,"x_max":206,"o":"m 168 19 q 163 18 167 18 l 156 18 l 138 0 l 124 -3 q 118 0 121 -3 l 117 0 q 115 0 117 1 l 72 8 l 68 11 q 65 13 67 13 l 51 19 l 43 28 q 42 31 42 28 q 40 32 42 32 l 31 47 l 31 53 l 28 56 l 25 83 l 26 97 l 35 128 l 54 168 q 56 171 54 169 l 74 197 l 85 207 q 92 213 88 213 l 104 219 q 113 222 107 222 l 124 222 q 125 224 124 224 l 126 221 l 133 221 q 153 217 142 221 l 165 214 l 181 206 l 186 200 q 188 196 186 197 l 189 193 q 190 192 190 193 l 197 176 l 201 144 l 200 108 l 201 81 q 203 61 206 68 l 199 47 l 179 25 l 168 19 z "}}}
